<?xml version="1.0" encoding="UTF-8"?>
<svg width="24px" height="24px" viewBox="0 0 24 24" version="1.1" xmlns="http://www.w3.org/2000/svg" xmlns:xlink="http://www.w3.org/1999/xlink">
    <title>arrow-right-2</title>
    <g id="Page-1" stroke="none" stroke-width="1" fill="none" fill-rule="evenodd">
        <g id="Artboard">
            <circle id="Oval" fill-opacity="0.06" fill="#000000" cx="12" cy="12" r="11"></circle>
            <path d="M14.5731882,7.37220415 L14.6529881,7.45584326 L17.1529881,10.4558433 C17.3894024,10.7395404 17.4130438,11.1387892 17.2239124,11.4455966 L17.1529881,11.5441567 L14.6529881,14.5441567 C14.3524586,14.9047921 13.8164786,14.9535176 13.4558433,14.6529881 C13.1252608,14.3775027 13.0567694,13.9041735 13.2791341,13.5494174 L13.3470119,13.4558433 L14.685,11.8499787 L11,11.85 C10.4072144,11.85 9.91918414,12.2985112 9.85674804,12.8746948 L9.85,13 L9.85,15.5 C9.85,15.969442 9.46944204,16.35 9,16.35 C8.56666889,16.35 8.20907332,16.0257376 8.15662271,15.6066222 L8.15,15.5 L8.15,13 C8.15,11.4822032 9.33647397,10.2415222 10.8325409,10.1548381 L11,10.15 L14.685,10.1499787 L13.3470119,8.54415674 C13.0715266,8.21357432 13.0895124,7.73565371 13.3722042,7.42681177 L13.4558433,7.34701191 C13.7864257,7.07152657 14.2643463,7.08951237 14.5731882,7.37220415 Z" id="Path" fill="#2775EB" fill-rule="nonzero"></path>
        </g>
    </g>
</svg>