<svg id="Layer_1" xmlns="http://www.w3.org/2000/svg" viewBox="0 0 4993.8 3256.8"><style>.st0{opacity:.5}.st1{fill:none;stroke:#fff;stroke-width:2;stroke-miterlimit:10}</style><g class="st0"><path class="st1" d="M-250.7 236c219.2 0 219.2 71.6 438.5 71.6C407 307.6 407 236 626.2 236s219.2 71.6 438.5 71.6c219.2 0 219.2-71.6 438.5-71.6 219.2 0 219.2 71.6 438.5 71.6 219.2 0 219.2-71.6 438.5-71.6m-2619.4 11.9c219.3 0 219.3 71.5 438.5 71.5s219.2-71.6 438.5-71.6c219.2 0 219.2 71.6 438.5 71.6 219.2 0 219.2-71.6 438.5-71.6 219.2 0 219.2 71.6 438.5 71.6s219.2-71.6 438.5-71.6m-2619.5 11.9c219.2 0 219.2 71.6 438.5 71.6 219.2 0 219.2-71.6 438.5-71.6 219.2 0 219.2 71.6 438.5 71.6 219.2 0 219.2-71.6 438.5-71.6 219.2 0 219.2 71.6 438.5 71.6s219.2-71.6 438.5-71.6m-2619.4 11.9c219.2 0 219.2 71.6 438.5 71.6 219.2 0 219.2-71.6 438.5-71.6 219.2 0 219.2 71.6 438.5 71.6 219.2 0 219.2-71.6 438.5-71.6s219.2 71.6 438.5 71.6 219.2-71.6 438.5-71.6m-2619.6 11.8c219.2 0 219.2 71.6 438.5 71.6 219.2 0 219.2-71.6 438.5-71.6 219.2 0 219.2 71.6 438.5 71.6 219.2 0 219.2-71.6 438.5-71.6 219.2 0 219.2 71.6 438.5 71.6 219.2 0 219.2-71.6 438.5-71.6m-2619.5 11.9c219.2 0 219.2 71.6 438.5 71.6 219.2 0 219.2-71.6 438.5-71.6 219.2 0 219.2 71.6 438.5 71.6 219.2 0 219.2-71.6 438.5-71.6 219.2 0 219.2 71.6 438.5 71.6s219.2-71.6 438.5-71.6m-2619.5 12c219.2 0 219.2 71.6 438.5 71.6 219.2 0 219.2-71.6 438.5-71.6 219.2 0 219.2 71.6 438.5 71.6 219.2 0 219.2-71.6 438.5-71.6s219.2 71.6 438.5 71.6 219.1-71.6 438.2-71.6m-2619.1 11.8c219.2 0 219.2 71.6 438.5 71.6 219.2 0 219.2-71.6 438.5-71.6 219.2 0 219.2 71.6 438.5 71.6 219.2 0 219.2-71.6 438.5-71.6s219.2 71.6 438.5 71.6 219.2-71.6 438.5-71.6M-158.6 331c219.2 0 219.2 71.6 438.5 71.6 219.2 0 219.2-71.6 438.5-71.6 219.2 0 219.2 71.6 438.5 71.6 219.2 0 219.2-71.6 438.5-71.6 219.2 0 219.2 71.6 438.5 71.6 219.2 0 219.2-71.6 438.5-71.6m-2619.5 11.9c219.2 0 219.2 71.6 438.5 71.6 219.2 0 219.2-71.6 438.5-71.6 219.2 0 219.2 71.6 438.5 71.6 219.2 0 219.2-71.6 438.5-71.6 219.2 0 219.2 71.6 438.5 71.6 219.2 0 219.2-71.6 438.5-71.6m-2619.5 11.8c219.2 0 219.2 71.6 438.5 71.6 219.2 0 219.2-71.6 438.5-71.6 219.2 0 219.2 71.6 438.5 71.6 219.2 0 219.2-71.6 438.5-71.6 219.2 0 219.2 71.6 438.5 71.6 219.2 0 219.2-71.6 438.5-71.6M-124 366.6c219.2 0 219.2 71.6 438.5 71.6 219.2 0 219.2-71.6 438.5-71.6 219.2 0 219.2 71.6 438.5 71.6 219.2 0 219.2-71.6 438.5-71.6 219.2 0 219.2 71.6 438.5 71.6 219.2 0 219.2-71.6 438.5-71.6m-2619.6 11.8c219.2 0 219.2 71.6 438.5 71.6 219.2 0 219.2-71.6 438.5-71.6 219.2 0 219.2 71.6 438.5 71.6 219.2 0 219.2-71.6 438.5-71.6 219.2 0 219.2 71.6 438.5 71.6 219.2 0 219.2-71.6 438.5-71.6m-2619.5 11.9c219.2 0 219.2 71.6 438.5 71.6 219.2 0 219.2-71.6 438.5-71.6 219.2 0 219.2 71.6 438.5 71.6 219.2 0 219.2-71.6 438.5-71.6s219.2 71.6 438.5 71.6 219.2-71.6 438.5-71.6M-89.6 402.2c219.2 0 219.2 71.6 438.5 71.6 219.2 0 219.2-71.6 438.5-71.6 219.2 0 219.2 71.6 438.5 71.6 219.2 0 219.2-71.6 438.5-71.6 219.2 0 219.2 71.6 438.5 71.6 219.2 0 219.2-71.6 438.5-71.6M-78.1 414c219.2 0 219.2 71.6 438.5 71.6 219.2 0 219.2-71.6 438.5-71.6 219.2 0 219.2 71.6 438.5 71.6 219.2 0 219.2-71.6 438.5-71.6 219.2 0 219.2 71.6 438.5 71.6 219.2 0 219.2-71.6 438.5-71.6M-66.5 425.9c219.2 0 219.2 71.6 438.5 71.6 219.2 0 219.2-71.6 438.5-71.6 219.2 0 219.2 71.6 438.5 71.6 219.2 0 219.2-71.6 438.5-71.6s219.2 71.6 438.5 71.6 219.2-71.6 438.5-71.6M-217.3 612.7c219.2 0 219.2 71.6 438.5 71.6 219.2 0 219.2-71.6 438.5-71.6 219.2 0 219.2 71.6 438.5 71.6 219.2 0 219.2-71.6 438.5-71.6 219.2 0 219.2 71.6 438.5 71.6 219.2 0 219.2-71.6 438.5-71.6M-202.5 629c219.2 0 219.2 71.6 438.5 71.6 219.2 0 219.2-71.6 438.5-71.6 219.2 0 219.2 71.6 438.5 71.6 219.2 0 219.2-71.6 438.5-71.6 219.2 0 219.2 71.6 438.5 71.6s219.2-71.6 438.5-71.6m-2616.4 16.4c219.2 0 219.2 71.6 438.5 71.6 219.2 0 219.2-71.6 438.5-71.6 219.2 0 219.2 71.6 438.5 71.6 219.2 0 219.2-71.6 438.5-71.6 219.2 0 219.2 71.6 438.5 71.6s219.2-71.6 438.5-71.6m-2616.2 16.3c219.2 0 219.2 71.6 438.5 71.6 219.2 0 219.2-71.6 438.5-71.6 219.2 0 219.2 71.6 438.5 71.6 219.2 0 219.2-71.6 438.5-71.6s219.2 71.6 438.5 71.6c219.2 0 219.2-71.6 438.5-71.6m-2616.2 16.4c219.2 0 219.2 71.6 438.4 71.6s219.2-71.6 438.5-71.6c219.2 0 219.2 71.6 438.5 71.6 219.2 0 219.2-71.6 438.5-71.6s219.1 71.6 438.4 71.6 219.2-71.6 438.5-71.6m-2616.1 16.3c219.2 0 219.2 71.6 438.5 71.6 219.2 0 219.2-71.6 438.5-71.6 219.2 0 219.2 71.6 438.5 71.6 219.2 0 219.2-71.6 438.5-71.6 219.2 0 219.2 71.6 438.5 71.6 219.2 0 219.2-71.6 438.5-71.6m-2616.2 16.4c219.2 0 219.2 71.6 438.5 71.6 219.2 0 219.2-71.6 438.5-71.6 219.2 0 219.2 71.6 438.5 71.6 219.2 0 219.2-71.6 438.5-71.6 219.2 0 219.2 71.6 438.5 71.6 219.2 0 219.2-71.6 438.5-71.6M-114 727.1c219.2 0 219.2 71.6 438.5 71.6 219.2 0 219.2-71.6 438.5-71.6 219.2 0 219.2 71.6 438.5 71.6 219.2 0 219.2-71.6 438.5-71.6 219.2 0 219.2 71.6 438.5 71.6 219.2 0 219.2-71.6 438.5-71.6M-99.4 743.5c219.2 0 219.2 71.6 438.5 71.6 219.2 0 219.2-71.6 438.5-71.6 219.2 0 219.2 71.6 438.5 71.6 219.2 0 219.2-71.6 438.5-71.6 219.2 0 219.2 71.6 438.5 71.6 219.2 0 219.2-71.6 438.5-71.6M-84.6 759.8c219.2 0 219.2 71.6 438.5 71.6 219.2 0 219.2-71.6 438.5-71.6 219.2 0 219.2 71.6 438.5 71.6 219.2 0 219.2-71.6 438.5-71.6s219.2 71.6 438.5 71.6c219.2 0 219.2-71.6 438.5-71.6M-69.9 776.2c219.2 0 219.2 71.6 438.5 71.6 219.2 0 219.2-71.6 438.5-71.6 219.2 0 219.2 71.6 438.5 71.6 219.2 0 219.2-71.6 438.5-71.6s219.2 71.6 438.5 71.6 219.2-71.6 438.5-71.6M-55.1 792.5c219.2 0 219.2 71.6 438.5 71.6 219.2 0 219.2-71.6 438.5-71.6 219.2 0 219.2 71.6 438.5 71.6 219.2 0 219.2-71.6 438.5-71.6 219.2 0 219.2 71.6 438.5 71.6 219.2 0 219.2-71.6 438.5-71.6M-40.4 808.9c219.2 0 219.2 71.6 438.5 71.6 219.2 0 219.2-71.6 438.5-71.6 219.2 0 219.2 71.6 438.5 71.6 219.2 0 219.2-71.6 438.5-71.6s219.1 71.6 438.2 71.6 219.2-71.6 438.5-71.6m-2616 16.4c219.2 0 219.2 71.6 438.5 71.6 219.2 0 219.2-71.6 438.5-71.6 219.2 0 219.2 71.6 438.5 71.6 219.2 0 219.2-71.6 438.5-71.6s219.2 71.6 438.5 71.6 219.2-71.6 438.5-71.6M-10.9 841.5c219.2 0 219.2 71.6 438.5 71.6 219.2 0 219.2-71.6 438.5-71.6 219.2 0 219.2 71.6 438.5 71.6 219.2 0 219.2-71.6 438.5-71.6 219.2 0 219.2 71.6 438.5 71.6s219.2-71.6 438.5-71.6M3.9 857.9c219.2 0 219.2 71.6 438.5 71.6 219.2 0 219.2-71.6 438.5-71.6 219.2 0 219.2 71.6 438.5 71.6 219.2 0 219.2-71.6 438.5-71.6 219.2 0 219.2 71.6 438.5 71.6 219.2 0 219.2-71.6 438.5-71.6M18.6 874.3c219.2 0 219.2 71.6 438.5 71.6 219.2 0 219.2-71.6 438.5-71.6 219.2 0 219.2 71.6 438.5 71.6 219.2 0 219.2-71.6 438.5-71.6 219.2 0 219.2 71.6 438.5 71.6 219.2 0 219.2-71.6 438.5-71.6m-2838.2 244c219.2 0 219.2 71.6 438.5 71.6 219.2 0 219.2-71.6 438.5-71.6 219.2 0 219.2 71.6 438.5 71.6 219.2 0 219.2-71.6 438.5-71.6 219.2 0 219.2 71.6 438.5 71.6 219.2 0 219.2-71.6 438.5-71.6m-2626.1 10.5c219.2 0 219.2 71.6 438.5 71.6 219.2 0 219.2-71.6 438.5-71.6 219.2 0 219.2 71.6 438.5 71.6 219.2 0 219.2-71.6 438.5-71.6s219.2 71.6 438.5 71.6 219.2-71.6 438.5-71.6m-2626.1 10.4c219.2 0 219.2 71.6 438.5 71.6 219.2 0 219.2-71.6 438.5-71.6 219.2 0 219.2 71.6 438.5 71.6 219.2 0 219.2-71.6 438.5-71.6 219.2 0 219.2 71.6 438.5 71.6 219.2 0 219.2-71.6 438.5-71.6m-2626.1 10.4c219.2 0 219.2 71.6 438.5 71.6 219.2 0 219.2-71.6 438.5-71.6 219.2 0 219.2 71.6 438.5 71.6 219.2 0 219.2-71.6 438.5-71.6 219.2 0 219.2 71.6 438.5 71.6 219.2 0 219.2-71.6 438.5-71.6m-2626 10.4c219.2 0 219.2 71.6 438.5 71.6 219.2 0 219.2-71.6 438.5-71.6 219.2 0 219.2 71.6 438.5 71.6 219.2 0 219.2-71.6 438.5-71.6s219.2 71.6 438.5 71.6 219.2-71.6 438.5-71.6M-164 1170.4c219.2 0 219.2 71.6 438.5 71.6 219.2 0 219.2-71.6 438.5-71.6 219.2 0 219.2 71.6 438.5 71.6 219.2 0 219.2-71.6 438.5-71.6 219.2 0 219.2 71.6 438.5 71.6 219.2 0 219.2-71.6 438.5-71.6m-2626.1 10.5c219.2 0 219.2 71.6 438.5 71.6 219.2 0 219.2-71.6 438.5-71.6 219.2 0 219.2 71.6 438.5 71.6 219.2 0 219.2-71.6 438.5-71.6s219.2 71.6 438.5 71.6 219.2-71.6 438.5-71.6m-2626.1 10.4c219.2 0 219.2 71.6 438.5 71.6 219.2 0 219.2-71.6 438.5-71.6 219.2 0 219.2 71.6 438.5 71.6 219.2 0 219.2-71.6 438.5-71.6 219.2 0 219.2 71.6 438.5 71.6 219.2 0 219.2-71.6 438.5-71.6m-2626 10.4c219.2 0 219.2 71.6 438.5 71.6 219.2 0 219.2-71.6 438.5-71.6 219.2 0 219.2 71.6 438.5 71.6 219.2 0 219.2-71.6 438.5-71.6 219.2 0 219.2 71.6 438.5 71.6 219.2 0 219.2-71.6 438.5-71.6m-2626.2 10.5c219.2 0 219.2 71.6 438.5 71.6 219.2 0 219.2-71.6 438.5-71.6 219.2 0 219.2 71.6 438.5 71.6 219.2 0 219.2-71.6 438.5-71.6s219.2 71.6 438.5 71.6 219.2-71.6 438.5-71.6m-2626.1 10.5c219.2 0 219.2 71.6 438.5 71.6 219.2 0 219.2-71.6 438.5-71.6 219.2 0 219.2 71.6 438.5 71.6 219.2 0 219.2-71.6 438.5-71.6s219.2 71.6 438.5 71.6c219.2 0 219.2-71.6 438.5-71.6m-2626 10.4c219.2 0 219.2 71.6 438.5 71.6 219.2 0 219.2-71.6 438.5-71.6 219.2 0 219.2 71.6 438.5 71.6 219.2 0 219.2-71.6 438.5-71.6 219.2 0 219.2 71.6 438.5 71.6s219.2-71.6 438.5-71.6m-2626.1 10.4c219.2 0 219.2 71.6 438.5 71.6 219.2 0 219.2-71.6 438.5-71.6 219.2 0 219.2 71.6 438.5 71.6 219.2 0 219.2-71.6 438.5-71.6s219.2 71.6 438.5 71.6c219.2 0 219.2-71.6 438.5-71.6m-2626.1 10.4c219.2 0 219.2 71.6 438.5 71.6 219.2 0 219.2-71.6 438.5-71.6 219.2 0 219.2 71.6 438.5 71.6 219.2 0 219.2-71.6 438.5-71.6 219.2 0 219.2 71.6 438.5 71.6 219.2 0 219.2-71.6 438.5-71.6m-2626.1 10.4c219.2 0 219.2 71.6 438.5 71.6 219.2 0 219.2-71.6 438.5-71.6 219.2 0 219.2 71.6 438.5 71.6 219.2 0 219.2-71.6 438.5-71.6 219.2 0 219.2 71.6 438.5 71.6 219.2 0 219.2-71.6 438.5-71.6m-2626 10.5c219.2 0 219.2 71.6 438.5 71.6 219.2 0 219.2-71.6 438.5-71.6 219.2 0 219.2 71.6 438.5 71.6 219.2 0 219.2-71.6 438.5-71.6 219.2 0 219.2 71.6 438.5 71.6s219.2-71.6 438.5-71.6m-2626.1 10.4c219.2 0 219.2 71.6 438.5 71.6 219.2 0 219.2-71.6 438.5-71.6 219.2 0 219.2 71.6 438.5 71.6 219.2 0 219.2-71.6 438.5-71.6 219.2 0 219.2 71.6 438.5 71.6 219.2 0 219.2-71.6 438.5-71.6M-175.6 1103c219.2 0 219.2 71.6 438.5 71.6 219.2 0 219.2-71.6 438.5-71.6 219.2 0 219.2 71.6 438.5 71.6 219.2 0 219.2-71.6 438.5-71.6 219.2 0 219.2 71.6 438.5 71.6 219.2 0 219.2-71.6 438.5-71.6m-2618.2-15.2c219.2 0 219.2 71.6 438.5 71.6 219.2 0 219.2-71.6 438.5-71.6 219.2 0 219.2 71.6 438.5 71.6 219.2 0 219.2-71.6 438.5-71.6 219.2 0 219.2 71.6 438.5 71.6s219.2-71.6 438.5-71.6m-2618-15.3c219.2 0 219.2 71.6 438.5 71.6 219.2 0 219.2-71.6 438.5-71.6 219.2 0 219.2 71.6 438.5 71.6 219.2 0 219.2-71.6 438.5-71.6s219.2 71.6 438.5 71.6 219.2-71.6 438.5-71.6m-2618-15.2c219.2 0 219.2 71.6 438.5 71.6 219.2 0 219.2-71.6 438.5-71.6 219.2 0 219.2 71.6 438.5 71.6 219.2 0 219.2-71.6 438.5-71.6 219.2 0 219.2 71.6 438.5 71.6s219.2-71.6 438.5-71.6m-2618-15.3c219.2 0 219.2 71.6 438.5 71.6 219.2 0 219.2-71.6 438.5-71.6 219.2 0 219.2 71.6 438.5 71.6 219.2 0 219.2-71.6 438.5-71.6 219.2 0 219.2 71.6 438.5 71.6s219.2-71.6 438.5-71.6M-111 1026.8c219.2 0 219.2 71.6 438.5 71.6 219.2 0 219.2-71.6 438.5-71.6 219.2 0 219.2 71.6 438.5 71.6 219.2 0 219.2-71.6 438.5-71.6 219.2 0 219.2 71.6 438.5 71.6 219.2 0 219.2-71.6 438.5-71.6m-2618-15.2c219.2 0 219.2 71.6 438.5 71.6 219.2 0 219.2-71.6 438.5-71.6 219.2 0 219.2 71.6 438.5 71.6 219.2 0 219.2-71.6 438.5-71.6s219.2 71.6 438.5 71.6c219.2 0 219.2-71.6 438.5-71.6M-85 996.3c219.2 0 219.2 71.6 438.5 71.6 219.2 0 219.2-71.6 438.5-71.6 219.2 0 219.2 71.6 438.5 71.6 219.2 0 219.2-71.6 438.5-71.6 219.2 0 219.2 71.6 438.5 71.6 219.2 0 219.2-71.6 438.5-71.6M-72 981c219.2 0 219.2 71.6 438.5 71.6 219.2 0 219.2-71.6 438.5-71.6 219.2 0 219.2 71.6 438.5 71.6 219.2 0 219.2-71.6 438.5-71.6 219.2 0 219.2 71.6 438.5 71.6S2339.7 981 2559 981M-59.1 965.7c219.2 0 219.2 71.6 438.5 71.6 219.2 0 219.2-71.6 438.5-71.6 219.2 0 219.2 71.6 438.5 71.6 219.2 0 219.2-71.6 438.5-71.6 219.2 0 219.2 71.6 438.5 71.6 219.2 0 219.2-71.6 438.5-71.6M-46.2 950.5c219.2 0 219.2 71.6 438.5 71.6 219.2 0 219.2-71.6 438.5-71.6 219.2 0 219.2 71.6 438.5 71.6 219.2 0 219.2-71.6 438.5-71.6s219.2 71.6 438.5 71.6 219.2-71.6 438.5-71.6m-2618-15.2c219.2 0 219.2 71.6 438.5 71.6 219.2 0 219.2-71.6 438.5-71.6 219.2 0 219.2 71.6 438.5 71.6 219.2 0 219.2-71.6 438.5-71.6 219.2 0 219.2 71.6 438.5 71.6s219.2-71.6 438.5-71.6M-20.3 920c219.2 0 219.2 71.6 438.5 71.6 219.2 0 219.2-71.6 438.5-71.6 219.2 0 219.2 71.6 438.5 71.6 219.2 0 219.2-71.6 438.5-71.6s219.2 71.6 438.5 71.6 219.2-71.6 438.5-71.6m-2618-15.2c219.2 0 219.2 71.6 438.5 71.6 219.2 0 219.2-71.6 438.5-71.6 219.2 0 219.2 71.6 438.5 71.6 219.2 0 219.2-71.6 438.5-71.6 219.2 0 219.2 71.6 438.5 71.6 219.2 0 219.2-71.6 438.5-71.6M5.7 889.5c219.2 0 219.2 71.6 438.5 71.6 219.2 0 219.2-71.6 438.5-71.6 219.2 0 219.2 71.6 438.5 71.6 219.2 0 219.2-71.6 438.5-71.6 219.2 0 219.2 71.6 438.5 71.6 219.2 0 219.2-71.6 438.5-71.6M-76 437.6c219.2 0 219.2 71.6 438.5 71.6 219.2 0 219.2-71.6 438.5-71.6 219.2 0 219.2 71.6 438.5 71.6 219.2 0 219.2-71.6 438.5-71.6 219.2 0 219.2 71.6 438.5 71.6 219.2 0 219.2-71.6 438.5-71.6M-85.4 449.2c219.2 0 219.2 71.6 438.5 71.6 219.2 0 219.2-71.6 438.5-71.6 219.2 0 219.2 71.6 438.5 71.6 219.2 0 219.2-71.6 438.5-71.6s219.2 71.6 438.5 71.6 219.2-71.6 438.5-71.6M-94.8 460.9c219.2 0 219.2 71.6 438.5 71.6 219.2 0 219.2-71.6 438.5-71.6 219.2 0 219.2 71.6 438.5 71.6 219.2 0 219.2-71.6 438.5-71.6 219.2 0 219.2 71.6 438.5 71.6 219.2 0 219.2-71.6 438.5-71.6m-2640.5 11.7c219.2 0 219.2 71.6 438.5 71.6 219.2 0 219.2-71.6 438.5-71.6 219.2 0 219.2 71.6 438.5 71.6 219.2 0 219.2-71.6 438.5-71.6 219.2 0 219.2 71.6 438.5 71.6s219.2-71.6 438.5-71.6m-2640.3 11.7c219.2 0 219.2 71.6 438.5 71.6 219.2 0 219.2-71.6 438.5-71.6 219.2 0 219.2 71.6 438.5 71.6 219.2 0 219.2-71.6 438.5-71.6s219.2 71.6 438.5 71.6c219.2 0 219.2-71.6 438.5-71.6M-123.1 496c219.2 0 219.2 71.6 438.5 71.6 219.2 0 219.2-71.6 438.5-71.6 219.2 0 219.2 71.6 438.5 71.6 219.2 0 219.2-71.6 438.5-71.6 219.2 0 219.2 71.6 438.5 71.6s219.2-71.6 438.5-71.6m-2640.5 11.6c219.2 0 219.2 71.6 438.5 71.6 219.2 0 219.2-71.6 438.5-71.6 219.2 0 219.2 71.6 438.5 71.6 219.2 0 219.2-71.6 438.5-71.6 219.2 0 219.2 71.6 438.5 71.6s219.2-71.6 438.5-71.6m-2640.3 11.7c219.2 0 219.2 71.6 438.5 71.6 219.2 0 219.2-71.6 438.5-71.6 219.2 0 219.2 71.6 438.5 71.6 219.2 0 219.2-71.6 438.5-71.6 219.2 0 219.2 71.6 438.5 71.6 219.2 0 219.2-71.6 438.5-71.6M-151.4 531c219.2 0 219.2 71.6 438.5 71.6 219.2 0 219.2-71.6 438.5-71.6 219.2 0 219.2 71.6 438.5 71.6 219.2 0 219.2-71.6 438.5-71.6 219.2 0 219.2 71.6 438.5 71.6 219.2 0 219.2-71.6 438.5-71.6m-2640.3 11.7c219.2 0 219.2 71.6 438.5 71.6 219.2 0 219.2-71.6 438.5-71.6 219.2 0 219.2 71.6 438.5 71.6 219.2 0 219.2-71.6 438.5-71.6 219.2 0 219.2 71.6 438.5 71.6 219.2 0 219.2-71.6 438.5-71.6m-2640.5 11.6c219.2 0 219.2 71.6 438.5 71.6 219.2 0 219.2-71.6 438.5-71.6 219.2 0 219.2 71.6 438.5 71.6 219.2 0 219.2-71.6 438.5-71.6 219.2 0 219.2 71.6 438.5 71.6s219.2-71.6 438.5-71.6M-179.7 566c219.2 0 219.2 71.6 438.5 71.6C478 637.6 478 566 697.3 566c219.2 0 219.2 71.6 438.5 71.6 219.2 0 219.2-71.6 438.5-71.6 219.2 0 219.2 71.6 438.5 71.6 219.2 0 219.2-71.6 438.5-71.6M-189 577.7c219.2 0 219.2 71.6 438.5 71.6 219.2 0 219.2-71.6 438.5-71.6 219.2 0 219.2 71.6 438.5 71.6 219.2 0 219.2-71.6 438.5-71.6s219.2 71.6 438.5 71.6 219.2-71.6 438.5-71.6m-2640.5 11.7C20.7 589.4 20.7 661 240 661c219.2 0 219.2-71.6 438.5-71.6 219.2 0 219.2 71.6 438.5 71.6 219.2 0 219.2-71.6 438.5-71.6 219.2 0 219.2 71.6 438.5 71.6s219.2-71.6 438.5-71.6M-207.8 601c219.2 0 219.2 71.6 438.5 71.6 219.2 0 219.2-71.6 438.5-71.6 219.2 0 219.2 71.6 438.5 71.6 219.2 0 219.2-71.6 438.5-71.6 219.2 0 219.2 71.6 438.5 71.6 219.2 0 219.2-71.6 438.5-71.6"/></g><g class="st0"><path class="st1" d="M2380.2 236c219.2 0 219.2 71.6 438.5 71.6 219.2 0 219.2-71.6 438.4-71.6s219.2 71.6 438.5 71.6c219.2 0 219.2-71.6 438.5-71.6 219.2 0 219.2 71.6 438.5 71.6 219.2 0 219.2-71.6 438.5-71.6m-2619.4 11.9c219.3 0 219.3 71.5 438.5 71.5s219.2-71.6 438.5-71.6c219.2 0 219.2 71.6 438.5 71.6 219.2 0 219.2-71.6 438.5-71.6 219.2 0 219.2 71.6 438.5 71.6s219.2-71.6 438.5-71.6m-2619.5 11.9c219.2 0 219.2 71.6 438.5 71.6 219.2 0 219.2-71.6 438.5-71.6 219.2 0 219.2 71.6 438.5 71.6 219.2 0 219.2-71.6 438.5-71.6 219.2 0 219.2 71.6 438.5 71.6s219.2-71.6 438.5-71.6m-2619.4 11.9c219.2 0 219.2 71.6 438.5 71.6 219.2 0 219.2-71.6 438.5-71.6 219.2 0 219.2 71.6 438.5 71.6 219.2 0 219.2-71.6 438.5-71.6s219.2 71.6 438.5 71.6 219.2-71.6 438.5-71.6m-2619.6 11.8c219.2 0 219.2 71.6 438.5 71.6 219.2 0 219.2-71.6 438.5-71.6 219.2 0 219.2 71.6 438.5 71.6 219.2 0 219.2-71.6 438.5-71.6 219.2 0 219.2 71.6 438.5 71.6 219.2 0 219.2-71.6 438.5-71.6m-2619.5 11.9c219.2 0 219.2 71.6 438.5 71.6 219.2 0 219.2-71.6 438.5-71.6 219.2 0 219.2 71.6 438.5 71.6 219.2 0 219.2-71.6 438.5-71.6 219.2 0 219.2 71.6 438.5 71.6s219.2-71.6 438.5-71.6m-2619.5 12c219.2 0 219.2 71.6 438.5 71.6 219.2 0 219.2-71.6 438.5-71.6 219.2 0 219.2 71.6 438.5 71.6 219.2 0 219.2-71.6 438.5-71.6s219.2 71.6 438.5 71.6 219.1-71.6 438.2-71.6m-2619.1 11.8c219.2 0 219.2 71.6 438.5 71.6 219.2 0 219.2-71.6 438.5-71.6 219.2 0 219.2 71.6 438.5 71.6 219.2 0 219.2-71.6 438.5-71.6s219.2 71.6 438.5 71.6 219.2-71.6 438.5-71.6M2472.3 331c219.2 0 219.2 71.6 438.5 71.6 219.2 0 219.2-71.6 438.5-71.6 219.2 0 219.2 71.6 438.5 71.6 219.2 0 219.2-71.6 438.5-71.6 219.2 0 219.2 71.6 438.5 71.6 219.2 0 219.2-71.6 438.5-71.6m-2619.5 11.9c219.2 0 219.2 71.6 438.5 71.6 219.2 0 219.2-71.6 438.5-71.6 219.2 0 219.2 71.6 438.5 71.6 219.2 0 219.2-71.6 438.5-71.6 219.2 0 219.2 71.6 438.5 71.6 219.2 0 219.2-71.6 438.5-71.6m-2619.5 11.8c219.2 0 219.2 71.6 438.5 71.6 219.2 0 219.2-71.6 438.5-71.6 219.2 0 219.2 71.6 438.5 71.6 219.2 0 219.2-71.6 438.5-71.6 219.2 0 219.2 71.6 438.5 71.6 219.2 0 219.2-71.6 438.5-71.6m-2619.4 11.9c219.2 0 219.2 71.6 438.5 71.6 219.2 0 219.2-71.6 438.5-71.6 219.2 0 219.2 71.6 438.5 71.6 219.2 0 219.2-71.6 438.5-71.6 219.2 0 219.2 71.6 438.5 71.6 219.2 0 219.2-71.6 438.5-71.6m-2619.6 11.8c219.2 0 219.2 71.6 438.5 71.6 219.2 0 219.2-71.6 438.5-71.6 219.2 0 219.2 71.6 438.5 71.6 219.2 0 219.2-71.6 438.5-71.6 219.2 0 219.2 71.6 438.5 71.6 219.2 0 219.2-71.6 438.5-71.6m-2619.5 11.9c219.2 0 219.2 71.6 438.5 71.6 219.2 0 219.2-71.6 438.5-71.6 219.2 0 219.2 71.6 438.5 71.6 219.2 0 219.2-71.6 438.5-71.6s219.2 71.6 438.5 71.6 219.2-71.6 438.5-71.6m-2619.5 11.9c219.2 0 219.2 71.6 438.5 71.6 219.2 0 219.2-71.6 438.5-71.6 219.2 0 219.2 71.6 438.5 71.6 219.2 0 219.2-71.6 438.5-71.6 219.2 0 219.2 71.6 438.5 71.6 219.2 0 219.2-71.6 438.5-71.6M2552.8 414c219.2 0 219.2 71.6 438.5 71.6 219.2 0 219.2-71.6 438.5-71.6 219.2 0 219.2 71.6 438.5 71.6 219.2 0 219.2-71.6 438.5-71.6 219.2 0 219.2 71.6 438.5 71.6 219.2 0 219.2-71.6 438.5-71.6m-2619.4 11.9c219.2 0 219.2 71.6 438.5 71.6 219.2 0 219.2-71.6 438.5-71.6 219.2 0 219.2 71.6 438.5 71.6 219.2 0 219.2-71.6 438.5-71.6s219.2 71.6 438.5 71.6 219.2-71.6 438.5-71.6M2413.6 612.7c219.2 0 219.2 71.6 438.5 71.6 219.2 0 219.2-71.6 438.5-71.6 219.2 0 219.2 71.6 438.5 71.6 219.2 0 219.2-71.6 438.5-71.6 219.2 0 219.2 71.6 438.5 71.6 219.2 0 219.2-71.6 438.5-71.6M2428.4 629c219.2 0 219.2 71.6 438.5 71.6 219.2 0 219.2-71.6 438.5-71.6 219.2 0 219.2 71.6 438.5 71.6 219.2 0 219.2-71.6 438.5-71.6 219.2 0 219.2 71.6 438.5 71.6s219.2-71.6 438.5-71.6M2443 645.4c219.2 0 219.2 71.6 438.5 71.6 219.2 0 219.2-71.6 438.5-71.6 219.2 0 219.2 71.6 438.5 71.6 219.2 0 219.2-71.6 438.5-71.6 219.2 0 219.2 71.6 438.5 71.6s219.2-71.6 438.5-71.6m-2616.2 16.3c219.2 0 219.2 71.6 438.5 71.6 219.2 0 219.2-71.6 438.5-71.6 219.2 0 219.2 71.6 438.5 71.6 219.2 0 219.2-71.6 438.5-71.6s219.2 71.6 438.5 71.6c219.2 0 219.2-71.6 438.5-71.6m-2616.2 16.4c219.2 0 219.2 71.6 438.4 71.6s219.2-71.6 438.5-71.6c219.2 0 219.2 71.6 438.5 71.6 219.2 0 219.2-71.6 438.5-71.6s219.1 71.6 438.4 71.6 219.2-71.6 438.5-71.6m-2616.1 16.3c219.2 0 219.2 71.6 438.5 71.6 219.2 0 219.2-71.6 438.5-71.6 219.2 0 219.2 71.6 438.5 71.6 219.2 0 219.2-71.6 438.5-71.6 219.2 0 219.2 71.6 438.5 71.6 219.2 0 219.2-71.6 438.5-71.6m-2616.2 16.4c219.2 0 219.2 71.6 438.5 71.6 219.2 0 219.2-71.6 438.5-71.6 219.2 0 219.2 71.6 438.5 71.6 219.2 0 219.2-71.6 438.5-71.6 219.2 0 219.2 71.6 438.5 71.6 219.2 0 219.2-71.6 438.5-71.6m-2616.2 16.3c219.2 0 219.2 71.6 438.5 71.6 219.2 0 219.2-71.6 438.5-71.6 219.2 0 219.2 71.6 438.5 71.6 219.2 0 219.2-71.6 438.5-71.6 219.2 0 219.2 71.6 438.5 71.6 219.2 0 219.2-71.6 438.5-71.6m-2616.4 16.4c219.2 0 219.2 71.6 438.5 71.6 219.2 0 219.2-71.6 438.5-71.6 219.2 0 219.2 71.6 438.5 71.6 219.2 0 219.2-71.6 438.5-71.6 219.2 0 219.2 71.6 438.5 71.6 219.2 0 219.2-71.6 438.5-71.6m-2616.2 16.3c219.2 0 219.2 71.6 438.5 71.6 219.2 0 219.2-71.6 438.5-71.6 219.2 0 219.2 71.6 438.5 71.6 219.2 0 219.2-71.6 438.5-71.6s219.2 71.6 438.5 71.6c219.2 0 219.2-71.6 438.5-71.6M2561 776.2c219.2 0 219.2 71.6 438.5 71.6 219.2 0 219.2-71.6 438.5-71.6 219.2 0 219.2 71.6 438.5 71.6 219.2 0 219.2-71.6 438.5-71.6s219.2 71.6 438.5 71.6 219.2-71.6 438.5-71.6m-2616.2 16.3c219.2 0 219.2 71.6 438.5 71.6 219.2 0 219.2-71.6 438.5-71.6 219.2 0 219.2 71.6 438.5 71.6 219.2 0 219.2-71.6 438.5-71.6 219.2 0 219.2 71.6 438.5 71.6 219.2 0 219.2-71.6 438.5-71.6m-2616.3 16.4c219.2 0 219.2 71.6 438.5 71.6 219.2 0 219.2-71.6 438.5-71.6 219.2 0 219.2 71.6 438.5 71.6 219.2 0 219.2-71.6 438.5-71.6s219.1 71.6 438.2 71.6 219.2-71.6 438.5-71.6m-2616 16.4c219.2 0 219.2 71.6 438.5 71.6 219.2 0 219.2-71.6 438.5-71.6 219.2 0 219.2 71.6 438.5 71.6 219.2 0 219.2-71.6 438.5-71.6s219.2 71.6 438.5 71.6 219.2-71.6 438.5-71.6M2620 841.5c219.2 0 219.2 71.6 438.5 71.6 219.2 0 219.2-71.6 438.5-71.6 219.2 0 219.2 71.6 438.5 71.6 219.2 0 219.2-71.6 438.5-71.6 219.2 0 219.2 71.6 438.5 71.6s219.2-71.6 438.5-71.6m-2616.2 16.4c219.2 0 219.2 71.6 438.5 71.6 219.2 0 219.2-71.6 438.5-71.6 219.2 0 219.2 71.6 438.5 71.6 219.2 0 219.2-71.6 438.5-71.6 219.2 0 219.2 71.6 438.5 71.6 219.2 0 219.2-71.6 438.5-71.6m-2616.3 16.4c219.2 0 219.2 71.6 438.5 71.6 219.2 0 219.2-71.6 438.5-71.6 219.2 0 219.2 71.6 438.5 71.6 219.2 0 219.2-71.6 438.5-71.6 219.2 0 219.2 71.6 438.5 71.6 219.2 0 219.2-71.6 438.5-71.6m-2838.2 244c219.2 0 219.2 71.6 438.5 71.6 219.2 0 219.2-71.6 438.5-71.6 219.2 0 219.2 71.6 438.5 71.6 219.2 0 219.2-71.6 438.5-71.6 219.2 0 219.2 71.6 438.5 71.6 219.2 0 219.2-71.6 438.5-71.6m-2626.1 10.5c219.2 0 219.2 71.6 438.5 71.6 219.2 0 219.2-71.6 438.5-71.6 219.2 0 219.2 71.6 438.5 71.6 219.2 0 219.2-71.6 438.5-71.6s219.2 71.6 438.5 71.6 219.2-71.6 438.5-71.6m-2626.1 10.4c219.2 0 219.2 71.6 438.5 71.6 219.2 0 219.2-71.6 438.5-71.6 219.2 0 219.2 71.6 438.5 71.6 219.2 0 219.2-71.6 438.5-71.6 219.2 0 219.2 71.6 438.5 71.6 219.2 0 219.2-71.6 438.5-71.6M2457 1149.6c219.2 0 219.2 71.6 438.5 71.6 219.2 0 219.2-71.6 438.5-71.6 219.2 0 219.2 71.6 438.5 71.6 219.2 0 219.2-71.6 438.5-71.6 219.2 0 219.2 71.6 438.5 71.6 219.2 0 219.2-71.6 438.5-71.6M2462 1160c219.2 0 219.2 71.6 438.5 71.6 219.2 0 219.2-71.6 438.5-71.6 219.2 0 219.2 71.6 438.5 71.6 219.2 0 219.2-71.6 438.5-71.6s219.2 71.6 438.5 71.6 219.2-71.6 438.5-71.6m-2626.1 10.4c219.2 0 219.2 71.6 438.5 71.6 219.2 0 219.2-71.6 438.5-71.6 219.2 0 219.2 71.6 438.5 71.6 219.2 0 219.2-71.6 438.5-71.6 219.2 0 219.2 71.6 438.5 71.6 219.2 0 219.2-71.6 438.5-71.6m-2626.1 10.5c219.2 0 219.2 71.6 438.5 71.6 219.2 0 219.2-71.6 438.5-71.6 219.2 0 219.2 71.6 438.5 71.6 219.2 0 219.2-71.6 438.5-71.6s219.2 71.6 438.5 71.6 219.2-71.6 438.5-71.6m-2626.1 10.4c219.2 0 219.2 71.6 438.5 71.6 219.2 0 219.2-71.6 438.5-71.6 219.2 0 219.2 71.6 438.5 71.6 219.2 0 219.2-71.6 438.5-71.6 219.2 0 219.2 71.6 438.5 71.6 219.2 0 219.2-71.6 438.5-71.6m-2626 10.4c219.2 0 219.2 71.6 438.5 71.6 219.2 0 219.2-71.6 438.5-71.6 219.2 0 219.2 71.6 438.5 71.6 219.2 0 219.2-71.6 438.5-71.6 219.2 0 219.2 71.6 438.5 71.6 219.2 0 219.2-71.6 438.5-71.6m-2626.2 10.5c219.2 0 219.2 71.6 438.5 71.6 219.2 0 219.2-71.6 438.5-71.6 219.2 0 219.2 71.6 438.5 71.6 219.2 0 219.2-71.6 438.5-71.6s219.2 71.6 438.5 71.6 219.2-71.6 438.5-71.6m-2626.1 10.5c219.2 0 219.2 71.6 438.5 71.6 219.2 0 219.2-71.6 438.5-71.6 219.2 0 219.2 71.6 438.5 71.6 219.2 0 219.2-71.6 438.5-71.6s219.2 71.6 438.5 71.6c219.2 0 219.2-71.6 438.5-71.6m-2626 10.4c219.2 0 219.2 71.6 438.5 71.6 219.2 0 219.2-71.6 438.5-71.6 219.2 0 219.2 71.6 438.5 71.6 219.2 0 219.2-71.6 438.5-71.6 219.2 0 219.2 71.6 438.5 71.6s219.2-71.6 438.5-71.6m-2626.1 10.4c219.2 0 219.2 71.6 438.5 71.6 219.2 0 219.2-71.6 438.5-71.6 219.2 0 219.2 71.6 438.5 71.6 219.2 0 219.2-71.6 438.5-71.6s219.2 71.6 438.5 71.6c219.2 0 219.2-71.6 438.5-71.6m-2626.1 10.4c219.2 0 219.2 71.6 438.5 71.6 219.2 0 219.2-71.6 438.5-71.6 219.2 0 219.2 71.6 438.5 71.6 219.2 0 219.2-71.6 438.5-71.6 219.2 0 219.2 71.6 438.5 71.6 219.2 0 219.2-71.6 438.5-71.6m-2626.1 10.4c219.2 0 219.2 71.6 438.5 71.6 219.2 0 219.2-71.6 438.5-71.6 219.2 0 219.2 71.6 438.5 71.6 219.2 0 219.2-71.6 438.5-71.6 219.2 0 219.2 71.6 438.5 71.6 219.2 0 219.2-71.6 438.5-71.6m-2626 10.5c219.2 0 219.2 71.6 438.5 71.6 219.2 0 219.2-71.6 438.5-71.6 219.2 0 219.2 71.6 438.5 71.6 219.2 0 219.2-71.6 438.5-71.6 219.2 0 219.2 71.6 438.5 71.6s219.2-71.6 438.5-71.6M2521 1285.2c219.2 0 219.2 71.6 438.5 71.6 219.2 0 219.2-71.6 438.5-71.6 219.2 0 219.2 71.6 438.5 71.6 219.2 0 219.2-71.6 438.5-71.6 219.2 0 219.2 71.6 438.5 71.6 219.2 0 219.2-71.6 438.5-71.6M2455.3 1103c219.2 0 219.2 71.6 438.5 71.6 219.2 0 219.2-71.6 438.5-71.6 219.2 0 219.2 71.6 438.5 71.6 219.2 0 219.2-71.6 438.5-71.6 219.2 0 219.2 71.6 438.5 71.6 219.2 0 219.2-71.6 438.5-71.6m-2618.2-15.2c219.2 0 219.2 71.6 438.5 71.6 219.2 0 219.2-71.6 438.5-71.6 219.2 0 219.2 71.6 438.5 71.6 219.2 0 219.2-71.6 438.5-71.6 219.2 0 219.2 71.6 438.5 71.6s219.2-71.6 438.5-71.6m-2618-15.3c219.2 0 219.2 71.6 438.5 71.6 219.2 0 219.2-71.6 438.5-71.6 219.2 0 219.2 71.6 438.5 71.6 219.2 0 219.2-71.6 438.5-71.6s219.2 71.6 438.5 71.6 219.2-71.6 438.5-71.6m-2618-15.2c219.2 0 219.2 71.6 438.5 71.6 219.2 0 219.2-71.6 438.5-71.6 219.2 0 219.2 71.6 438.5 71.6 219.2 0 219.2-71.6 438.5-71.6 219.2 0 219.2 71.6 438.5 71.6s219.2-71.6 438.5-71.6m-2618-15.3c219.2 0 219.2 71.6 438.5 71.6 219.2 0 219.2-71.6 438.5-71.6 219.2 0 219.2 71.6 438.5 71.6 219.2 0 219.2-71.6 438.5-71.6 219.2 0 219.2 71.6 438.5 71.6s219.2-71.6 438.5-71.6m-2618.2-15.2c219.2 0 219.2 71.6 438.5 71.6 219.2 0 219.2-71.6 438.5-71.6 219.2 0 219.2 71.6 438.5 71.6 219.2 0 219.2-71.6 438.5-71.6 219.2 0 219.2 71.6 438.5 71.6 219.2 0 219.2-71.6 438.5-71.6m-2618-15.2c219.2 0 219.2 71.6 438.5 71.6 219.2 0 219.2-71.6 438.5-71.6 219.2 0 219.2 71.6 438.5 71.6 219.2 0 219.2-71.6 438.5-71.6s219.2 71.6 438.5 71.6c219.2 0 219.2-71.6 438.5-71.6m-2618-15.3c219.2 0 219.2 71.6 438.5 71.6 219.2 0 219.2-71.6 438.5-71.6 219.2 0 219.2 71.6 438.5 71.6 219.2 0 219.2-71.6 438.5-71.6 219.2 0 219.2 71.6 438.5 71.6 219.2 0 219.2-71.6 438.5-71.6m-2618-15.3c219.2 0 219.2 71.6 438.5 71.6 219.2 0 219.2-71.6 438.5-71.6 219.2 0 219.2 71.6 438.5 71.6 219.2 0 219.2-71.6 438.5-71.6 219.2 0 219.2 71.6 438.5 71.6s219.2-71.6 438.5-71.6m-2618.1-15.3c219.2 0 219.2 71.6 438.5 71.6 219.2 0 219.2-71.6 438.5-71.6 219.2 0 219.2 71.6 438.5 71.6 219.2 0 219.2-71.6 438.5-71.6 219.2 0 219.2 71.6 438.5 71.6 219.2 0 219.2-71.6 438.5-71.6m-2618.1-15.2c219.2 0 219.2 71.6 438.5 71.6 219.2 0 219.2-71.6 438.5-71.6 219.2 0 219.2 71.6 438.5 71.6 219.2 0 219.2-71.6 438.5-71.6s219.2 71.6 438.5 71.6 219.2-71.6 438.5-71.6m-2618-15.2c219.2 0 219.2 71.6 438.5 71.6 219.2 0 219.2-71.6 438.5-71.6 219.2 0 219.2 71.6 438.5 71.6 219.2 0 219.2-71.6 438.5-71.6 219.2 0 219.2 71.6 438.5 71.6s219.2-71.6 438.5-71.6M2610.6 920c219.2 0 219.2 71.6 438.5 71.6 219.2 0 219.2-71.6 438.5-71.6 219.2 0 219.2 71.6 438.5 71.6 219.2 0 219.2-71.6 438.5-71.6s219.2 71.6 438.5 71.6 219.2-71.6 438.5-71.6m-2618-15.2c219.2 0 219.2 71.6 438.5 71.6 219.2 0 219.2-71.6 438.5-71.6 219.2 0 219.2 71.6 438.5 71.6 219.2 0 219.2-71.6 438.5-71.6 219.2 0 219.2 71.6 438.5 71.6 219.2 0 219.2-71.6 438.5-71.6m-2618-15.3c219.2 0 219.2 71.6 438.5 71.6 219.2 0 219.2-71.6 438.5-71.6 219.2 0 219.2 71.6 438.5 71.6 219.2 0 219.2-71.6 438.5-71.6 219.2 0 219.2 71.6 438.5 71.6 219.2 0 219.2-71.6 438.5-71.6M2554.9 437.6c219.2 0 219.2 71.6 438.5 71.6 219.2 0 219.2-71.6 438.5-71.6 219.2 0 219.2 71.6 438.5 71.6 219.2 0 219.2-71.6 438.5-71.6 219.2 0 219.2 71.6 438.5 71.6 219.2 0 219.2-71.6 438.5-71.6m-2640.4 11.6c219.2 0 219.2 71.6 438.5 71.6 219.2 0 219.2-71.6 438.5-71.6 219.2 0 219.2 71.6 438.5 71.6 219.2 0 219.2-71.6 438.5-71.6s219.2 71.6 438.5 71.6 219.2-71.6 438.5-71.6m-2640.4 11.7c219.2 0 219.2 71.6 438.5 71.6 219.2 0 219.2-71.6 438.5-71.6 219.2 0 219.2 71.6 438.5 71.6 219.2 0 219.2-71.6 438.5-71.6 219.2 0 219.2 71.6 438.5 71.6 219.2 0 219.2-71.6 438.5-71.6m-2640.5 11.7c219.2 0 219.2 71.6 438.5 71.6 219.2 0 219.2-71.6 438.5-71.6 219.2 0 219.2 71.6 438.5 71.6 219.2 0 219.2-71.6 438.5-71.6 219.2 0 219.2 71.6 438.5 71.6s219.2-71.6 438.5-71.6m-2640.3 11.7c219.2 0 219.2 71.6 438.5 71.6 219.2 0 219.2-71.6 438.5-71.6 219.2 0 219.2 71.6 438.5 71.6 219.2 0 219.2-71.6 438.5-71.6s219.2 71.6 438.5 71.6c219.2 0 219.2-71.6 438.5-71.6M2507.8 496c219.2 0 219.2 71.6 438.5 71.6 219.2 0 219.2-71.6 438.5-71.6 219.2 0 219.2 71.6 438.5 71.6 219.2 0 219.2-71.6 438.5-71.6 219.2 0 219.2 71.6 438.5 71.6s219.2-71.6 438.5-71.6m-2640.5 11.6c219.2 0 219.2 71.6 438.5 71.6 219.2 0 219.2-71.6 438.5-71.6 219.2 0 219.2 71.6 438.5 71.6 219.2 0 219.2-71.6 438.5-71.6 219.2 0 219.2 71.6 438.5 71.6s219.2-71.6 438.5-71.6M2489 519.3c219.2 0 219.2 71.6 438.5 71.6 219.2 0 219.2-71.6 438.5-71.6 219.2 0 219.2 71.6 438.5 71.6 219.2 0 219.2-71.6 438.5-71.6 219.2 0 219.2 71.6 438.5 71.6 219.2 0 219.2-71.6 438.5-71.6M2479.5 531c219.2 0 219.2 71.6 438.5 71.6 219.2 0 219.2-71.6 438.5-71.6 219.2 0 219.2 71.6 438.5 71.6 219.2 0 219.2-71.6 438.5-71.6 219.2 0 219.2 71.6 438.5 71.6 219.2 0 219.2-71.6 438.5-71.6m-2640.3 11.7c219.2 0 219.2 71.6 438.5 71.6 219.2 0 219.2-71.6 438.5-71.6 219.2 0 219.2 71.6 438.5 71.6 219.2 0 219.2-71.6 438.5-71.6 219.2 0 219.2 71.6 438.5 71.6 219.2 0 219.2-71.6 438.5-71.6m-2640.5 11.6c219.2 0 219.2 71.6 438.5 71.6 219.2 0 219.2-71.6 438.5-71.6 219.2 0 219.2 71.6 438.5 71.6 219.2 0 219.2-71.6 438.5-71.6 219.2 0 219.2 71.6 438.5 71.6s219.2-71.6 438.5-71.6M2451.2 566c219.2 0 219.2 71.6 438.5 71.6 219.2 0 219.2-71.6 438.5-71.6 219.2 0 219.2 71.6 438.5 71.6 219.2 0 219.2-71.6 438.5-71.6 219.2 0 219.2 71.6 438.5 71.6 219.2 0 219.2-71.6 438.5-71.6m-2640.3 11.7c219.2 0 219.2 71.6 438.5 71.6 219.2 0 219.2-71.6 438.5-71.6 219.2 0 219.2 71.6 438.5 71.6 219.2 0 219.2-71.6 438.5-71.6s219.2 71.6 438.5 71.6 219.2-71.6 438.5-71.6m-2640.5 11.7c219.2 0 219.2 71.6 438.5 71.6 219.2 0 219.2-71.6 438.5-71.6 219.2 0 219.2 71.6 438.5 71.6 219.2 0 219.2-71.6 438.5-71.6 219.2 0 219.2 71.6 438.5 71.6s219.2-71.6 438.5-71.6M2423.1 601c219.2 0 219.2 71.6 438.5 71.6 219.2 0 219.2-71.6 438.5-71.6 219.2 0 219.2 71.6 438.5 71.6 219.2 0 219.2-71.6 438.5-71.6 219.2 0 219.2 71.6 438.5 71.6 219.2 0 219.2-71.6 438.5-71.6"/></g><g class="st0"><path class="st1" d="M34.9 2359.3c219.2 0 219.2 71.6 438.5 71.6 219.2 0 219.2-71.6 438.4-71.6s219.2 71.6 438.5 71.6c219.2 0 219.2-71.6 438.5-71.6 219.2 0 219.2 71.6 438.5 71.6 219.2 0 219.2-71.6 438.5-71.6M46.4 2371.2c219.3 0 219.3 71.5 438.5 71.5s219.2-71.6 438.5-71.6c219.2 0 219.2 71.6 438.5 71.6 219.2 0 219.2-71.6 438.5-71.6 219.2 0 219.2 71.6 438.5 71.6s219.2-71.6 438.5-71.6M57.9 2383c219.2 0 219.2 71.6 438.5 71.6 219.2 0 219.2-71.6 438.5-71.6 219.2 0 219.2 71.6 438.5 71.6 219.2 0 219.2-71.6 438.5-71.6 219.2 0 219.2 71.6 438.5 71.6s219.2-71.6 438.5-71.6M69.5 2394.9c219.2 0 219.2 71.6 438.5 71.6 219.2 0 219.2-71.6 438.5-71.6 219.2 0 219.2 71.6 438.5 71.6 219.2 0 219.2-71.6 438.5-71.6s219.2 71.6 438.5 71.6 219.2-71.6 438.5-71.6M80.9 2406.7c219.2 0 219.2 71.6 438.5 71.6 219.2 0 219.2-71.6 438.5-71.6 219.2 0 219.2 71.6 438.5 71.6 219.2 0 219.2-71.6 438.5-71.6 219.2 0 219.2 71.6 438.5 71.6 219.2 0 219.2-71.6 438.5-71.6M92.4 2418.6c219.2 0 219.2 71.6 438.5 71.6 219.2 0 219.2-71.6 438.5-71.6 219.2 0 219.2 71.6 438.5 71.6 219.2 0 219.2-71.6 438.5-71.6 219.2 0 219.2 71.6 438.5 71.6s219.2-71.6 438.5-71.6m-2619.5 12c219.2 0 219.2 71.6 438.5 71.6 219.2 0 219.2-71.6 438.5-71.6 219.2 0 219.2 71.6 438.5 71.6 219.2 0 219.2-71.6 438.5-71.6s219.2 71.6 438.5 71.6 219.1-71.6 438.2-71.6m-2619.1 11.8c219.2 0 219.2 71.6 438.5 71.6 219.2 0 219.2-71.6 438.5-71.6 219.2 0 219.2 71.6 438.5 71.6 219.2 0 219.2-71.6 438.5-71.6s219.2 71.6 438.5 71.6 219.2-71.6 438.5-71.6M127 2454.3c219.2 0 219.2 71.6 438.5 71.6 219.2 0 219.2-71.6 438.5-71.6 219.2 0 219.2 71.6 438.5 71.6 219.2 0 219.2-71.6 438.5-71.6 219.2 0 219.2 71.6 438.5 71.6 219.2 0 219.2-71.6 438.5-71.6m-2619.5 11.9c219.2 0 219.2 71.6 438.5 71.6 219.2 0 219.2-71.6 438.5-71.6 219.2 0 219.2 71.6 438.5 71.6 219.2 0 219.2-71.6 438.5-71.6 219.2 0 219.2 71.6 438.5 71.6 219.2 0 219.2-71.6 438.5-71.6M150 2478c219.2 0 219.2 71.6 438.5 71.6 219.2 0 219.2-71.6 438.5-71.6 219.2 0 219.2 71.6 438.5 71.6 219.2 0 219.2-71.6 438.5-71.6 219.2 0 219.2 71.6 438.5 71.6 219.2 0 219.2-71.6 438.5-71.6m-2619.4 11.9c219.2 0 219.2 71.6 438.5 71.6 219.2 0 219.2-71.6 438.5-71.6 219.2 0 219.2 71.6 438.5 71.6 219.2 0 219.2-71.6 438.5-71.6 219.2 0 219.2 71.6 438.5 71.6 219.2 0 219.2-71.6 438.5-71.6M173 2501.7c219.2 0 219.2 71.6 438.5 71.6 219.2 0 219.2-71.6 438.5-71.6 219.2 0 219.2 71.6 438.5 71.6 219.2 0 219.2-71.6 438.5-71.6 219.2 0 219.2 71.6 438.5 71.6 219.2 0 219.2-71.6 438.5-71.6m-2619.5 11.9c219.2 0 219.2 71.6 438.5 71.6 219.2 0 219.2-71.6 438.5-71.6 219.2 0 219.2 71.6 438.5 71.6 219.2 0 219.2-71.6 438.5-71.6s219.2 71.6 438.5 71.6 219.2-71.6 438.5-71.6M196 2525.5c219.2 0 219.2 71.6 438.5 71.6 219.2 0 219.2-71.6 438.5-71.6 219.2 0 219.2 71.6 438.5 71.6 219.2 0 219.2-71.6 438.5-71.6 219.2 0 219.2 71.6 438.5 71.6 219.2 0 219.2-71.6 438.5-71.6m-2619.5 11.8c219.2 0 219.2 71.6 438.5 71.6 219.2 0 219.2-71.6 438.5-71.6 219.2 0 219.2 71.6 438.5 71.6 219.2 0 219.2-71.6 438.5-71.6 219.2 0 219.2 71.6 438.5 71.6 219.2 0 219.2-71.6 438.5-71.6m-2619.4 11.9c219.2 0 219.2 71.6 438.5 71.6 219.2 0 219.2-71.6 438.5-71.6 219.2 0 219.2 71.6 438.5 71.6 219.2 0 219.2-71.6 438.5-71.6s219.2 71.6 438.5 71.6 219.2-71.6 438.5-71.6M68.3 2736c219.2 0 219.2 71.6 438.5 71.6 219.2 0 219.2-71.6 438.5-71.6 219.2 0 219.2 71.6 438.5 71.6 219.2 0 219.2-71.6 438.5-71.6 219.2 0 219.2 71.6 438.5 71.6 219.2 0 219.2-71.6 438.5-71.6M83.1 2752.3c219.2 0 219.2 71.6 438.5 71.6 219.2 0 219.2-71.6 438.5-71.6 219.2 0 219.2 71.6 438.5 71.6 219.2 0 219.2-71.6 438.5-71.6 219.2 0 219.2 71.6 438.5 71.6s219.2-71.6 438.5-71.6M97.7 2768.7c219.2 0 219.2 71.6 438.5 71.6 219.2 0 219.2-71.6 438.5-71.6 219.2 0 219.2 71.6 438.5 71.6 219.2 0 219.2-71.6 438.5-71.6 219.2 0 219.2 71.6 438.5 71.6s219.2-71.6 438.5-71.6M112.5 2785c219.2 0 219.2 71.6 438.5 71.6 219.2 0 219.2-71.6 438.5-71.6 219.2 0 219.2 71.6 438.5 71.6 219.2 0 219.2-71.6 438.5-71.6s219.2 71.6 438.5 71.6c219.2 0 219.2-71.6 438.5-71.6m-2616.2 16.4c219.2 0 219.2 71.6 438.4 71.6s219.2-71.6 438.5-71.6c219.2 0 219.2 71.6 438.5 71.6 219.2 0 219.2-71.6 438.5-71.6s219.1 71.6 438.4 71.6 219.2-71.6 438.5-71.6M142 2817.7c219.2 0 219.2 71.6 438.5 71.6 219.2 0 219.2-71.6 438.5-71.6 219.2 0 219.2 71.6 438.5 71.6 219.2 0 219.2-71.6 438.5-71.6 219.2 0 219.2 71.6 438.5 71.6 219.2 0 219.2-71.6 438.5-71.6m-2616.2 16.4c219.2 0 219.2 71.6 438.5 71.6 219.2 0 219.2-71.6 438.5-71.6 219.2 0 219.2 71.6 438.5 71.6 219.2 0 219.2-71.6 438.5-71.6 219.2 0 219.2 71.6 438.5 71.6 219.2 0 219.2-71.6 438.5-71.6m-2616.2 16.3c219.2 0 219.2 71.6 438.5 71.6 219.2 0 219.2-71.6 438.5-71.6 219.2 0 219.2 71.6 438.5 71.6 219.2 0 219.2-71.6 438.5-71.6 219.2 0 219.2 71.6 438.5 71.6 219.2 0 219.2-71.6 438.5-71.6m-2616.4 16.4c219.2 0 219.2 71.6 438.5 71.6 219.2 0 219.2-71.6 438.5-71.6 219.2 0 219.2 71.6 438.5 71.6 219.2 0 219.2-71.6 438.5-71.6 219.2 0 219.2 71.6 438.5 71.6 219.2 0 219.2-71.6 438.5-71.6M201 2883.1c219.2 0 219.2 71.6 438.5 71.6 219.2 0 219.2-71.6 438.5-71.6 219.2 0 219.2 71.6 438.5 71.6 219.2 0 219.2-71.6 438.5-71.6s219.2 71.6 438.5 71.6c219.2 0 219.2-71.6 438.5-71.6m-2616.3 16.4c219.2 0 219.2 71.6 438.5 71.6 219.2 0 219.2-71.6 438.5-71.6 219.2 0 219.2 71.6 438.5 71.6 219.2 0 219.2-71.6 438.5-71.6s219.2 71.6 438.5 71.6 219.2-71.6 438.5-71.6m-2616.2 16.3c219.2 0 219.2 71.6 438.5 71.6 219.2 0 219.2-71.6 438.5-71.6 219.2 0 219.2 71.6 438.5 71.6 219.2 0 219.2-71.6 438.5-71.6 219.2 0 219.2 71.6 438.5 71.6 219.2 0 219.2-71.6 438.5-71.6m-2616.3 16.4c219.2 0 219.2 71.6 438.5 71.6 219.2 0 219.2-71.6 438.5-71.6 219.2 0 219.2 71.6 438.5 71.6 219.2 0 219.2-71.6 438.5-71.6s219.1 71.6 438.2 71.6 219.2-71.6 438.5-71.6m-2616 16.4c219.2 0 219.2 71.6 438.5 71.6 219.2 0 219.2-71.6 438.5-71.6 219.2 0 219.2 71.6 438.5 71.6 219.2 0 219.2-71.6 438.5-71.6s219.2 71.6 438.5 71.6 219.2-71.6 438.5-71.6m-2616.2 16.2c219.2 0 219.2 71.6 438.5 71.6 219.2 0 219.2-71.6 438.5-71.6 219.2 0 219.2 71.6 438.5 71.6 219.2 0 219.2-71.6 438.5-71.6 219.2 0 219.2 71.6 438.5 71.6s219.2-71.6 438.5-71.6m-2616.2 16.4c219.2 0 219.2 71.6 438.5 71.6 219.2 0 219.2-71.6 438.5-71.6 219.2 0 219.2 71.6 438.5 71.6 219.2 0 219.2-71.6 438.5-71.6 219.2 0 219.2 71.6 438.5 71.6 219.2 0 219.2-71.6 438.5-71.6m-2616.3 16.4c219.2 0 219.2 71.6 438.5 71.6 219.2 0 219.2-71.6 438.5-71.6 219.2 0 219.2 71.6 438.5 71.6 219.2 0 219.2-71.6 438.5-71.6 219.2 0 219.2 71.6 438.5 71.6 219.2 0 219.2-71.6 438.5-71.6M97 3241.6c219.2 0 219.2 71.6 438.5 71.6 219.2 0 219.2-71.6 438.5-71.6 219.2 0 219.2 71.6 438.5 71.6 219.2 0 219.2-71.6 438.5-71.6 219.2 0 219.2 71.6 438.5 71.6 219.2 0 219.2-71.6 438.5-71.6m-2626.1 10.5c219.2 0 219.2 71.6 438.5 71.6 219.2 0 219.2-71.6 438.5-71.6 219.2 0 219.2 71.6 438.5 71.6 219.2 0 219.2-71.6 438.5-71.6s219.2 71.6 438.5 71.6 219.2-71.6 438.5-71.6m-2626.1 10.4c219.2 0 219.2 71.6 438.5 71.6 219.2 0 219.2-71.6 438.5-71.6 219.2 0 219.2 71.6 438.5 71.6 219.2 0 219.2-71.6 438.5-71.6 219.2 0 219.2 71.6 438.5 71.6 219.2 0 219.2-71.6 438.5-71.6m-2626.1 10.4c219.2 0 219.2 71.6 438.5 71.6 219.2 0 219.2-71.6 438.5-71.6 219.2 0 219.2 71.6 438.5 71.6 219.2 0 219.2-71.6 438.5-71.6 219.2 0 219.2 71.6 438.5 71.6 219.2 0 219.2-71.6 438.5-71.6m-2626 10.4c219.2 0 219.2 71.6 438.5 71.6 219.2 0 219.2-71.6 438.5-71.6 219.2 0 219.2 71.6 438.5 71.6 219.2 0 219.2-71.6 438.5-71.6s219.2 71.6 438.5 71.6 219.2-71.6 438.5-71.6m-2626.1 10.4c219.2 0 219.2 71.6 438.5 71.6 219.2 0 219.2-71.6 438.5-71.6 219.2 0 219.2 71.6 438.5 71.6 219.2 0 219.2-71.6 438.5-71.6 219.2 0 219.2 71.6 438.5 71.6 219.2 0 219.2-71.6 438.5-71.6m-2626.1 10.5c219.2 0 219.2 71.6 438.5 71.6 219.2 0 219.2-71.6 438.5-71.6 219.2 0 219.2 71.6 438.5 71.6 219.2 0 219.2-71.6 438.5-71.6s219.2 71.6 438.5 71.6 219.2-71.6 438.5-71.6m-2626.1 10.4c219.2 0 219.2 71.6 438.5 71.6 219.2 0 219.2-71.6 438.5-71.6 219.2 0 219.2 71.6 438.5 71.6 219.2 0 219.2-71.6 438.5-71.6 219.2 0 219.2 71.6 438.5 71.6 219.2 0 219.2-71.6 438.5-71.6m-2626 10.4c219.2 0 219.2 71.6 438.5 71.6 219.2 0 219.2-71.6 438.5-71.6 219.2 0 219.2 71.6 438.5 71.6 219.2 0 219.2-71.6 438.5-71.6 219.2 0 219.2 71.6 438.5 71.6 219.2 0 219.2-71.6 438.5-71.6m-2626.2 10.5c219.2 0 219.2 71.6 438.5 71.6 219.2 0 219.2-71.6 438.5-71.6 219.2 0 219.2 71.6 438.5 71.6 219.2 0 219.2-71.6 438.5-71.6s219.2 71.6 438.5 71.6 219.2-71.6 438.5-71.6M146.1 3346c219.2 0 219.2 71.6 438.5 71.6 219.2 0 219.2-71.6 438.5-71.6 219.2 0 219.2 71.6 438.5 71.6 219.2 0 219.2-71.6 438.5-71.6s219.2 71.6 438.5 71.6c219.2 0 219.2-71.6 438.5-71.6m-2626 10.4c219.2 0 219.2 71.6 438.5 71.6 219.2 0 219.2-71.6 438.5-71.6 219.2 0 219.2 71.6 438.5 71.6 219.2 0 219.2-71.6 438.5-71.6 219.2 0 219.2 71.6 438.5 71.6s219.2-71.6 438.5-71.6M156 3366.8c219.2 0 219.2 71.6 438.5 71.6 219.2 0 219.2-71.6 438.5-71.6 219.2 0 219.2 71.6 438.5 71.6 219.2 0 219.2-71.6 438.5-71.6s219.2 71.6 438.5 71.6c219.2 0 219.2-71.6 438.5-71.6m-2626.1 10.4c219.2 0 219.2 71.6 438.5 71.6 219.2 0 219.2-71.6 438.5-71.6 219.2 0 219.2 71.6 438.5 71.6 219.2 0 219.2-71.6 438.5-71.6 219.2 0 219.2 71.6 438.5 71.6 219.2 0 219.2-71.6 438.5-71.6m-2626.1 10.4c219.2 0 219.2 71.6 438.5 71.6 219.2 0 219.2-71.6 438.5-71.6 219.2 0 219.2 71.6 438.5 71.6 219.2 0 219.2-71.6 438.5-71.6 219.2 0 219.2 71.6 438.5 71.6 219.2 0 219.2-71.6 438.5-71.6m-2626 10.5c219.2 0 219.2 71.6 438.5 71.6 219.2 0 219.2-71.6 438.5-71.6 219.2 0 219.2 71.6 438.5 71.6 219.2 0 219.2-71.6 438.5-71.6 219.2 0 219.2 71.6 438.5 71.6s219.2-71.6 438.5-71.6m-2626.1 10.4c219.2 0 219.2 71.6 438.5 71.6 219.2 0 219.2-71.6 438.5-71.6 219.2 0 219.2 71.6 438.5 71.6 219.2 0 219.2-71.6 438.5-71.6 219.2 0 219.2 71.6 438.5 71.6 219.2 0 219.2-71.6 438.5-71.6M110 3226.3c219.2 0 219.2 71.6 438.5 71.6 219.2 0 219.2-71.6 438.5-71.6 219.2 0 219.2 71.6 438.5 71.6 219.2 0 219.2-71.6 438.5-71.6 219.2 0 219.2 71.6 438.5 71.6 219.2 0 219.2-71.6 438.5-71.6m-2618.2-15.2c219.2 0 219.2 71.6 438.5 71.6 219.2 0 219.2-71.6 438.5-71.6 219.2 0 219.2 71.6 438.5 71.6 219.2 0 219.2-71.6 438.5-71.6 219.2 0 219.2 71.6 438.5 71.6s219.2-71.6 438.5-71.6m-2618-15.3c219.2 0 219.2 71.6 438.5 71.6 219.2 0 219.2-71.6 438.5-71.6 219.2 0 219.2 71.6 438.5 71.6 219.2 0 219.2-71.6 438.5-71.6s219.2 71.6 438.5 71.6 219.2-71.6 438.5-71.6m-2618-15.2c219.2 0 219.2 71.6 438.5 71.6 219.2 0 219.2-71.6 438.5-71.6 219.2 0 219.2 71.6 438.5 71.6 219.2 0 219.2-71.6 438.5-71.6 219.2 0 219.2 71.6 438.5 71.6s219.2-71.6 438.5-71.6m-2618-15.3c219.2 0 219.2 71.6 438.5 71.6 219.2 0 219.2-71.6 438.5-71.6 219.2 0 219.2 71.6 438.5 71.6 219.2 0 219.2-71.6 438.5-71.6 219.2 0 219.2 71.6 438.5 71.6s219.2-71.6 438.5-71.6m-2618.2-15.2c219.2 0 219.2 71.6 438.5 71.6 219.2 0 219.2-71.6 438.5-71.6 219.2 0 219.2 71.6 438.5 71.6 219.2 0 219.2-71.6 438.5-71.6 219.2 0 219.2 71.6 438.5 71.6 219.2 0 219.2-71.6 438.5-71.6m-2618-15.2c219.2 0 219.2 71.6 438.5 71.6 219.2 0 219.2-71.6 438.5-71.6 219.2 0 219.2 71.6 438.5 71.6 219.2 0 219.2-71.6 438.5-71.6s219.2 71.6 438.5 71.6c219.2 0 219.2-71.6 438.5-71.6m-2618-15.3c219.2 0 219.2 71.6 438.5 71.6 219.2 0 219.2-71.6 438.5-71.6 219.2 0 219.2 71.6 438.5 71.6 219.2 0 219.2-71.6 438.5-71.6 219.2 0 219.2 71.6 438.5 71.6 219.2 0 219.2-71.6 438.5-71.6m-2618-15.3c219.2 0 219.2 71.6 438.5 71.6 219.2 0 219.2-71.6 438.5-71.6 219.2 0 219.2 71.6 438.5 71.6 219.2 0 219.2-71.6 438.5-71.6 219.2 0 219.2 71.6 438.5 71.6s219.2-71.6 438.5-71.6M226.5 3089c219.2 0 219.2 71.6 438.5 71.6 219.2 0 219.2-71.6 438.5-71.6 219.2 0 219.2 71.6 438.5 71.6 219.2 0 219.2-71.6 438.5-71.6 219.2 0 219.2 71.6 438.5 71.6 219.2 0 219.2-71.6 438.5-71.6m-2618.1-15.2c219.2 0 219.2 71.6 438.5 71.6 219.2 0 219.2-71.6 438.5-71.6 219.2 0 219.2 71.6 438.5 71.6 219.2 0 219.2-71.6 438.5-71.6s219.2 71.6 438.5 71.6 219.2-71.6 438.5-71.6m-2618-15.2c219.2 0 219.2 71.6 438.5 71.6 219.2 0 219.2-71.6 438.5-71.6 219.2 0 219.2 71.6 438.5 71.6 219.2 0 219.2-71.6 438.5-71.6 219.2 0 219.2 71.6 438.5 71.6s219.2-71.6 438.5-71.6m-2618.1-15.3c219.2 0 219.2 71.6 438.5 71.6 219.2 0 219.2-71.6 438.5-71.6 219.2 0 219.2 71.6 438.5 71.6 219.2 0 219.2-71.6 438.5-71.6s219.2 71.6 438.5 71.6 219.2-71.6 438.5-71.6m-2618-15.2c219.2 0 219.2 71.6 438.5 71.6 219.2 0 219.2-71.6 438.5-71.6 219.2 0 219.2 71.6 438.5 71.6 219.2 0 219.2-71.6 438.5-71.6 219.2 0 219.2 71.6 438.5 71.6 219.2 0 219.2-71.6 438.5-71.6m-2618-15.3c219.2 0 219.2 71.6 438.5 71.6 219.2 0 219.2-71.6 438.5-71.6 219.2 0 219.2 71.6 438.5 71.6 219.2 0 219.2-71.6 438.5-71.6 219.2 0 219.2 71.6 438.5 71.6 219.2 0 219.2-71.6 438.5-71.6M209.6 2560.9c219.2 0 219.2 71.6 438.5 71.6 219.2 0 219.2-71.6 438.5-71.6 219.2 0 219.2 71.6 438.5 71.6 219.2 0 219.2-71.6 438.5-71.6 219.2 0 219.2 71.6 438.5 71.6 219.2 0 219.2-71.6 438.5-71.6m-2640.4 11.6c219.2 0 219.2 71.6 438.5 71.6 219.2 0 219.2-71.6 438.5-71.6 219.2 0 219.2 71.6 438.5 71.6 219.2 0 219.2-71.6 438.5-71.6s219.2 71.6 438.5 71.6 219.2-71.6 438.5-71.6m-2640.4 11.7c219.2 0 219.2 71.6 438.5 71.6 219.2 0 219.2-71.6 438.5-71.6 219.2 0 219.2 71.6 438.5 71.6 219.2 0 219.2-71.6 438.5-71.6 219.2 0 219.2 71.6 438.5 71.6 219.2 0 219.2-71.6 438.5-71.6m-2640.5 11.7c219.2 0 219.2 71.6 438.5 71.6 219.2 0 219.2-71.6 438.5-71.6 219.2 0 219.2 71.6 438.5 71.6 219.2 0 219.2-71.6 438.5-71.6 219.2 0 219.2 71.6 438.5 71.6s219.2-71.6 438.5-71.6M172 2607.6c219.2 0 219.2 71.6 438.5 71.6 219.2 0 219.2-71.6 438.5-71.6 219.2 0 219.2 71.6 438.5 71.6 219.2 0 219.2-71.6 438.5-71.6s219.2 71.6 438.5 71.6c219.2 0 219.2-71.6 438.5-71.6m-2640.5 11.7c219.2 0 219.2 71.6 438.5 71.6 219.2 0 219.2-71.6 438.5-71.6 219.2 0 219.2 71.6 438.5 71.6 219.2 0 219.2-71.6 438.5-71.6 219.2 0 219.2 71.6 438.5 71.6s219.2-71.6 438.5-71.6M153 2630.9c219.2 0 219.2 71.6 438.5 71.6 219.2 0 219.2-71.6 438.5-71.6 219.2 0 219.2 71.6 438.5 71.6 219.2 0 219.2-71.6 438.5-71.6 219.2 0 219.2 71.6 438.5 71.6s219.2-71.6 438.5-71.6m-2640.3 11.7c219.2 0 219.2 71.6 438.5 71.6 219.2 0 219.2-71.6 438.5-71.6 219.2 0 219.2 71.6 438.5 71.6 219.2 0 219.2-71.6 438.5-71.6 219.2 0 219.2 71.6 438.5 71.6 219.2 0 219.2-71.6 438.5-71.6m-2640.5 11.7c219.2 0 219.2 71.6 438.5 71.6 219.2 0 219.2-71.6 438.5-71.6 219.2 0 219.2 71.6 438.5 71.6 219.2 0 219.2-71.6 438.5-71.6 219.2 0 219.2 71.6 438.5 71.6 219.2 0 219.2-71.6 438.5-71.6M124.9 2666c219.2 0 219.2 71.6 438.5 71.6 219.2 0 219.2-71.6 438.5-71.6 219.2 0 219.2 71.6 438.5 71.6 219.2 0 219.2-71.6 438.5-71.6 219.2 0 219.2 71.6 438.5 71.6 219.2 0 219.2-71.6 438.5-71.6m-2640.5 11.6c219.2 0 219.2 71.6 438.5 71.6 219.2 0 219.2-71.6 438.5-71.6 219.2 0 219.2 71.6 438.5 71.6 219.2 0 219.2-71.6 438.5-71.6 219.2 0 219.2 71.6 438.5 71.6s219.2-71.6 438.5-71.6m-2640.5 11.7c219.2 0 219.2 71.6 438.5 71.6 219.2 0 219.2-71.6 438.5-71.6 219.2 0 219.2 71.6 438.5 71.6 219.2 0 219.2-71.6 438.5-71.6 219.2 0 219.2 71.6 438.5 71.6 219.2 0 219.2-71.6 438.5-71.6M96.6 2701c219.2 0 219.2 71.6 438.5 71.6 219.2 0 219.2-71.6 438.5-71.6 219.2 0 219.2 71.6 438.5 71.6 219.2 0 219.2-71.6 438.5-71.6s219.2 71.6 438.5 71.6 219.2-71.6 438.5-71.6M87.1 2712.7c219.2 0 219.2 71.6 438.5 71.6 219.2 0 219.2-71.6 438.5-71.6 219.2 0 219.2 71.6 438.5 71.6 219.2 0 219.2-71.6 438.5-71.6 219.2 0 219.2 71.6 438.5 71.6s219.2-71.6 438.5-71.6M77.8 2724.3c219.2 0 219.2 71.6 438.5 71.6 219.2 0 219.2-71.6 438.5-71.6 219.2 0 219.2 71.6 438.5 71.6 219.2 0 219.2-71.6 438.5-71.6 219.2 0 219.2 71.6 438.5 71.6 219.2 0 219.2-71.6 438.5-71.6"/></g><g class="st0"><path class="st1" d="M2665.8 2359.3c219.2 0 219.2 71.6 438.5 71.6 219.2 0 219.2-71.6 438.4-71.6s219.2 71.6 438.5 71.6c219.2 0 219.2-71.6 438.5-71.6 219.2 0 219.2 71.6 438.5 71.6 219.2 0 219.2-71.6 438.5-71.6m-2619.4 11.9c219.3 0 219.3 71.5 438.5 71.5s219.2-71.6 438.5-71.6c219.2 0 219.2 71.6 438.5 71.6 219.2 0 219.2-71.6 438.5-71.6 219.2 0 219.2 71.6 438.5 71.6s219.2-71.6 438.5-71.6M2688.8 2383c219.2 0 219.2 71.6 438.5 71.6 219.2 0 219.2-71.6 438.5-71.6 219.2 0 219.2 71.6 438.5 71.6 219.2 0 219.2-71.6 438.5-71.6 219.2 0 219.2 71.6 438.5 71.6s219.2-71.6 438.5-71.6m-2619.4 11.9c219.2 0 219.2 71.6 438.5 71.6 219.2 0 219.2-71.6 438.5-71.6 219.2 0 219.2 71.6 438.5 71.6 219.2 0 219.2-71.6 438.5-71.6s219.2 71.6 438.5 71.6 219.2-71.6 438.5-71.6m-2619.6 11.8c219.2 0 219.2 71.6 438.5 71.6 219.2 0 219.2-71.6 438.5-71.6 219.2 0 219.2 71.6 438.5 71.6 219.2 0 219.2-71.6 438.5-71.6 219.2 0 219.2 71.6 438.5 71.6 219.2 0 219.2-71.6 438.5-71.6m-2619.5 11.9c219.2 0 219.2 71.6 438.5 71.6 219.2 0 219.2-71.6 438.5-71.6 219.2 0 219.2 71.6 438.5 71.6 219.2 0 219.2-71.6 438.5-71.6 219.2 0 219.2 71.6 438.5 71.6s219.2-71.6 438.5-71.6m-2619.5 12c219.2 0 219.2 71.6 438.5 71.6 219.2 0 219.2-71.6 438.5-71.6 219.2 0 219.2 71.6 438.5 71.6 219.2 0 219.2-71.6 438.5-71.6s219.2 71.6 438.5 71.6 219.1-71.6 438.2-71.6m-2619.1 11.8c219.2 0 219.2 71.6 438.5 71.6 219.2 0 219.2-71.6 438.5-71.6 219.2 0 219.2 71.6 438.5 71.6 219.2 0 219.2-71.6 438.5-71.6s219.2 71.6 438.5 71.6 219.2-71.6 438.5-71.6m-2619.5 11.9c219.2 0 219.2 71.6 438.5 71.6 219.2 0 219.2-71.6 438.5-71.6 219.2 0 219.2 71.6 438.5 71.6 219.2 0 219.2-71.6 438.5-71.6 219.2 0 219.2 71.6 438.5 71.6 219.2 0 219.2-71.6 438.5-71.6m-2619.5 11.9c219.2 0 219.2 71.6 438.5 71.6 219.2 0 219.2-71.6 438.5-71.6 219.2 0 219.2 71.6 438.5 71.6 219.2 0 219.2-71.6 438.5-71.6 219.2 0 219.2 71.6 438.5 71.6 219.2 0 219.2-71.6 438.5-71.6M2780.9 2478c219.2 0 219.2 71.6 438.5 71.6 219.2 0 219.2-71.6 438.5-71.6 219.2 0 219.2 71.6 438.5 71.6 219.2 0 219.2-71.6 438.5-71.6 219.2 0 219.2 71.6 438.5 71.6 219.2 0 219.2-71.6 438.5-71.6m-2619.4 11.9c219.2 0 219.2 71.6 438.5 71.6 219.2 0 219.2-71.6 438.5-71.6 219.2 0 219.2 71.6 438.5 71.6 219.2 0 219.2-71.6 438.5-71.6 219.2 0 219.2 71.6 438.5 71.6 219.2 0 219.2-71.6 438.5-71.6m-2619.6 11.8c219.2 0 219.2 71.6 438.5 71.6 219.2 0 219.2-71.6 438.5-71.6 219.2 0 219.2 71.6 438.5 71.6 219.2 0 219.2-71.6 438.5-71.6 219.2 0 219.2 71.6 438.5 71.6 219.2 0 219.2-71.6 438.5-71.6m-2619.5 11.9c219.2 0 219.2 71.6 438.5 71.6 219.2 0 219.2-71.6 438.5-71.6 219.2 0 219.2 71.6 438.5 71.6 219.2 0 219.2-71.6 438.5-71.6s219.2 71.6 438.5 71.6 219.2-71.6 438.5-71.6m-2619.5 11.9c219.2 0 219.2 71.6 438.5 71.6 219.2 0 219.2-71.6 438.5-71.6 219.2 0 219.2 71.6 438.5 71.6 219.2 0 219.2-71.6 438.5-71.6 219.2 0 219.2 71.6 438.5 71.6 219.2 0 219.2-71.6 438.5-71.6m-2619.5 11.8c219.2 0 219.2 71.6 438.5 71.6 219.2 0 219.2-71.6 438.5-71.6 219.2 0 219.2 71.6 438.5 71.6 219.2 0 219.2-71.6 438.5-71.6 219.2 0 219.2 71.6 438.5 71.6 219.2 0 219.2-71.6 438.5-71.6M2850 2549.2c219.2 0 219.2 71.6 438.5 71.6 219.2 0 219.2-71.6 438.5-71.6 219.2 0 219.2 71.6 438.5 71.6 219.2 0 219.2-71.6 438.5-71.6s219.2 71.6 438.5 71.6 219.2-71.6 438.5-71.6M2699.2 2736c219.2 0 219.2 71.6 438.5 71.6 219.2 0 219.2-71.6 438.5-71.6 219.2 0 219.2 71.6 438.5 71.6 219.2 0 219.2-71.6 438.5-71.6 219.2 0 219.2 71.6 438.5 71.6 219.2 0 219.2-71.6 438.5-71.6M2714 2752.3c219.2 0 219.2 71.6 438.5 71.6 219.2 0 219.2-71.6 438.5-71.6 219.2 0 219.2 71.6 438.5 71.6 219.2 0 219.2-71.6 438.5-71.6 219.2 0 219.2 71.6 438.5 71.6s219.2-71.6 438.5-71.6m-2616.4 16.4c219.2 0 219.2 71.6 438.5 71.6 219.2 0 219.2-71.6 438.5-71.6 219.2 0 219.2 71.6 438.5 71.6 219.2 0 219.2-71.6 438.5-71.6 219.2 0 219.2 71.6 438.5 71.6s219.2-71.6 438.5-71.6M2743.4 2785c219.2 0 219.2 71.6 438.5 71.6 219.2 0 219.2-71.6 438.5-71.6 219.2 0 219.2 71.6 438.5 71.6 219.2 0 219.2-71.6 438.5-71.6s219.2 71.6 438.5 71.6c219.2 0 219.2-71.6 438.5-71.6m-2616.2 16.4c219.2 0 219.2 71.6 438.4 71.6s219.2-71.6 438.5-71.6c219.2 0 219.2 71.6 438.5 71.6 219.2 0 219.2-71.6 438.5-71.6s219.1 71.6 438.4 71.6 219.2-71.6 438.5-71.6m-2616.1 16.3c219.2 0 219.2 71.6 438.5 71.6 219.2 0 219.2-71.6 438.5-71.6 219.2 0 219.2 71.6 438.5 71.6 219.2 0 219.2-71.6 438.5-71.6 219.2 0 219.2 71.6 438.5 71.6 219.2 0 219.2-71.6 438.5-71.6m-2616.2 16.4c219.2 0 219.2 71.6 438.5 71.6 219.2 0 219.2-71.6 438.5-71.6 219.2 0 219.2 71.6 438.5 71.6 219.2 0 219.2-71.6 438.5-71.6 219.2 0 219.2 71.6 438.5 71.6 219.2 0 219.2-71.6 438.5-71.6m-2616.2 16.3c219.2 0 219.2 71.6 438.5 71.6 219.2 0 219.2-71.6 438.5-71.6 219.2 0 219.2 71.6 438.5 71.6 219.2 0 219.2-71.6 438.5-71.6 219.2 0 219.2 71.6 438.5 71.6 219.2 0 219.2-71.6 438.5-71.6m-2616.4 16.4c219.2 0 219.2 71.6 438.5 71.6 219.2 0 219.2-71.6 438.5-71.6 219.2 0 219.2 71.6 438.5 71.6 219.2 0 219.2-71.6 438.5-71.6 219.2 0 219.2 71.6 438.5 71.6 219.2 0 219.2-71.6 438.5-71.6m-2616.2 16.3c219.2 0 219.2 71.6 438.5 71.6 219.2 0 219.2-71.6 438.5-71.6 219.2 0 219.2 71.6 438.5 71.6 219.2 0 219.2-71.6 438.5-71.6s219.2 71.6 438.5 71.6c219.2 0 219.2-71.6 438.5-71.6m-2616.3 16.4c219.2 0 219.2 71.6 438.5 71.6 219.2 0 219.2-71.6 438.5-71.6 219.2 0 219.2 71.6 438.5 71.6 219.2 0 219.2-71.6 438.5-71.6s219.2 71.6 438.5 71.6 219.2-71.6 438.5-71.6m-2616.2 16.3c219.2 0 219.2 71.6 438.5 71.6 219.2 0 219.2-71.6 438.5-71.6 219.2 0 219.2 71.6 438.5 71.6 219.2 0 219.2-71.6 438.5-71.6 219.2 0 219.2 71.6 438.5 71.6 219.2 0 219.2-71.6 438.5-71.6m-2616.3 16.4c219.2 0 219.2 71.6 438.5 71.6 219.2 0 219.2-71.6 438.5-71.6 219.2 0 219.2 71.6 438.5 71.6 219.2 0 219.2-71.6 438.5-71.6s219.1 71.6 438.2 71.6 219.2-71.6 438.5-71.6m-2616 16.4c219.2 0 219.2 71.6 438.5 71.6 219.2 0 219.2-71.6 438.5-71.6 219.2 0 219.2 71.6 438.5 71.6 219.2 0 219.2-71.6 438.5-71.6s219.2 71.6 438.5 71.6 219.2-71.6 438.5-71.6m-2616.2 16.2c219.2 0 219.2 71.6 438.5 71.6 219.2 0 219.2-71.6 438.5-71.6 219.2 0 219.2 71.6 438.5 71.6 219.2 0 219.2-71.6 438.5-71.6 219.2 0 219.2 71.6 438.5 71.6s219.2-71.6 438.5-71.6m-2616.2 16.4c219.2 0 219.2 71.6 438.5 71.6 219.2 0 219.2-71.6 438.5-71.6 219.2 0 219.2 71.6 438.5 71.6 219.2 0 219.2-71.6 438.5-71.6 219.2 0 219.2 71.6 438.5 71.6 219.2 0 219.2-71.6 438.5-71.6m-2616.3 16.4c219.2 0 219.2 71.6 438.5 71.6 219.2 0 219.2-71.6 438.5-71.6 219.2 0 219.2 71.6 438.5 71.6 219.2 0 219.2-71.6 438.5-71.6 219.2 0 219.2 71.6 438.5 71.6 219.2 0 219.2-71.6 438.5-71.6m-2838.2 244c219.2 0 219.2 71.6 438.5 71.6 219.2 0 219.2-71.6 438.5-71.6 219.2 0 219.2 71.6 438.5 71.6 219.2 0 219.2-71.6 438.5-71.6 219.2 0 219.2 71.6 438.5 71.6 219.2 0 219.2-71.6 438.5-71.6m-2626.1 10.5c219.2 0 219.2 71.6 438.5 71.6 219.2 0 219.2-71.6 438.5-71.6 219.2 0 219.2 71.6 438.5 71.6 219.2 0 219.2-71.6 438.5-71.6s219.2 71.6 438.5 71.6 219.2-71.6 438.5-71.6m-2626.1 10.4c219.2 0 219.2 71.6 438.5 71.6 219.2 0 219.2-71.6 438.5-71.6 219.2 0 219.2 71.6 438.5 71.6 219.2 0 219.2-71.6 438.5-71.6 219.2 0 219.2 71.6 438.5 71.6 219.2 0 219.2-71.6 438.5-71.6m-2626.1 10.4c219.2 0 219.2 71.6 438.5 71.6 219.2 0 219.2-71.6 438.5-71.6 219.2 0 219.2 71.6 438.5 71.6 219.2 0 219.2-71.6 438.5-71.6 219.2 0 219.2 71.6 438.5 71.6 219.2 0 219.2-71.6 438.5-71.6m-2626 10.4c219.2 0 219.2 71.6 438.5 71.6 219.2 0 219.2-71.6 438.5-71.6 219.2 0 219.2 71.6 438.5 71.6 219.2 0 219.2-71.6 438.5-71.6s219.2 71.6 438.5 71.6 219.2-71.6 438.5-71.6m-2626.1 10.4c219.2 0 219.2 71.6 438.5 71.6 219.2 0 219.2-71.6 438.5-71.6 219.2 0 219.2 71.6 438.5 71.6 219.2 0 219.2-71.6 438.5-71.6 219.2 0 219.2 71.6 438.5 71.6 219.2 0 219.2-71.6 438.5-71.6m-2626.1 10.5c219.2 0 219.2 71.6 438.5 71.6 219.2 0 219.2-71.6 438.5-71.6 219.2 0 219.2 71.6 438.5 71.6 219.2 0 219.2-71.6 438.5-71.6s219.2 71.6 438.5 71.6 219.2-71.6 438.5-71.6m-2626.1 10.4c219.2 0 219.2 71.6 438.5 71.6 219.2 0 219.2-71.6 438.5-71.6 219.2 0 219.2 71.6 438.5 71.6 219.2 0 219.2-71.6 438.5-71.6 219.2 0 219.2 71.6 438.5 71.6 219.2 0 219.2-71.6 438.5-71.6m-2626 10.4c219.2 0 219.2 71.6 438.5 71.6 219.2 0 219.2-71.6 438.5-71.6 219.2 0 219.2 71.6 438.5 71.6 219.2 0 219.2-71.6 438.5-71.6 219.2 0 219.2 71.6 438.5 71.6 219.2 0 219.2-71.6 438.5-71.6m-2626.2 10.5c219.2 0 219.2 71.6 438.5 71.6 219.2 0 219.2-71.6 438.5-71.6 219.2 0 219.2 71.6 438.5 71.6 219.2 0 219.2-71.6 438.5-71.6s219.2 71.6 438.5 71.6 219.2-71.6 438.5-71.6M2777 3346c219.2 0 219.2 71.6 438.5 71.6 219.2 0 219.2-71.6 438.5-71.6 219.2 0 219.2 71.6 438.5 71.6 219.2 0 219.2-71.6 438.5-71.6s219.2 71.6 438.5 71.6c219.2 0 219.2-71.6 438.5-71.6m-2626 10.4c219.2 0 219.2 71.6 438.5 71.6 219.2 0 219.2-71.6 438.5-71.6 219.2 0 219.2 71.6 438.5 71.6 219.2 0 219.2-71.6 438.5-71.6 219.2 0 219.2 71.6 438.5 71.6s219.2-71.6 438.5-71.6m-2626.1 10.4c219.2 0 219.2 71.6 438.5 71.6 219.2 0 219.2-71.6 438.5-71.6 219.2 0 219.2 71.6 438.5 71.6 219.2 0 219.2-71.6 438.5-71.6s219.2 71.6 438.5 71.6c219.2 0 219.2-71.6 438.5-71.6m-2626.1 10.4c219.2 0 219.2 71.6 438.5 71.6 219.2 0 219.2-71.6 438.5-71.6 219.2 0 219.2 71.6 438.5 71.6 219.2 0 219.2-71.6 438.5-71.6 219.2 0 219.2 71.6 438.5 71.6 219.2 0 219.2-71.6 438.5-71.6m-2626.1 10.4c219.2 0 219.2 71.6 438.5 71.6 219.2 0 219.2-71.6 438.5-71.6 219.2 0 219.2 71.6 438.5 71.6 219.2 0 219.2-71.6 438.5-71.6 219.2 0 219.2 71.6 438.5 71.6 219.2 0 219.2-71.6 438.5-71.6m-2626 10.5c219.2 0 219.2 71.6 438.5 71.6 219.2 0 219.2-71.6 438.5-71.6 219.2 0 219.2 71.6 438.5 71.6 219.2 0 219.2-71.6 438.5-71.6 219.2 0 219.2 71.6 438.5 71.6s219.2-71.6 438.5-71.6m-2626.1 10.4c219.2 0 219.2 71.6 438.5 71.6 219.2 0 219.2-71.6 438.5-71.6 219.2 0 219.2 71.6 438.5 71.6 219.2 0 219.2-71.6 438.5-71.6 219.2 0 219.2 71.6 438.5 71.6 219.2 0 219.2-71.6 438.5-71.6m-2696.7-182.2c219.2 0 219.2 71.6 438.5 71.6 219.2 0 219.2-71.6 438.5-71.6 219.2 0 219.2 71.6 438.5 71.6 219.2 0 219.2-71.6 438.5-71.6 219.2 0 219.2 71.6 438.5 71.6 219.2 0 219.2-71.6 438.5-71.6m-2618.2-15.2c219.2 0 219.2 71.6 438.5 71.6 219.2 0 219.2-71.6 438.5-71.6 219.2 0 219.2 71.6 438.5 71.6 219.2 0 219.2-71.6 438.5-71.6 219.2 0 219.2 71.6 438.5 71.6s219.2-71.6 438.5-71.6m-2618-15.3c219.2 0 219.2 71.6 438.5 71.6 219.2 0 219.2-71.6 438.5-71.6 219.2 0 219.2 71.6 438.5 71.6 219.2 0 219.2-71.6 438.5-71.6s219.2 71.6 438.5 71.6 219.2-71.6 438.5-71.6m-2618-15.2c219.2 0 219.2 71.6 438.5 71.6 219.2 0 219.2-71.6 438.5-71.6 219.2 0 219.2 71.6 438.5 71.6 219.2 0 219.2-71.6 438.5-71.6 219.2 0 219.2 71.6 438.5 71.6s219.2-71.6 438.5-71.6m-2618-15.3c219.2 0 219.2 71.6 438.5 71.6 219.2 0 219.2-71.6 438.5-71.6 219.2 0 219.2 71.6 438.5 71.6 219.2 0 219.2-71.6 438.5-71.6 219.2 0 219.2 71.6 438.5 71.6s219.2-71.6 438.5-71.6m-2618.2-15.2c219.2 0 219.2 71.6 438.5 71.6 219.2 0 219.2-71.6 438.5-71.6 219.2 0 219.2 71.6 438.5 71.6 219.2 0 219.2-71.6 438.5-71.6 219.2 0 219.2 71.6 438.5 71.6 219.2 0 219.2-71.6 438.5-71.6m-2618-15.2c219.2 0 219.2 71.6 438.5 71.6 219.2 0 219.2-71.6 438.5-71.6 219.2 0 219.2 71.6 438.5 71.6 219.2 0 219.2-71.6 438.5-71.6s219.2 71.6 438.5 71.6c219.2 0 219.2-71.6 438.5-71.6m-2618-15.3c219.2 0 219.2 71.6 438.5 71.6 219.2 0 219.2-71.6 438.5-71.6 219.2 0 219.2 71.6 438.5 71.6 219.2 0 219.2-71.6 438.5-71.6 219.2 0 219.2 71.6 438.5 71.6 219.2 0 219.2-71.6 438.5-71.6m-2618-15.3c219.2 0 219.2 71.6 438.5 71.6 219.2 0 219.2-71.6 438.5-71.6 219.2 0 219.2 71.6 438.5 71.6 219.2 0 219.2-71.6 438.5-71.6 219.2 0 219.2 71.6 438.5 71.6s219.2-71.6 438.5-71.6M2857.4 3089c219.2 0 219.2 71.6 438.5 71.6 219.2 0 219.2-71.6 438.5-71.6 219.2 0 219.2 71.6 438.5 71.6 219.2 0 219.2-71.6 438.5-71.6 219.2 0 219.2 71.6 438.5 71.6 219.2 0 219.2-71.6 438.5-71.6m-2618.1-15.2c219.2 0 219.2 71.6 438.5 71.6 219.2 0 219.2-71.6 438.5-71.6 219.2 0 219.2 71.6 438.5 71.6 219.2 0 219.2-71.6 438.5-71.6s219.2 71.6 438.5 71.6 219.2-71.6 438.5-71.6m-2618-15.2c219.2 0 219.2 71.6 438.5 71.6 219.2 0 219.2-71.6 438.5-71.6 219.2 0 219.2 71.6 438.5 71.6 219.2 0 219.2-71.6 438.5-71.6 219.2 0 219.2 71.6 438.5 71.6s219.2-71.6 438.5-71.6m-2618.1-15.3c219.2 0 219.2 71.6 438.5 71.6 219.2 0 219.2-71.6 438.5-71.6 219.2 0 219.2 71.6 438.5 71.6 219.2 0 219.2-71.6 438.5-71.6s219.2 71.6 438.5 71.6 219.2-71.6 438.5-71.6m-2618-15.2c219.2 0 219.2 71.6 438.5 71.6 219.2 0 219.2-71.6 438.5-71.6 219.2 0 219.2 71.6 438.5 71.6 219.2 0 219.2-71.6 438.5-71.6 219.2 0 219.2 71.6 438.5 71.6 219.2 0 219.2-71.6 438.5-71.6m-2618-15.3c219.2 0 219.2 71.6 438.5 71.6 219.2 0 219.2-71.6 438.5-71.6 219.2 0 219.2 71.6 438.5 71.6 219.2 0 219.2-71.6 438.5-71.6 219.2 0 219.2 71.6 438.5 71.6 219.2 0 219.2-71.6 438.5-71.6m-2712.7-451.9c219.2 0 219.2 71.6 438.5 71.6 219.2 0 219.2-71.6 438.5-71.6 219.2 0 219.2 71.6 438.5 71.6 219.2 0 219.2-71.6 438.5-71.6 219.2 0 219.2 71.6 438.5 71.6 219.2 0 219.2-71.6 438.5-71.6m-2640.4 11.6c219.2 0 219.2 71.6 438.5 71.6 219.2 0 219.2-71.6 438.5-71.6 219.2 0 219.2 71.6 438.5 71.6 219.2 0 219.2-71.6 438.5-71.6s219.2 71.6 438.5 71.6 219.2-71.6 438.5-71.6m-2640.4 11.7c219.2 0 219.2 71.6 438.5 71.6 219.2 0 219.2-71.6 438.5-71.6 219.2 0 219.2 71.6 438.5 71.6 219.2 0 219.2-71.6 438.5-71.6 219.2 0 219.2 71.6 438.5 71.6 219.2 0 219.2-71.6 438.5-71.6m-2640.5 11.7c219.2 0 219.2 71.6 438.5 71.6 219.2 0 219.2-71.6 438.5-71.6 219.2 0 219.2 71.6 438.5 71.6 219.2 0 219.2-71.6 438.5-71.6 219.2 0 219.2 71.6 438.5 71.6s219.2-71.6 438.5-71.6m-2640.3 11.7c219.2 0 219.2 71.6 438.5 71.6 219.2 0 219.2-71.6 438.5-71.6 219.2 0 219.2 71.6 438.5 71.6 219.2 0 219.2-71.6 438.5-71.6s219.2 71.6 438.5 71.6c219.2 0 219.2-71.6 438.5-71.6m-2640.5 11.7c219.2 0 219.2 71.6 438.5 71.6 219.2 0 219.2-71.6 438.5-71.6 219.2 0 219.2 71.6 438.5 71.6 219.2 0 219.2-71.6 438.5-71.6 219.2 0 219.2 71.6 438.5 71.6s219.2-71.6 438.5-71.6m-2640.5 11.6c219.2 0 219.2 71.6 438.5 71.6 219.2 0 219.2-71.6 438.5-71.6 219.2 0 219.2 71.6 438.5 71.6 219.2 0 219.2-71.6 438.5-71.6 219.2 0 219.2 71.6 438.5 71.6s219.2-71.6 438.5-71.6m-2640.3 11.7c219.2 0 219.2 71.6 438.5 71.6 219.2 0 219.2-71.6 438.5-71.6 219.2 0 219.2 71.6 438.5 71.6 219.2 0 219.2-71.6 438.5-71.6 219.2 0 219.2 71.6 438.5 71.6 219.2 0 219.2-71.6 438.5-71.6m-2640.5 11.7c219.2 0 219.2 71.6 438.5 71.6 219.2 0 219.2-71.6 438.5-71.6 219.2 0 219.2 71.6 438.5 71.6 219.2 0 219.2-71.6 438.5-71.6 219.2 0 219.2 71.6 438.5 71.6 219.2 0 219.2-71.6 438.5-71.6M2755.8 2666c219.2 0 219.2 71.6 438.5 71.6 219.2 0 219.2-71.6 438.5-71.6 219.2 0 219.2 71.6 438.5 71.6 219.2 0 219.2-71.6 438.5-71.6 219.2 0 219.2 71.6 438.5 71.6 219.2 0 219.2-71.6 438.5-71.6m-2640.5 11.6c219.2 0 219.2 71.6 438.5 71.6 219.2 0 219.2-71.6 438.5-71.6 219.2 0 219.2 71.6 438.5 71.6 219.2 0 219.2-71.6 438.5-71.6 219.2 0 219.2 71.6 438.5 71.6s219.2-71.6 438.5-71.6m-2640.5 11.7c219.2 0 219.2 71.6 438.5 71.6 219.2 0 219.2-71.6 438.5-71.6 219.2 0 219.2 71.6 438.5 71.6 219.2 0 219.2-71.6 438.5-71.6 219.2 0 219.2 71.6 438.5 71.6 219.2 0 219.2-71.6 438.5-71.6M2727.5 2701c219.2 0 219.2 71.6 438.5 71.6 219.2 0 219.2-71.6 438.5-71.6 219.2 0 219.2 71.6 438.5 71.6 219.2 0 219.2-71.6 438.5-71.6s219.2 71.6 438.5 71.6 219.2-71.6 438.5-71.6M2718 2712.7c219.2 0 219.2 71.6 438.5 71.6 219.2 0 219.2-71.6 438.5-71.6 219.2 0 219.2 71.6 438.5 71.6 219.2 0 219.2-71.6 438.5-71.6 219.2 0 219.2 71.6 438.5 71.6s219.2-71.6 438.5-71.6m-2640.3 11.6c219.2 0 219.2 71.6 438.5 71.6 219.2 0 219.2-71.6 438.5-71.6 219.2 0 219.2 71.6 438.5 71.6 219.2 0 219.2-71.6 438.5-71.6 219.2 0 219.2 71.6 438.5 71.6 219.2 0 219.2-71.6 438.5-71.6"/></g><g class="st0"><path class="st1" d="M-110.7 1296.2c219.2 0 219.2 71.6 438.5 71.6 219.2 0 219.2-71.6 438.4-71.6s219.2 71.6 438.5 71.6c219.2 0 219.2-71.6 438.5-71.6 219.2 0 219.2 71.6 438.5 71.6 219.2 0 219.2-71.6 438.5-71.6m-2619.4 11.9c219.3 0 219.3 71.5 438.5 71.5s219.2-71.6 438.5-71.6c219.2 0 219.2 71.6 438.5 71.6 219.2 0 219.2-71.6 438.5-71.6 219.2 0 219.2 71.6 438.5 71.6s219.2-71.6 438.5-71.6m-2619.5 11.9c219.2 0 219.2 71.6 438.5 71.6 219.2 0 219.2-71.6 438.5-71.6 219.2 0 219.2 71.6 438.5 71.6 219.2 0 219.2-71.6 438.5-71.6 219.2 0 219.2 71.6 438.5 71.6s219.2-71.6 438.5-71.6m-2619.4 11.9c219.2 0 219.2 71.6 438.5 71.6 219.2 0 219.2-71.6 438.5-71.6 219.2 0 219.2 71.6 438.5 71.6 219.2 0 219.2-71.6 438.5-71.6s219.2 71.6 438.5 71.6 219.2-71.6 438.5-71.6m-2619.6 11.8c219.2 0 219.2 71.6 438.5 71.6 219.2 0 219.2-71.6 438.5-71.6 219.2 0 219.2 71.6 438.5 71.6 219.2 0 219.2-71.6 438.5-71.6 219.2 0 219.2 71.6 438.5 71.6 219.2 0 219.2-71.6 438.5-71.6m-2619.5 11.9c219.2 0 219.2 71.6 438.5 71.6 219.2 0 219.2-71.6 438.5-71.6 219.2 0 219.2 71.6 438.5 71.6 219.2 0 219.2-71.6 438.5-71.6 219.2 0 219.2 71.6 438.5 71.6s219.2-71.6 438.5-71.6m-2619.5 12c219.2 0 219.2 71.6 438.5 71.6 219.2 0 219.2-71.6 438.5-71.6 219.2 0 219.2 71.6 438.5 71.6 219.2 0 219.2-71.6 438.5-71.6s219.2 71.6 438.5 71.6 219.1-71.6 438.2-71.6m-2619.1 11.8c219.2 0 219.2 71.6 438.5 71.6 219.2 0 219.2-71.6 438.5-71.6 219.2 0 219.2 71.6 438.5 71.6 219.2 0 219.2-71.6 438.5-71.6s219.2 71.6 438.5 71.6 219.2-71.6 438.5-71.6m-2619.5 11.9c219.2 0 219.2 71.6 438.5 71.6 219.2 0 219.2-71.6 438.5-71.6 219.2 0 219.2 71.6 438.5 71.6 219.2 0 219.2-71.6 438.5-71.6 219.2 0 219.2 71.6 438.5 71.6 219.2 0 219.2-71.6 438.5-71.6M-7.1 1403.1c219.2 0 219.2 71.6 438.5 71.6 219.2 0 219.2-71.6 438.5-71.6 219.2 0 219.2 71.6 438.5 71.6 219.2 0 219.2-71.6 438.5-71.6 219.2 0 219.2 71.6 438.5 71.6 219.2 0 219.2-71.6 438.5-71.6M4.4 1414.9c219.2 0 219.2 71.6 438.5 71.6 219.2 0 219.2-71.6 438.5-71.6 219.2 0 219.2 71.6 438.5 71.6 219.2 0 219.2-71.6 438.5-71.6 219.2 0 219.2 71.6 438.5 71.6 219.2 0 219.2-71.6 438.5-71.6M16 1426.8c219.2 0 219.2 71.6 438.5 71.6 219.2 0 219.2-71.6 438.5-71.6 219.2 0 219.2 71.6 438.5 71.6 219.2 0 219.2-71.6 438.5-71.6 219.2 0 219.2 71.6 438.5 71.6 219.2 0 219.2-71.6 438.5-71.6M27.4 1438.6c219.2 0 219.2 71.6 438.5 71.6 219.2 0 219.2-71.6 438.5-71.6 219.2 0 219.2 71.6 438.5 71.6 219.2 0 219.2-71.6 438.5-71.6 219.2 0 219.2 71.6 438.5 71.6 219.2 0 219.2-71.6 438.5-71.6M38.9 1450.5c219.2 0 219.2 71.6 438.5 71.6 219.2 0 219.2-71.6 438.5-71.6 219.2 0 219.2 71.6 438.5 71.6 219.2 0 219.2-71.6 438.5-71.6s219.2 71.6 438.5 71.6 219.2-71.6 438.5-71.6M50.4 1462.4c219.2 0 219.2 71.6 438.5 71.6 219.2 0 219.2-71.6 438.5-71.6 219.2 0 219.2 71.6 438.5 71.6 219.2 0 219.2-71.6 438.5-71.6 219.2 0 219.2 71.6 438.5 71.6 219.2 0 219.2-71.6 438.5-71.6M61.9 1474.2c219.2 0 219.2 71.6 438.5 71.6 219.2 0 219.2-71.6 438.5-71.6 219.2 0 219.2 71.6 438.5 71.6 219.2 0 219.2-71.6 438.5-71.6 219.2 0 219.2 71.6 438.5 71.6 219.2 0 219.2-71.6 438.5-71.6M73.5 1486.1c219.2 0 219.2 71.6 438.5 71.6 219.2 0 219.2-71.6 438.5-71.6 219.2 0 219.2 71.6 438.5 71.6 219.2 0 219.2-71.6 438.5-71.6s219.2 71.6 438.5 71.6 219.2-71.6 438.5-71.6M-77.3 1672.9c219.2 0 219.2 71.6 438.5 71.6 219.2 0 219.2-71.6 438.5-71.6 219.2 0 219.2 71.6 438.5 71.6 219.2 0 219.2-71.6 438.5-71.6 219.2 0 219.2 71.6 438.5 71.6 219.2 0 219.2-71.6 438.5-71.6m-2616.2 16.3c219.2 0 219.2 71.6 438.5 71.6 219.2 0 219.2-71.6 438.5-71.6 219.2 0 219.2 71.6 438.5 71.6 219.2 0 219.2-71.6 438.5-71.6 219.2 0 219.2 71.6 438.5 71.6s219.2-71.6 438.5-71.6m-2616.4 16.4c219.2 0 219.2 71.6 438.5 71.6 219.2 0 219.2-71.6 438.5-71.6 219.2 0 219.2 71.6 438.5 71.6 219.2 0 219.2-71.6 438.5-71.6 219.2 0 219.2 71.6 438.5 71.6s219.2-71.6 438.5-71.6m-2616.2 16.3c219.2 0 219.2 71.6 438.5 71.6 219.2 0 219.2-71.6 438.5-71.6 219.2 0 219.2 71.6 438.5 71.6 219.2 0 219.2-71.6 438.5-71.6s219.2 71.6 438.5 71.6c219.2 0 219.2-71.6 438.5-71.6m-2616.2 16.4c219.2 0 219.2 71.6 438.4 71.6s219.2-71.6 438.5-71.6c219.2 0 219.2 71.6 438.5 71.6 219.2 0 219.2-71.6 438.5-71.6s219.1 71.6 438.4 71.6 219.2-71.6 438.5-71.6M-3.6 1754.6c219.2 0 219.2 71.6 438.5 71.6 219.2 0 219.2-71.6 438.5-71.6 219.2 0 219.2 71.6 438.5 71.6 219.2 0 219.2-71.6 438.5-71.6 219.2 0 219.2 71.6 438.5 71.6 219.2 0 219.2-71.6 438.5-71.6M11.2 1771c219.2 0 219.2 71.6 438.5 71.6 219.2 0 219.2-71.6 438.5-71.6 219.2 0 219.2 71.6 438.5 71.6 219.2 0 219.2-71.6 438.5-71.6 219.2 0 219.2 71.6 438.5 71.6 219.2 0 219.2-71.6 438.5-71.6M26 1787.3c219.2 0 219.2 71.6 438.5 71.6 219.2 0 219.2-71.6 438.5-71.6 219.2 0 219.2 71.6 438.5 71.6 219.2 0 219.2-71.6 438.5-71.6 219.2 0 219.2 71.6 438.5 71.6 219.2 0 219.2-71.6 438.5-71.6M40.6 1803.7c219.2 0 219.2 71.6 438.5 71.6 219.2 0 219.2-71.6 438.5-71.6 219.2 0 219.2 71.6 438.5 71.6 219.2 0 219.2-71.6 438.5-71.6 219.2 0 219.2 71.6 438.5 71.6 219.2 0 219.2-71.6 438.5-71.6M55.4 1820c219.2 0 219.2 71.6 438.5 71.6 219.2 0 219.2-71.6 438.5-71.6 219.2 0 219.2 71.6 438.5 71.6 219.2 0 219.2-71.6 438.5-71.6s219.2 71.6 438.5 71.6c219.2 0 219.2-71.6 438.5-71.6M70.1 1836.4c219.2 0 219.2 71.6 438.5 71.6 219.2 0 219.2-71.6 438.5-71.6 219.2 0 219.2 71.6 438.5 71.6 219.2 0 219.2-71.6 438.5-71.6s219.2 71.6 438.5 71.6 219.2-71.6 438.5-71.6M84.9 1852.7c219.2 0 219.2 71.6 438.5 71.6 219.2 0 219.2-71.6 438.5-71.6 219.2 0 219.2 71.6 438.5 71.6 219.2 0 219.2-71.6 438.5-71.6 219.2 0 219.2 71.6 438.5 71.6 219.2 0 219.2-71.6 438.5-71.6M99.6 1869.1c219.2 0 219.2 71.6 438.5 71.6 219.2 0 219.2-71.6 438.5-71.6 219.2 0 219.2 71.6 438.5 71.6 219.2 0 219.2-71.6 438.5-71.6s219.1 71.6 438.2 71.6 219.2-71.6 438.5-71.6m-2616 16.4c219.2 0 219.2 71.6 438.5 71.6 219.2 0 219.2-71.6 438.5-71.6 219.2 0 219.2 71.6 438.5 71.6 219.2 0 219.2-71.6 438.5-71.6s219.2 71.6 438.5 71.6 219.2-71.6 438.5-71.6m-2616.2 16.2c219.2 0 219.2 71.6 438.5 71.6 219.2 0 219.2-71.6 438.5-71.6 219.2 0 219.2 71.6 438.5 71.6 219.2 0 219.2-71.6 438.5-71.6 219.2 0 219.2 71.6 438.5 71.6s219.2-71.6 438.5-71.6m-2616.2 16.4c219.2 0 219.2 71.6 438.5 71.6 219.2 0 219.2-71.6 438.5-71.6 219.2 0 219.2 71.6 438.5 71.6 219.2 0 219.2-71.6 438.5-71.6 219.2 0 219.2 71.6 438.5 71.6 219.2 0 219.2-71.6 438.5-71.6m-2616.3 16.4c219.2 0 219.2 71.6 438.5 71.6 219.2 0 219.2-71.6 438.5-71.6 219.2 0 219.2 71.6 438.5 71.6 219.2 0 219.2-71.6 438.5-71.6 219.2 0 219.2 71.6 438.5 71.6 219.2 0 219.2-71.6 438.5-71.6m-2838.2 244c219.2 0 219.2 71.6 438.5 71.6 219.2 0 219.2-71.6 438.5-71.6 219.2 0 219.2 71.6 438.5 71.6 219.2 0 219.2-71.6 438.5-71.6 219.2 0 219.2 71.6 438.5 71.6 219.2 0 219.2-71.6 438.5-71.6M-43.7 2189c219.2 0 219.2 71.6 438.5 71.6 219.2 0 219.2-71.6 438.5-71.6 219.2 0 219.2 71.6 438.5 71.6 219.2 0 219.2-71.6 438.5-71.6s219.2 71.6 438.5 71.6 219.2-71.6 438.5-71.6m-2626.1 10.4c219.2 0 219.2 71.6 438.5 71.6 219.2 0 219.2-71.6 438.5-71.6 219.2 0 219.2 71.6 438.5 71.6 219.2 0 219.2-71.6 438.5-71.6 219.2 0 219.2 71.6 438.5 71.6 219.2 0 219.2-71.6 438.5-71.6m-2626.1 10.4c219.2 0 219.2 71.6 438.5 71.6 219.2 0 219.2-71.6 438.5-71.6 219.2 0 219.2 71.6 438.5 71.6 219.2 0 219.2-71.6 438.5-71.6 219.2 0 219.2 71.6 438.5 71.6 219.2 0 219.2-71.6 438.5-71.6m-2626 10.4c219.2 0 219.2 71.6 438.5 71.6 219.2 0 219.2-71.6 438.5-71.6 219.2 0 219.2 71.6 438.5 71.6 219.2 0 219.2-71.6 438.5-71.6s219.2 71.6 438.5 71.6 219.2-71.6 438.5-71.6M-24 2230.6c219.2 0 219.2 71.6 438.5 71.6 219.2 0 219.2-71.6 438.5-71.6 219.2 0 219.2 71.6 438.5 71.6 219.2 0 219.2-71.6 438.5-71.6 219.2 0 219.2 71.6 438.5 71.6 219.2 0 219.2-71.6 438.5-71.6m-2626.1 10.5c219.2 0 219.2 71.6 438.5 71.6 219.2 0 219.2-71.6 438.5-71.6 219.2 0 219.2 71.6 438.5 71.6 219.2 0 219.2-71.6 438.5-71.6s219.2 71.6 438.5 71.6 219.2-71.6 438.5-71.6m-2626.1 10.4c219.2 0 219.2 71.6 438.5 71.6 219.2 0 219.2-71.6 438.5-71.6 219.2 0 219.2 71.6 438.5 71.6 219.2 0 219.2-71.6 438.5-71.6 219.2 0 219.2 71.6 438.5 71.6 219.2 0 219.2-71.6 438.5-71.6m-2626 10.4c219.2 0 219.2 71.6 438.5 71.6 219.2 0 219.2-71.6 438.5-71.6 219.2 0 219.2 71.6 438.5 71.6 219.2 0 219.2-71.6 438.5-71.6 219.2 0 219.2 71.6 438.5 71.6 219.2 0 219.2-71.6 438.5-71.6M-4.4 2272.4c219.2 0 219.2 71.6 438.5 71.6 219.2 0 219.2-71.6 438.5-71.6 219.2 0 219.2 71.6 438.5 71.6 219.2 0 219.2-71.6 438.5-71.6s219.2 71.6 438.5 71.6 219.2-71.6 438.5-71.6M.5 2282.9c219.2 0 219.2 71.6 438.5 71.6 219.2 0 219.2-71.6 438.5-71.6 219.2 0 219.2 71.6 438.5 71.6 219.2 0 219.2-71.6 438.5-71.6s219.2 71.6 438.5 71.6c219.2 0 219.2-71.6 438.5-71.6m-2626 10.4c219.2 0 219.2 71.6 438.5 71.6 219.2 0 219.2-71.6 438.5-71.6 219.2 0 219.2 71.6 438.5 71.6 219.2 0 219.2-71.6 438.5-71.6 219.2 0 219.2 71.6 438.5 71.6s219.2-71.6 438.5-71.6M10.4 2303.7c219.2 0 219.2 71.6 438.5 71.6 219.2 0 219.2-71.6 438.5-71.6 219.2 0 219.2 71.6 438.5 71.6 219.2 0 219.2-71.6 438.5-71.6s219.2 71.6 438.5 71.6c219.2 0 219.2-71.6 438.5-71.6M15.3 2314.1c219.2 0 219.2 71.6 438.5 71.6 219.2 0 219.2-71.6 438.5-71.6 219.2 0 219.2 71.6 438.5 71.6 219.2 0 219.2-71.6 438.5-71.6 219.2 0 219.2 71.6 438.5 71.6 219.2 0 219.2-71.6 438.5-71.6M20.2 2324.5c219.2 0 219.2 71.6 438.5 71.6 219.2 0 219.2-71.6 438.5-71.6 219.2 0 219.2 71.6 438.5 71.6 219.2 0 219.2-71.6 438.5-71.6 219.2 0 219.2 71.6 438.5 71.6 219.2 0 219.2-71.6 438.5-71.6M25.2 2335c219.2 0 219.2 71.6 438.5 71.6 219.2 0 219.2-71.6 438.5-71.6 219.2 0 219.2 71.6 438.5 71.6 219.2 0 219.2-71.6 438.5-71.6 219.2 0 219.2 71.6 438.5 71.6s219.2-71.6 438.5-71.6M30.1 2345.4c219.2 0 219.2 71.6 438.5 71.6 219.2 0 219.2-71.6 438.5-71.6 219.2 0 219.2 71.6 438.5 71.6 219.2 0 219.2-71.6 438.5-71.6 219.2 0 219.2 71.6 438.5 71.6 219.2 0 219.2-71.6 438.5-71.6M-35.6 2163.2c219.2 0 219.2 71.6 438.5 71.6 219.2 0 219.2-71.6 438.5-71.6 219.2 0 219.2 71.6 438.5 71.6 219.2 0 219.2-71.6 438.5-71.6 219.2 0 219.2 71.6 438.5 71.6 219.2 0 219.2-71.6 438.5-71.6M-22.8 2148c219.2 0 219.2 71.6 438.5 71.6 219.2 0 219.2-71.6 438.5-71.6 219.2 0 219.2 71.6 438.5 71.6 219.2 0 219.2-71.6 438.5-71.6 219.2 0 219.2 71.6 438.5 71.6s219.2-71.6 438.5-71.6m-2618-15.3c219.2 0 219.2 71.6 438.5 71.6 219.2 0 219.2-71.6 438.5-71.6 219.2 0 219.2 71.6 438.5 71.6 219.2 0 219.2-71.6 438.5-71.6s219.2 71.6 438.5 71.6 219.2-71.6 438.5-71.6m-2618-15.2c219.2 0 219.2 71.6 438.5 71.6 219.2 0 219.2-71.6 438.5-71.6 219.2 0 219.2 71.6 438.5 71.6 219.2 0 219.2-71.6 438.5-71.6 219.2 0 219.2 71.6 438.5 71.6s219.2-71.6 438.5-71.6m-2618-15.3c219.2 0 219.2 71.6 438.5 71.6 219.2 0 219.2-71.6 438.5-71.6 219.2 0 219.2 71.6 438.5 71.6 219.2 0 219.2-71.6 438.5-71.6 219.2 0 219.2 71.6 438.5 71.6s219.2-71.6 438.5-71.6M29 2087c219.2 0 219.2 71.6 438.5 71.6 219.2 0 219.2-71.6 438.5-71.6 219.2 0 219.2 71.6 438.5 71.6 219.2 0 219.2-71.6 438.5-71.6 219.2 0 219.2 71.6 438.5 71.6 219.2 0 219.2-71.6 438.5-71.6M42 2071.8c219.2 0 219.2 71.6 438.5 71.6 219.2 0 219.2-71.6 438.5-71.6 219.2 0 219.2 71.6 438.5 71.6 219.2 0 219.2-71.6 438.5-71.6s219.2 71.6 438.5 71.6c219.2 0 219.2-71.6 438.5-71.6M55 2056.5c219.2 0 219.2 71.6 438.5 71.6 219.2 0 219.2-71.6 438.5-71.6 219.2 0 219.2 71.6 438.5 71.6 219.2 0 219.2-71.6 438.5-71.6 219.2 0 219.2 71.6 438.5 71.6 219.2 0 219.2-71.6 438.5-71.6M68 2041.2c219.2 0 219.2 71.6 438.5 71.6 219.2 0 219.2-71.6 438.5-71.6 219.2 0 219.2 71.6 438.5 71.6 219.2 0 219.2-71.6 438.5-71.6 219.2 0 219.2 71.6 438.5 71.6s219.2-71.6 438.5-71.6M80.9 2025.9c219.2 0 219.2 71.6 438.5 71.6 219.2 0 219.2-71.6 438.5-71.6 219.2 0 219.2 71.6 438.5 71.6 219.2 0 219.2-71.6 438.5-71.6 219.2 0 219.2 71.6 438.5 71.6 219.2 0 219.2-71.6 438.5-71.6M93.8 2010.7c219.2 0 219.2 71.6 438.5 71.6 219.2 0 219.2-71.6 438.5-71.6 219.2 0 219.2 71.6 438.5 71.6 219.2 0 219.2-71.6 438.5-71.6s219.2 71.6 438.5 71.6 219.2-71.6 438.5-71.6m-2618-15.2c219.2 0 219.2 71.6 438.5 71.6 219.2 0 219.2-71.6 438.5-71.6 219.2 0 219.2 71.6 438.5 71.6 219.2 0 219.2-71.6 438.5-71.6 219.2 0 219.2 71.6 438.5 71.6s219.2-71.6 438.5-71.6m-2618.1-15.3c219.2 0 219.2 71.6 438.5 71.6 219.2 0 219.2-71.6 438.5-71.6 219.2 0 219.2 71.6 438.5 71.6 219.2 0 219.2-71.6 438.5-71.6s219.2 71.6 438.5 71.6 219.2-71.6 438.5-71.6m-2618-15.2c219.2 0 219.2 71.6 438.5 71.6 219.2 0 219.2-71.6 438.5-71.6 219.2 0 219.2 71.6 438.5 71.6 219.2 0 219.2-71.6 438.5-71.6 219.2 0 219.2 71.6 438.5 71.6 219.2 0 219.2-71.6 438.5-71.6m-2618-15.3c219.2 0 219.2 71.6 438.5 71.6 219.2 0 219.2-71.6 438.5-71.6 219.2 0 219.2 71.6 438.5 71.6 219.2 0 219.2-71.6 438.5-71.6 219.2 0 219.2 71.6 438.5 71.6 219.2 0 219.2-71.6 438.5-71.6M64 1497.8c219.2 0 219.2 71.6 438.5 71.6 219.2 0 219.2-71.6 438.5-71.6 219.2 0 219.2 71.6 438.5 71.6 219.2 0 219.2-71.6 438.5-71.6 219.2 0 219.2 71.6 438.5 71.6 219.2 0 219.2-71.6 438.5-71.6M54.6 1509.4c219.2 0 219.2 71.6 438.5 71.6 219.2 0 219.2-71.6 438.5-71.6 219.2 0 219.2 71.6 438.5 71.6 219.2 0 219.2-71.6 438.5-71.6s219.2 71.6 438.5 71.6 219.2-71.6 438.5-71.6M45.2 1521.1c219.2 0 219.2 71.6 438.5 71.6 219.2 0 219.2-71.6 438.5-71.6 219.2 0 219.2 71.6 438.5 71.6 219.2 0 219.2-71.6 438.5-71.6 219.2 0 219.2 71.6 438.5 71.6 219.2 0 219.2-71.6 438.5-71.6M35.7 1532.8c219.2 0 219.2 71.6 438.5 71.6 219.2 0 219.2-71.6 438.5-71.6 219.2 0 219.2 71.6 438.5 71.6 219.2 0 219.2-71.6 438.5-71.6 219.2 0 219.2 71.6 438.5 71.6s219.2-71.6 438.5-71.6M26.4 1544.5c219.2 0 219.2 71.6 438.5 71.6 219.2 0 219.2-71.6 438.5-71.6 219.2 0 219.2 71.6 438.5 71.6 219.2 0 219.2-71.6 438.5-71.6s219.2 71.6 438.5 71.6c219.2 0 219.2-71.6 438.5-71.6M16.9 1556.2c219.2 0 219.2 71.6 438.5 71.6 219.2 0 219.2-71.6 438.5-71.6 219.2 0 219.2 71.6 438.5 71.6 219.2 0 219.2-71.6 438.5-71.6 219.2 0 219.2 71.6 438.5 71.6s219.2-71.6 438.5-71.6M7.4 1567.8c219.2 0 219.2 71.6 438.5 71.6 219.2 0 219.2-71.6 438.5-71.6 219.2 0 219.2 71.6 438.5 71.6 219.2 0 219.2-71.6 438.5-71.6 219.2 0 219.2 71.6 438.5 71.6s219.2-71.6 438.5-71.6M-1.9 1579.5c219.2 0 219.2 71.6 438.5 71.6 219.2 0 219.2-71.6 438.5-71.6 219.2 0 219.2 71.6 438.5 71.6 219.2 0 219.2-71.6 438.5-71.6 219.2 0 219.2 71.6 438.5 71.6 219.2 0 219.2-71.6 438.5-71.6m-2640.5 11.7c219.2 0 219.2 71.6 438.5 71.6 219.2 0 219.2-71.6 438.5-71.6 219.2 0 219.2 71.6 438.5 71.6 219.2 0 219.2-71.6 438.5-71.6 219.2 0 219.2 71.6 438.5 71.6 219.2 0 219.2-71.6 438.5-71.6m-2640.3 11.7c219.2 0 219.2 71.6 438.5 71.6 219.2 0 219.2-71.6 438.5-71.6 219.2 0 219.2 71.6 438.5 71.6 219.2 0 219.2-71.6 438.5-71.6 219.2 0 219.2 71.6 438.5 71.6 219.2 0 219.2-71.6 438.5-71.6m-2640.5 11.6c219.2 0 219.2 71.6 438.5 71.6 219.2 0 219.2-71.6 438.5-71.6 219.2 0 219.2 71.6 438.5 71.6 219.2 0 219.2-71.6 438.5-71.6 219.2 0 219.2 71.6 438.5 71.6s219.2-71.6 438.5-71.6m-2640.5 11.7c219.2 0 219.2 71.6 438.5 71.6 219.2 0 219.2-71.6 438.5-71.6 219.2 0 219.2 71.6 438.5 71.6 219.2 0 219.2-71.6 438.5-71.6 219.2 0 219.2 71.6 438.5 71.6 219.2 0 219.2-71.6 438.5-71.6M-49 1637.9c219.2 0 219.2 71.6 438.5 71.6 219.2 0 219.2-71.6 438.5-71.6 219.2 0 219.2 71.6 438.5 71.6 219.2 0 219.2-71.6 438.5-71.6s219.2 71.6 438.5 71.6 219.2-71.6 438.5-71.6m-2640.5 11.7c219.2 0 219.2 71.6 438.5 71.6 219.2 0 219.2-71.6 438.5-71.6 219.2 0 219.2 71.6 438.5 71.6 219.2 0 219.2-71.6 438.5-71.6 219.2 0 219.2 71.6 438.5 71.6s219.2-71.6 438.5-71.6m-2640.3 11.6c219.2 0 219.2 71.6 438.5 71.6 219.2 0 219.2-71.6 438.5-71.6 219.2 0 219.2 71.6 438.5 71.6 219.2 0 219.2-71.6 438.5-71.6 219.2 0 219.2 71.6 438.5 71.6 219.2 0 219.2-71.6 438.5-71.6"/></g><g class="st0"><path class="st1" d="M2520.2 1296.2c219.2 0 219.2 71.6 438.5 71.6 219.2 0 219.2-71.6 438.4-71.6s219.2 71.6 438.5 71.6c219.2 0 219.2-71.6 438.5-71.6 219.2 0 219.2 71.6 438.5 71.6 219.2 0 219.2-71.6 438.5-71.6m-2619.4 11.9c219.3 0 219.3 71.5 438.5 71.5s219.2-71.6 438.5-71.6c219.2 0 219.2 71.6 438.5 71.6 219.2 0 219.2-71.6 438.5-71.6 219.2 0 219.2 71.6 438.5 71.6s219.2-71.6 438.5-71.6m-2619.5 11.9c219.2 0 219.2 71.6 438.5 71.6 219.2 0 219.2-71.6 438.5-71.6 219.2 0 219.2 71.6 438.5 71.6 219.2 0 219.2-71.6 438.5-71.6 219.2 0 219.2 71.6 438.5 71.6s219.2-71.6 438.5-71.6m-2619.4 11.9c219.2 0 219.2 71.6 438.5 71.6 219.2 0 219.2-71.6 438.5-71.6 219.2 0 219.2 71.6 438.5 71.6 219.2 0 219.2-71.6 438.5-71.6s219.2 71.6 438.5 71.6 219.2-71.6 438.5-71.6m-2619.6 11.8c219.2 0 219.2 71.6 438.5 71.6 219.2 0 219.2-71.6 438.5-71.6 219.2 0 219.2 71.6 438.5 71.6 219.2 0 219.2-71.6 438.5-71.6 219.2 0 219.2 71.6 438.5 71.6 219.2 0 219.2-71.6 438.5-71.6m-2619.5 11.9c219.2 0 219.2 71.6 438.5 71.6 219.2 0 219.2-71.6 438.5-71.6 219.2 0 219.2 71.6 438.5 71.6 219.2 0 219.2-71.6 438.5-71.6 219.2 0 219.2 71.6 438.5 71.6s219.2-71.6 438.5-71.6m-2619.5 12c219.2 0 219.2 71.6 438.5 71.6 219.2 0 219.2-71.6 438.5-71.6 219.2 0 219.2 71.6 438.5 71.6 219.2 0 219.2-71.6 438.5-71.6s219.2 71.6 438.5 71.6 219.1-71.6 438.2-71.6m-2619.1 11.8c219.2 0 219.2 71.6 438.5 71.6 219.2 0 219.2-71.6 438.5-71.6 219.2 0 219.2 71.6 438.5 71.6 219.2 0 219.2-71.6 438.5-71.6s219.2 71.6 438.5 71.6 219.2-71.6 438.5-71.6m-2619.5 11.9c219.2 0 219.2 71.6 438.5 71.6 219.2 0 219.2-71.6 438.5-71.6 219.2 0 219.2 71.6 438.5 71.6 219.2 0 219.2-71.6 438.5-71.6 219.2 0 219.2 71.6 438.5 71.6 219.2 0 219.2-71.6 438.5-71.6m-2619.5 11.9c219.2 0 219.2 71.6 438.5 71.6 219.2 0 219.2-71.6 438.5-71.6 219.2 0 219.2 71.6 438.5 71.6 219.2 0 219.2-71.6 438.5-71.6 219.2 0 219.2 71.6 438.5 71.6 219.2 0 219.2-71.6 438.5-71.6m-2619.5 11.8c219.2 0 219.2 71.6 438.5 71.6 219.2 0 219.2-71.6 438.5-71.6 219.2 0 219.2 71.6 438.5 71.6 219.2 0 219.2-71.6 438.5-71.6 219.2 0 219.2 71.6 438.5 71.6 219.2 0 219.2-71.6 438.5-71.6m-2619.4 11.9c219.2 0 219.2 71.6 438.5 71.6 219.2 0 219.2-71.6 438.5-71.6 219.2 0 219.2 71.6 438.5 71.6 219.2 0 219.2-71.6 438.5-71.6 219.2 0 219.2 71.6 438.5 71.6 219.2 0 219.2-71.6 438.5-71.6m-2619.6 11.8c219.2 0 219.2 71.6 438.5 71.6 219.2 0 219.2-71.6 438.5-71.6 219.2 0 219.2 71.6 438.5 71.6 219.2 0 219.2-71.6 438.5-71.6 219.2 0 219.2 71.6 438.5 71.6 219.2 0 219.2-71.6 438.5-71.6m-2619.5 11.9c219.2 0 219.2 71.6 438.5 71.6 219.2 0 219.2-71.6 438.5-71.6 219.2 0 219.2 71.6 438.5 71.6 219.2 0 219.2-71.6 438.5-71.6s219.2 71.6 438.5 71.6 219.2-71.6 438.5-71.6m-2619.5 11.9c219.2 0 219.2 71.6 438.5 71.6 219.2 0 219.2-71.6 438.5-71.6 219.2 0 219.2 71.6 438.5 71.6 219.2 0 219.2-71.6 438.5-71.6 219.2 0 219.2 71.6 438.5 71.6 219.2 0 219.2-71.6 438.5-71.6m-2619.5 11.8c219.2 0 219.2 71.6 438.5 71.6 219.2 0 219.2-71.6 438.5-71.6 219.2 0 219.2 71.6 438.5 71.6 219.2 0 219.2-71.6 438.5-71.6 219.2 0 219.2 71.6 438.5 71.6 219.2 0 219.2-71.6 438.5-71.6m-2619.4 11.9c219.2 0 219.2 71.6 438.5 71.6 219.2 0 219.2-71.6 438.5-71.6 219.2 0 219.2 71.6 438.5 71.6 219.2 0 219.2-71.6 438.5-71.6s219.2 71.6 438.5 71.6 219.2-71.6 438.5-71.6m-2781.8 186.8c219.2 0 219.2 71.6 438.5 71.6 219.2 0 219.2-71.6 438.5-71.6 219.2 0 219.2 71.6 438.5 71.6 219.2 0 219.2-71.6 438.5-71.6 219.2 0 219.2 71.6 438.5 71.6 219.2 0 219.2-71.6 438.5-71.6m-2616.2 16.3c219.2 0 219.2 71.6 438.5 71.6 219.2 0 219.2-71.6 438.5-71.6 219.2 0 219.2 71.6 438.5 71.6 219.2 0 219.2-71.6 438.5-71.6 219.2 0 219.2 71.6 438.5 71.6s219.2-71.6 438.5-71.6M2583 1705.6c219.2 0 219.2 71.6 438.5 71.6 219.2 0 219.2-71.6 438.5-71.6 219.2 0 219.2 71.6 438.5 71.6 219.2 0 219.2-71.6 438.5-71.6 219.2 0 219.2 71.6 438.5 71.6s219.2-71.6 438.5-71.6m-2616.2 16.3c219.2 0 219.2 71.6 438.5 71.6 219.2 0 219.2-71.6 438.5-71.6 219.2 0 219.2 71.6 438.5 71.6 219.2 0 219.2-71.6 438.5-71.6s219.2 71.6 438.5 71.6c219.2 0 219.2-71.6 438.5-71.6m-2616.2 16.4c219.2 0 219.2 71.6 438.4 71.6s219.2-71.6 438.5-71.6c219.2 0 219.2 71.6 438.5 71.6 219.2 0 219.2-71.6 438.5-71.6s219.1 71.6 438.4 71.6 219.2-71.6 438.5-71.6m-2616.1 16.3c219.2 0 219.2 71.6 438.5 71.6 219.2 0 219.2-71.6 438.5-71.6 219.2 0 219.2 71.6 438.5 71.6 219.2 0 219.2-71.6 438.5-71.6 219.2 0 219.2 71.6 438.5 71.6 219.2 0 219.2-71.6 438.5-71.6M2642.1 1771c219.2 0 219.2 71.6 438.5 71.6 219.2 0 219.2-71.6 438.5-71.6 219.2 0 219.2 71.6 438.5 71.6 219.2 0 219.2-71.6 438.5-71.6 219.2 0 219.2 71.6 438.5 71.6 219.2 0 219.2-71.6 438.5-71.6m-2616.2 16.3c219.2 0 219.2 71.6 438.5 71.6 219.2 0 219.2-71.6 438.5-71.6 219.2 0 219.2 71.6 438.5 71.6 219.2 0 219.2-71.6 438.5-71.6 219.2 0 219.2 71.6 438.5 71.6 219.2 0 219.2-71.6 438.5-71.6m-2616.4 16.4c219.2 0 219.2 71.6 438.5 71.6 219.2 0 219.2-71.6 438.5-71.6 219.2 0 219.2 71.6 438.5 71.6 219.2 0 219.2-71.6 438.5-71.6 219.2 0 219.2 71.6 438.5 71.6 219.2 0 219.2-71.6 438.5-71.6M2686.3 1820c219.2 0 219.2 71.6 438.5 71.6 219.2 0 219.2-71.6 438.5-71.6 219.2 0 219.2 71.6 438.5 71.6 219.2 0 219.2-71.6 438.5-71.6s219.2 71.6 438.5 71.6c219.2 0 219.2-71.6 438.5-71.6M2701 1836.4c219.2 0 219.2 71.6 438.5 71.6 219.2 0 219.2-71.6 438.5-71.6 219.2 0 219.2 71.6 438.5 71.6 219.2 0 219.2-71.6 438.5-71.6s219.2 71.6 438.5 71.6 219.2-71.6 438.5-71.6m-2616.2 16.3c219.2 0 219.2 71.6 438.5 71.6 219.2 0 219.2-71.6 438.5-71.6 219.2 0 219.2 71.6 438.5 71.6 219.2 0 219.2-71.6 438.5-71.6 219.2 0 219.2 71.6 438.5 71.6 219.2 0 219.2-71.6 438.5-71.6m-2616.3 16.4c219.2 0 219.2 71.6 438.5 71.6 219.2 0 219.2-71.6 438.5-71.6 219.2 0 219.2 71.6 438.5 71.6 219.2 0 219.2-71.6 438.5-71.6s219.1 71.6 438.2 71.6 219.2-71.6 438.5-71.6m-2616 16.4c219.2 0 219.2 71.6 438.5 71.6 219.2 0 219.2-71.6 438.5-71.6 219.2 0 219.2 71.6 438.5 71.6 219.2 0 219.2-71.6 438.5-71.6s219.2 71.6 438.5 71.6 219.2-71.6 438.5-71.6M2760 1901.7c219.2 0 219.2 71.6 438.5 71.6 219.2 0 219.2-71.6 438.5-71.6 219.2 0 219.2 71.6 438.5 71.6 219.2 0 219.2-71.6 438.5-71.6 219.2 0 219.2 71.6 438.5 71.6s219.2-71.6 438.5-71.6m-2616.2 16.4c219.2 0 219.2 71.6 438.5 71.6 219.2 0 219.2-71.6 438.5-71.6 219.2 0 219.2 71.6 438.5 71.6 219.2 0 219.2-71.6 438.5-71.6 219.2 0 219.2 71.6 438.5 71.6 219.2 0 219.2-71.6 438.5-71.6m-2616.3 16.4c219.2 0 219.2 71.6 438.5 71.6 219.2 0 219.2-71.6 438.5-71.6 219.2 0 219.2 71.6 438.5 71.6 219.2 0 219.2-71.6 438.5-71.6 219.2 0 219.2 71.6 438.5 71.6 219.2 0 219.2-71.6 438.5-71.6m-2838.2 244c219.2 0 219.2 71.6 438.5 71.6 219.2 0 219.2-71.6 438.5-71.6 219.2 0 219.2 71.6 438.5 71.6 219.2 0 219.2-71.6 438.5-71.6 219.2 0 219.2 71.6 438.5 71.6 219.2 0 219.2-71.6 438.5-71.6M2587.2 2189c219.2 0 219.2 71.6 438.5 71.6 219.2 0 219.2-71.6 438.5-71.6 219.2 0 219.2 71.6 438.5 71.6 219.2 0 219.2-71.6 438.5-71.6s219.2 71.6 438.5 71.6 219.2-71.6 438.5-71.6m-2626.1 10.4c219.2 0 219.2 71.6 438.5 71.6 219.2 0 219.2-71.6 438.5-71.6 219.2 0 219.2 71.6 438.5 71.6 219.2 0 219.2-71.6 438.5-71.6 219.2 0 219.2 71.6 438.5 71.6 219.2 0 219.2-71.6 438.5-71.6M2597 2209.8c219.2 0 219.2 71.6 438.5 71.6 219.2 0 219.2-71.6 438.5-71.6 219.2 0 219.2 71.6 438.5 71.6 219.2 0 219.2-71.6 438.5-71.6 219.2 0 219.2 71.6 438.5 71.6 219.2 0 219.2-71.6 438.5-71.6m-2626 10.4c219.2 0 219.2 71.6 438.5 71.6 219.2 0 219.2-71.6 438.5-71.6 219.2 0 219.2 71.6 438.5 71.6 219.2 0 219.2-71.6 438.5-71.6s219.2 71.6 438.5 71.6 219.2-71.6 438.5-71.6m-2626.1 10.4c219.2 0 219.2 71.6 438.5 71.6 219.2 0 219.2-71.6 438.5-71.6 219.2 0 219.2 71.6 438.5 71.6 219.2 0 219.2-71.6 438.5-71.6 219.2 0 219.2 71.6 438.5 71.6 219.2 0 219.2-71.6 438.5-71.6m-2626.1 10.5c219.2 0 219.2 71.6 438.5 71.6 219.2 0 219.2-71.6 438.5-71.6 219.2 0 219.2 71.6 438.5 71.6 219.2 0 219.2-71.6 438.5-71.6s219.2 71.6 438.5 71.6 219.2-71.6 438.5-71.6m-2626.1 10.4c219.2 0 219.2 71.6 438.5 71.6 219.2 0 219.2-71.6 438.5-71.6 219.2 0 219.2 71.6 438.5 71.6 219.2 0 219.2-71.6 438.5-71.6 219.2 0 219.2 71.6 438.5 71.6 219.2 0 219.2-71.6 438.5-71.6m-2626 10.4c219.2 0 219.2 71.6 438.5 71.6 219.2 0 219.2-71.6 438.5-71.6 219.2 0 219.2 71.6 438.5 71.6 219.2 0 219.2-71.6 438.5-71.6 219.2 0 219.2 71.6 438.5 71.6 219.2 0 219.2-71.6 438.5-71.6m-2626.2 10.5c219.2 0 219.2 71.6 438.5 71.6 219.2 0 219.2-71.6 438.5-71.6 219.2 0 219.2 71.6 438.5 71.6 219.2 0 219.2-71.6 438.5-71.6s219.2 71.6 438.5 71.6 219.2-71.6 438.5-71.6m-2626.1 10.5c219.2 0 219.2 71.6 438.5 71.6 219.2 0 219.2-71.6 438.5-71.6 219.2 0 219.2 71.6 438.5 71.6 219.2 0 219.2-71.6 438.5-71.6s219.2 71.6 438.5 71.6c219.2 0 219.2-71.6 438.5-71.6m-2626 10.4c219.2 0 219.2 71.6 438.5 71.6 219.2 0 219.2-71.6 438.5-71.6 219.2 0 219.2 71.6 438.5 71.6 219.2 0 219.2-71.6 438.5-71.6 219.2 0 219.2 71.6 438.5 71.6s219.2-71.6 438.5-71.6m-2626.1 10.4c219.2 0 219.2 71.6 438.5 71.6 219.2 0 219.2-71.6 438.5-71.6 219.2 0 219.2 71.6 438.5 71.6 219.2 0 219.2-71.6 438.5-71.6s219.2 71.6 438.5 71.6c219.2 0 219.2-71.6 438.5-71.6m-2626.1 10.4c219.2 0 219.2 71.6 438.5 71.6 219.2 0 219.2-71.6 438.5-71.6 219.2 0 219.2 71.6 438.5 71.6 219.2 0 219.2-71.6 438.5-71.6 219.2 0 219.2 71.6 438.5 71.6 219.2 0 219.2-71.6 438.5-71.6m-2626.1 10.4c219.2 0 219.2 71.6 438.5 71.6 219.2 0 219.2-71.6 438.5-71.6 219.2 0 219.2 71.6 438.5 71.6 219.2 0 219.2-71.6 438.5-71.6 219.2 0 219.2 71.6 438.5 71.6 219.2 0 219.2-71.6 438.5-71.6m-2626 10.5c219.2 0 219.2 71.6 438.5 71.6 219.2 0 219.2-71.6 438.5-71.6 219.2 0 219.2 71.6 438.5 71.6 219.2 0 219.2-71.6 438.5-71.6 219.2 0 219.2 71.6 438.5 71.6s219.2-71.6 438.5-71.6M2661 2345.4c219.2 0 219.2 71.6 438.5 71.6 219.2 0 219.2-71.6 438.5-71.6 219.2 0 219.2 71.6 438.5 71.6 219.2 0 219.2-71.6 438.5-71.6 219.2 0 219.2 71.6 438.5 71.6 219.2 0 219.2-71.6 438.5-71.6m-2696.7-182.2c219.2 0 219.2 71.6 438.5 71.6 219.2 0 219.2-71.6 438.5-71.6 219.2 0 219.2 71.6 438.5 71.6 219.2 0 219.2-71.6 438.5-71.6 219.2 0 219.2 71.6 438.5 71.6 219.2 0 219.2-71.6 438.5-71.6M2608.1 2148c219.2 0 219.2 71.6 438.5 71.6 219.2 0 219.2-71.6 438.5-71.6 219.2 0 219.2 71.6 438.5 71.6 219.2 0 219.2-71.6 438.5-71.6 219.2 0 219.2 71.6 438.5 71.6s219.2-71.6 438.5-71.6m-2618-15.3c219.2 0 219.2 71.6 438.5 71.6 219.2 0 219.2-71.6 438.5-71.6 219.2 0 219.2 71.6 438.5 71.6 219.2 0 219.2-71.6 438.5-71.6s219.2 71.6 438.5 71.6 219.2-71.6 438.5-71.6m-2618-15.2c219.2 0 219.2 71.6 438.5 71.6 219.2 0 219.2-71.6 438.5-71.6 219.2 0 219.2 71.6 438.5 71.6 219.2 0 219.2-71.6 438.5-71.6 219.2 0 219.2 71.6 438.5 71.6s219.2-71.6 438.5-71.6m-2618-15.3c219.2 0 219.2 71.6 438.5 71.6 219.2 0 219.2-71.6 438.5-71.6 219.2 0 219.2 71.6 438.5 71.6 219.2 0 219.2-71.6 438.5-71.6 219.2 0 219.2 71.6 438.5 71.6s219.2-71.6 438.5-71.6M2659.9 2087c219.2 0 219.2 71.6 438.5 71.6 219.2 0 219.2-71.6 438.5-71.6 219.2 0 219.2 71.6 438.5 71.6 219.2 0 219.2-71.6 438.5-71.6 219.2 0 219.2 71.6 438.5 71.6 219.2 0 219.2-71.6 438.5-71.6m-2618-15.2c219.2 0 219.2 71.6 438.5 71.6 219.2 0 219.2-71.6 438.5-71.6 219.2 0 219.2 71.6 438.5 71.6 219.2 0 219.2-71.6 438.5-71.6s219.2 71.6 438.5 71.6c219.2 0 219.2-71.6 438.5-71.6m-2618-15.3c219.2 0 219.2 71.6 438.5 71.6 219.2 0 219.2-71.6 438.5-71.6 219.2 0 219.2 71.6 438.5 71.6 219.2 0 219.2-71.6 438.5-71.6 219.2 0 219.2 71.6 438.5 71.6 219.2 0 219.2-71.6 438.5-71.6m-2618-15.3c219.2 0 219.2 71.6 438.5 71.6 219.2 0 219.2-71.6 438.5-71.6 219.2 0 219.2 71.6 438.5 71.6 219.2 0 219.2-71.6 438.5-71.6 219.2 0 219.2 71.6 438.5 71.6s219.2-71.6 438.5-71.6m-2618.1-15.3c219.2 0 219.2 71.6 438.5 71.6 219.2 0 219.2-71.6 438.5-71.6 219.2 0 219.2 71.6 438.5 71.6 219.2 0 219.2-71.6 438.5-71.6 219.2 0 219.2 71.6 438.5 71.6 219.2 0 219.2-71.6 438.5-71.6m-2618.1-15.2c219.2 0 219.2 71.6 438.5 71.6 219.2 0 219.2-71.6 438.5-71.6 219.2 0 219.2 71.6 438.5 71.6 219.2 0 219.2-71.6 438.5-71.6s219.2 71.6 438.5 71.6 219.2-71.6 438.5-71.6m-2618-15.2c219.2 0 219.2 71.6 438.5 71.6 219.2 0 219.2-71.6 438.5-71.6 219.2 0 219.2 71.6 438.5 71.6 219.2 0 219.2-71.6 438.5-71.6 219.2 0 219.2 71.6 438.5 71.6s219.2-71.6 438.5-71.6m-2618.1-15.3c219.2 0 219.2 71.6 438.5 71.6 219.2 0 219.2-71.6 438.5-71.6 219.2 0 219.2 71.6 438.5 71.6 219.2 0 219.2-71.6 438.5-71.6s219.2 71.6 438.5 71.6 219.2-71.6 438.5-71.6m-2618-15.2c219.2 0 219.2 71.6 438.5 71.6 219.2 0 219.2-71.6 438.5-71.6 219.2 0 219.2 71.6 438.5 71.6 219.2 0 219.2-71.6 438.5-71.6 219.2 0 219.2 71.6 438.5 71.6 219.2 0 219.2-71.6 438.5-71.6m-2618-15.3c219.2 0 219.2 71.6 438.5 71.6 219.2 0 219.2-71.6 438.5-71.6 219.2 0 219.2 71.6 438.5 71.6 219.2 0 219.2-71.6 438.5-71.6 219.2 0 219.2 71.6 438.5 71.6 219.2 0 219.2-71.6 438.5-71.6m-2712.7-451.9c219.2 0 219.2 71.6 438.5 71.6 219.2 0 219.2-71.6 438.5-71.6 219.2 0 219.2 71.6 438.5 71.6 219.2 0 219.2-71.6 438.5-71.6 219.2 0 219.2 71.6 438.5 71.6 219.2 0 219.2-71.6 438.5-71.6m-2640.4 11.6c219.2 0 219.2 71.6 438.5 71.6 219.2 0 219.2-71.6 438.5-71.6 219.2 0 219.2 71.6 438.5 71.6 219.2 0 219.2-71.6 438.5-71.6s219.2 71.6 438.5 71.6 219.2-71.6 438.5-71.6m-2640.4 11.7c219.2 0 219.2 71.6 438.5 71.6 219.2 0 219.2-71.6 438.5-71.6 219.2 0 219.2 71.6 438.5 71.6 219.2 0 219.2-71.6 438.5-71.6 219.2 0 219.2 71.6 438.5 71.6 219.2 0 219.2-71.6 438.5-71.6m-2640.5 11.7c219.2 0 219.2 71.6 438.5 71.6 219.2 0 219.2-71.6 438.5-71.6 219.2 0 219.2 71.6 438.5 71.6 219.2 0 219.2-71.6 438.5-71.6 219.2 0 219.2 71.6 438.5 71.6s219.2-71.6 438.5-71.6m-2640.3 11.7c219.2 0 219.2 71.6 438.5 71.6 219.2 0 219.2-71.6 438.5-71.6 219.2 0 219.2 71.6 438.5 71.6 219.2 0 219.2-71.6 438.5-71.6s219.2 71.6 438.5 71.6c219.2 0 219.2-71.6 438.5-71.6m-2640.5 11.7c219.2 0 219.2 71.6 438.5 71.6 219.2 0 219.2-71.6 438.5-71.6 219.2 0 219.2 71.6 438.5 71.6 219.2 0 219.2-71.6 438.5-71.6 219.2 0 219.2 71.6 438.5 71.6s219.2-71.6 438.5-71.6m-2640.5 11.6c219.2 0 219.2 71.6 438.5 71.6 219.2 0 219.2-71.6 438.5-71.6 219.2 0 219.2 71.6 438.5 71.6 219.2 0 219.2-71.6 438.5-71.6 219.2 0 219.2 71.6 438.5 71.6s219.2-71.6 438.5-71.6M2629 1579.5c219.2 0 219.2 71.6 438.5 71.6 219.2 0 219.2-71.6 438.5-71.6 219.2 0 219.2 71.6 438.5 71.6 219.2 0 219.2-71.6 438.5-71.6 219.2 0 219.2 71.6 438.5 71.6 219.2 0 219.2-71.6 438.5-71.6m-2640.5 11.7c219.2 0 219.2 71.6 438.5 71.6 219.2 0 219.2-71.6 438.5-71.6 219.2 0 219.2 71.6 438.5 71.6 219.2 0 219.2-71.6 438.5-71.6 219.2 0 219.2 71.6 438.5 71.6 219.2 0 219.2-71.6 438.5-71.6m-2640.3 11.7c219.2 0 219.2 71.6 438.5 71.6 219.2 0 219.2-71.6 438.5-71.6 219.2 0 219.2 71.6 438.5 71.6 219.2 0 219.2-71.6 438.5-71.6 219.2 0 219.2 71.6 438.5 71.6 219.2 0 219.2-71.6 438.5-71.6m-2640.5 11.6c219.2 0 219.2 71.6 438.5 71.6 219.2 0 219.2-71.6 438.5-71.6 219.2 0 219.2 71.6 438.5 71.6 219.2 0 219.2-71.6 438.5-71.6 219.2 0 219.2 71.6 438.5 71.6s219.2-71.6 438.5-71.6m-2640.5 11.7c219.2 0 219.2 71.6 438.5 71.6 219.2 0 219.2-71.6 438.5-71.6 219.2 0 219.2 71.6 438.5 71.6 219.2 0 219.2-71.6 438.5-71.6 219.2 0 219.2 71.6 438.5 71.6 219.2 0 219.2-71.6 438.5-71.6m-2640.3 11.7c219.2 0 219.2 71.6 438.5 71.6 219.2 0 219.2-71.6 438.5-71.6 219.2 0 219.2 71.6 438.5 71.6 219.2 0 219.2-71.6 438.5-71.6s219.2 71.6 438.5 71.6 219.2-71.6 438.5-71.6m-2640.5 11.7c219.2 0 219.2 71.6 438.5 71.6 219.2 0 219.2-71.6 438.5-71.6 219.2 0 219.2 71.6 438.5 71.6 219.2 0 219.2-71.6 438.5-71.6 219.2 0 219.2 71.6 438.5 71.6s219.2-71.6 438.5-71.6m-2640.3 11.6c219.2 0 219.2 71.6 438.5 71.6 219.2 0 219.2-71.6 438.5-71.6 219.2 0 219.2 71.6 438.5 71.6 219.2 0 219.2-71.6 438.5-71.6 219.2 0 219.2 71.6 438.5 71.6 219.2 0 219.2-71.6 438.5-71.6"/></g></svg>