<?xml version="1.0" encoding="UTF-8"?>
<svg width="32px" height="32px" viewBox="0 0 32 32" version="1.1" xmlns="http://www.w3.org/2000/svg" xmlns:xlink="http://www.w3.org/1999/xlink">
    <!-- Generator: Sketch 61 (89581) - https://sketch.com -->
    <title>Slice</title>
    <desc>Created with Sketch.</desc>
    <g id="Page-1" stroke="none" stroke-width="1" fill="none" fill-rule="evenodd">
        <path d="M20.5532622,9.33636956 C21.142423,8.85584162 22.0114854,8.89016504 22.5606602,9.43933983 C23.109835,9.98851461 23.1441584,10.857577 22.6636304,11.4467378 L22.5606602,11.5606602 L18.121,16 L22.5606602,20.4393398 C23.1464466,21.0251263 23.1464466,21.9748737 22.5606602,22.5606602 C22.0114854,23.109835 21.142423,23.1441584 20.5532622,22.6636304 L20.4393398,22.5606602 L16,18.121 L11.5606602,22.5606602 L11.4467378,22.6636304 C10.857577,23.1441584 9.98851461,23.109835 9.43933983,22.5606602 C8.89016504,22.0114854 8.85584162,21.142423 9.33636956,20.5532622 L9.43933983,20.4393398 L13.879,16 L9.43933983,11.5606602 C8.85355339,10.9748737 8.85355339,10.0251263 9.43933983,9.43933983 C9.98851461,8.89016504 10.857577,8.85584162 11.4467378,9.33636956 L11.5606602,9.43933983 L16,13.879 L20.4393398,9.43933983 L20.5532622,9.33636956 Z" id="Path" fill="#000000" fill-rule="nonzero"></path>
    </g>
</svg>