<?xml version="1.0" encoding="UTF-8"?>
<svg width="778px" height="214px" viewBox="0 0 778 214" version="1.1" xmlns="http://www.w3.org/2000/svg" xmlns:xlink="http://www.w3.org/1999/xlink">
    <title>heylocal_logo</title>
    <g id="heylocal_logo" stroke="none" stroke-width="1" fill="none" fill-rule="evenodd">
        <path d="M247.663,56.8841 C249.118,56.8432 250.548,57.2639 251.748,58.086 C252.868933,58.8532 253.735502,59.9333031 254.242824,61.1884996 L254.346,61.4601 L282.046,130.674 L310.574,61.4321 C311.132,60.0716 312.086,58.9104 313.312,58.0993 C314.451357,57.3462286 315.776097,56.927277 317.136496,56.8867217 L317.451,56.8841 L328.986,56.8841 C331.618,56.8841 335.324,58.6031 335.31404,62.4601 C335.304,63.052 335.158,63.6338 334.887,64.1601 C334.809,64.663 334.64,65.1474 334.387,65.5891 L334.317119,65.8026354 L334.317119,65.8026354 L334.160576,66.2512042 L334.160576,66.2512042 L333.981111,66.7315719 L333.981111,66.7315719 L333.778068,67.2475001 L333.778068,67.2475001 L333.427859,68.0962973 L333.427859,68.0962973 L333.163,68.7175844 L333.163,68.7175844 L332.555,70.1101 L325.972,85.6291 L320.46845,98.8076929 L320.46845,98.8076929 L314.899168,112.055773 L314.899168,112.055773 L309.173032,125.59898 L309.173032,125.59898 L306.003,133.062 L306.003,133.062 L286.224072,180.008283 L286.224072,180.008283 L275.721224,204.793243 L275.721224,204.793243 L274.022081,208.754139 L274.022081,208.754139 L273.878,209.085 C273.345,210.416 272.426,211.557 271.24,212.362 C270.139642,213.110429 268.854765,213.53724 267.528684,213.598398 L267.222,213.606 L256.922,213.606 C254.386,213.606 250.597,212.122 250.597,208.06 L250.601896,207.939231 L250.601896,207.939231 L250.616598,207.798905 L250.616598,207.798905 L250.641129,207.638889 L250.641129,207.638889 L250.675508,207.459051 L250.675508,207.459051 L250.719758,207.259258 L250.719758,207.259258 L250.804686,206.921861 L250.804686,206.921861 L250.911941,206.53882 L250.911941,206.53882 L251.089806,205.95632 L251.089806,205.95632 L251.307662,205.290815 L251.307662,205.290815 L251.709805,204.134603 L251.709805,204.134603 L252.202887,202.785661 L252.202887,202.785661 L252.893854,200.963527 L252.893854,200.963527 L253.585945,199.184715 L253.585945,199.184715 L254.945846,195.764764 L254.945846,195.764764 L257.474641,189.535681 L257.474641,189.535681 L260.147,183.032 L260.147,183.032 L262.378598,177.706721 L262.378598,177.706721 L264.548555,172.569638 L264.548555,172.569638 L267.357918,165.976404 L267.357918,165.976404 L269.905789,160.071497 L269.905789,160.071497 L270.483,158.754 L270.483,158.754 L269.604113,156.668166 L269.604113,156.668166 L267.506154,151.782662 L267.506154,151.782662 L254.083914,120.881246 L254.083914,120.881246 L250.311835,112.150485 L250.311835,112.150485 L249.232,109.64 L240.190644,88.4350988 L240.190644,88.4350988 L236.933997,80.7408434 L236.933997,80.7408434 L234.675995,75.3480458 L234.675995,75.3480458 L233.796973,73.2244215 L233.796973,73.2244215 L232.57837,70.2406677 L232.57837,70.2406677 L231.813753,68.3296666 L231.813753,68.3296666 L231.478762,67.4770257 L231.478762,67.4770257 L230.98971,66.2056733 L230.98971,66.2056733 L230.515764,64.9226774 L230.515764,64.9226774 L230.213595,64.0515091 L230.213595,64.0515091 L230.03179,63.4815973 L230.03179,63.4815973 L229.960668,63.2383532 L229.960668,63.2383532 L229.902637,63.022612 L229.902637,63.022612 L229.857626,62.8341448 L229.857626,62.8341448 L229.825564,62.672723 L229.825564,62.672723 L229.806379,62.5381176 C229.802122,62.4976932 229.8,62.4617 229.8,62.4301 C229.8,58.9499333 232.390927,57.5041521 234.558076,57.0527921 L234.896296,56.989637 C234.951932,56.980438 235.007166,56.9718896 235.061941,56.9639731 L235.384651,56.923904 L235.384651,56.923904 L235.693725,56.8980883 L235.693725,56.8980883 L235.986526,56.8856163 L235.986526,56.8856163 L247.663,56.8841 Z M567.86,54.6111 C586.873938,54.6111 603.875029,62.9631918 613.455046,76.9792573 L613.752,77.4191 L613.959,77.8191 C614.543,78.8104 614.879,79.9281 614.938,81.0771 C614.951772,82.1030077 614.647006,83.1057391 614.068345,83.9479665 L613.918,84.1551 L613.818,84.2671 C613.444,84.6657 613.029,85.0234 612.579,85.3341 C611.785,86.1737 610.938,86.9613 610.043,87.6921 L608.849672,88.735596 C608.712616,88.856508 608.574448,88.979084 608.435544,89.103332 L608.017,89.4811 L605.081,91.7961 C604.665,92.1781 604.191,92.4917 603.676,92.7251 C602.867,93.2544 601.939,93.5736 600.976,93.6541 C599.475,93.6871 598.015,93.1691 596.87,92.1981 C596.334,91.6916 595.853,91.1294 595.436,90.5211 C588.985,81.1901 579.225,76.2541 567.225,76.2541 C547.242,76.2541 533.818,89.7581 533.834,109.881 C533.834,129.86 547.257,143.281 567.24,143.281 C579.629,143.281 589.386,138.485 595.464,129.416 C595.824857,128.780857 596.261387,128.193469 596.764145,127.665172 L597.021,127.406 L597.173,127.28 C598.313,126.55 599.654,126.2 601.005,126.28 C602.521,126.235 603.998,126.766 605.139,127.764 L605.322752,127.937263 L605.322752,127.937263 L605.695688,128.267408 L605.695688,128.267408 L606.345804,128.817945 L606.345804,128.817945 L608.233599,130.363303 L608.233599,130.363303 L609.853,131.674 L612.995,134.696 C613.106,134.9 613.24,135.091 613.395,135.265 C613.561,135.473 613.739,135.709 613.918,135.973 C614.566,136.721 614.932,137.672 614.953773,138.662 C614.976,139.95 614.53,141.202 613.697,142.185 C603.596,156.965 587.1,165.117 567.24,165.117 C534.537,165.117 511.701,142.394 511.701,109.865 C511.701,77.3361 534.799,54.6111 567.86,54.6111 Z M172.592023,54.8166515 L173.635012,54.8236273 C207.914693,55.2607963 228.338772,77.30278 228.316439,114.01 C228.323,114.808 228.168,115.599 227.861,116.335 C227.554,117.071 227.101,117.737 226.529,118.293 C225.957,118.849 225.278,119.284 224.534,119.57 C223.882125,119.82025 223.191968,119.953359 222.495687,119.962629 L222.197,119.959 L140.497,119.959 C144.686,134.587 157.502,143.266 175.046,143.266 C186.147754,143.266 193.98996,140.415705 201.162388,133.754501 L201.546,133.394 L201.629,133.294 C202.002,132.822 202.479,132.442 203.022,132.184 C204.019,131.567 205.17,131.245 206.343,131.255 C206.984239,131.255 207.906823,131.609713 208.974866,132.20732 L209.441108,132.477982 C209.915463,132.762864 210.412971,133.089424 210.922933,133.448862 L211.43665,133.818932 L211.43665,133.818932 L211.956295,134.208965 C212.043264,134.275525 212.130381,134.342836 212.217596,134.410856 L212.741673,134.827164 L212.741673,134.827164 L213.265734,135.258544 C213.352944,135.331588 213.440054,135.405179 213.527015,135.479275 L214.046595,135.929596 C214.132761,136.005552 214.218679,136.081932 214.304299,136.158696 L214.81405,136.623557 L214.81405,136.623557 L215.314276,137.095664 C215.396721,137.174844 215.478671,137.254245 215.560075,137.333825 L216.041558,137.813138 C218.333266,140.137088 220.083,142.543662 220.083,144.039 C220.085,144.789 219.934,145.532 219.637,146.221 C219.341,146.911 218.906,147.532 218.36,148.046 C208.205,159.041 192.825,165.114 175.06,165.114 C140.91,165.114 117.054,142.389 117.054,109.862 C117.054,77.2613 138.935712,55.2603815 171.599887,54.8236232 L172.592023,54.8166515 Z M444.501,54.817 C461.328,54.817 475.551,60.391 485.639,70.971 C495.065,80.829 500.247,94.651 500.247,109.862 C500.247,142.389 477.315,165.114 444.501,165.114 C411.799,165.114 388.963,142.389 388.963,109.862 C388.963,76.932 411.288,54.817 444.501,54.817 Z M363.99,1.36804 C366.993159,1.36804 370.168229,3.28770504 370.311932,6.86851416 L370.317,7.12103 L370.317,157.087 C370.236,158.687 369.526,160.191 368.34,161.269 C367.224705,162.283588 365.774574,162.84464 364.273065,162.847957 L363.991,162.842 L354.109,162.842 C352.508,162.913 350.945,162.347 349.76,161.269 C348.643764,160.254412 347.949176,158.862467 347.803792,157.368289 L347.783,157.087 L347.783,7.12103 C347.783,3.85498455 350.244194,1.47811135 353.662014,1.37175866 L353.902,1.36804 L363.99,1.36804 Z M770.674,1.36804 C773.678136,1.36804 776.865644,3.28770504 776.995954,6.86851416 L777.000044,7.12103 L777.000044,157.087 C776.919,158.687 776.209,160.191 775.023,161.269 C773.907705,162.283588 772.457574,162.84464 770.956065,162.847957 L770.674,162.842 L760.793,162.842 C759.192,162.913 757.629,162.347 756.444,161.269 C755.328705,160.253471 754.634173,158.862356 754.488792,157.368279 L754.468,157.087 L754.468,7.12103 C754.468,3.85498455 756.915823,1.47811135 760.346102,1.37175866 L760.587,1.36804 L770.674,1.36804 Z M8.68895956,1.15004 C9.94795512,0.964690667 11.2250445,0.944096296 12.488082,1.08825689 L12.9609996,1.15004 L15.9799996,1.15004 C17.8368996,1.21524 19.6068996,1.9527 20.9606996,3.22524 C22.2348643,4.42292471 23.0587702,6.0178346 23.3013585,7.7430919 L23.3399996,8.06804 L23.5319996,67.568 C31.6219996,59.208 42.6199996,54.813 55.5049996,54.813 C83.1883696,54.813 99.1879675,71.8148927 99.4916158,101.496675 L99.4960087,102.4 L99.4960087,157.085 C99.4148996,158.685 98.7041996,160.188 97.5189996,161.266 C96.4036113,162.279647 94.9530314,162.840644 93.4519705,162.843943 L93.1699996,162.838 L83.0829996,162.838 C82.3017996,162.869 81.5221996,162.744 80.7896996,162.471 C80.0572996,162.197 79.3866996,161.78 78.8170996,161.245 C78.2474996,160.709 77.7901996,160.065 77.4719996,159.351 C77.1936621,158.72625 77.0266464,158.058625 76.9777189,157.377602 L76.9639996,157.085 L76.9639996,102.4 C76.9639996,84.3191 69.8389996,76.2501 53.8519996,76.2501 C36.4012696,76.2501 24.3949951,94.1201653 23.9557628,111.012432 L23.9459996,111.524 L23.9459996,156.882 C23.9529996,157.68 23.7982996,158.47 23.4910996,159.207 C23.1838996,159.943 22.7305996,160.609 22.1585996,161.165 C21.5866996,161.721 20.9078996,162.155 20.1633996,162.441 C19.5119621,162.69125 18.8220136,162.824359 18.1257105,162.833629 L17.8269996,162.83 L7.73797956,162.83 C6.13754956,162.901 4.57415956,162.335 3.38897956,161.258 C2.27351603,160.243412 1.57834161,158.852353 1.43280252,157.358279 L1.41198656,157.077 L0.999023,8.15004 C0.999023,3.46504 4.96795956,1.46904 8.68895956,1.15004 Z M444.487,76.2531 C424.504,76.2531 411.081,89.762 411.081,109.862 C411.081,129.841 424.504,143.262 444.487,143.262 C464.788,143.262 477.895,130.147 477.895,109.862 C477.895,89.44 464.788,76.2531 444.487,76.2531 Z M172.606,76.239 C156.42544,76.239 144.578882,84.7599894 140.613739,99.1093885 L140.496,99.546 L204.704,99.546 C200.845,84.933 188.95,76.239 172.606,76.239 Z" id="Shape" fill="#00495A" fill-rule="nonzero"></path>
        <path d="M356.151048,212.065924 C358.517257,212.041779 360.590709,211.528698 362.371402,210.526681 C364.152096,209.524664 365.522324,208.088036 366.482088,206.216799 C367.441851,204.345562 367.921733,202.166476 367.921733,199.679541 L367.921733,199.679541 L367.921733,197.995428 C367.909661,195.568856 367.423743,193.419951 366.463979,191.548714 C365.504215,189.677477 364.143041,188.234813 362.380457,187.220724 C360.617872,186.206634 358.589692,185.699589 356.295918,185.699589 L356.295918,185.699589 L348.853223,185.699589 L348.853223,212.065924 L356.151048,212.065924 Z M355.988069,209.222851 L352.330102,209.222851 L352.330102,188.560771 L356.386461,188.560771 C358.969976,188.584916 360.964956,189.426973 362.371402,191.086941 C363.777848,192.74691 364.481071,195.073884 364.481071,198.067863 L364.481071,198.067863 L364.481071,199.607106 C364.481071,202.685593 363.735594,205.057839 362.244641,206.723844 C360.753687,208.389849 358.668163,209.222851 355.988069,209.222851 L355.988069,209.222851 Z M380.778943,212.428099 C384.062663,212.428099 386.525452,211.166523 388.167312,208.643371 L388.167312,208.643371 L386.121024,207.049801 C385.505326,207.846586 384.787013,208.486429 383.966083,208.969329 C383.145153,209.452229 382.143136,209.693678 380.960031,209.693678 C379.294026,209.693678 377.920779,209.099108 376.840291,207.909967 C375.759802,206.720826 375.195413,205.160456 375.147123,203.228856 L375.147123,203.228856 L388.420835,203.228856 L388.420835,201.834482 C388.420835,198.707705 387.714593,196.305278 386.302111,194.627201 C384.889629,192.949124 382.909739,192.110085 380.362442,192.110085 C378.80509,192.110085 377.359408,192.541677 376.025397,193.404861 C374.691386,194.268044 373.653151,195.463222 372.910693,196.990393 C372.168234,198.517564 371.797005,200.252985 371.797005,202.196657 L371.797005,202.196657 L371.797005,202.812355 C371.797005,205.733899 372.630007,208.066909 374.296012,209.811385 C375.962017,211.555861 378.122994,212.428099 380.778943,212.428099 Z M385.070716,200.476326 L375.255776,200.476326 C375.473081,198.701669 376.040488,197.322386 376.957998,196.338478 C377.875508,195.354569 379.010322,194.862615 380.362442,194.862615 C381.762852,194.862615 382.873522,195.330424 383.694452,196.266043 C384.515381,197.201661 384.974136,198.520582 385.070716,200.222804 L385.070716,200.222804 L385.070716,200.476326 Z M394.288068,189.176468 C394.939983,189.176468 395.434956,188.995381 395.772986,188.633206 C396.111016,188.271031 396.280031,187.818312 396.280031,187.27505 C396.280031,186.731787 396.111016,186.273033 395.772986,185.898785 C395.434956,185.524538 394.939983,185.337414 394.288068,185.337414 C393.636154,185.337414 393.144199,185.524538 392.812206,185.898785 C392.480212,186.273033 392.314215,186.731787 392.314215,187.27505 C392.314215,187.818312 392.480212,188.271031 392.812206,188.633206 C393.144199,188.995381 393.636154,189.176468 394.288068,189.176468 Z M395.935964,212.065924 L395.935964,192.47226 L392.585846,192.47226 L392.585846,212.065924 L395.935964,212.065924 Z M404.646272,212.065924 L404.646272,198.10408 C405.105027,197.162426 405.744869,196.401858 406.565799,195.822378 C407.386729,195.242898 408.340456,194.953159 409.426981,194.953159 C410.767028,194.953159 411.753955,195.291188 412.387761,195.967248 C413.021567,196.643308 413.344506,197.687579 413.356579,199.100062 L413.356579,199.100062 L413.356579,212.065924 L416.706697,212.065924 L416.706697,199.11817 C416.67048,194.446114 414.581937,192.110085 410.441071,192.110085 C408.026571,192.110085 406.070826,193.05174 404.573837,194.93505 L404.573837,194.93505 L404.465184,192.47226 L401.296154,192.47226 L401.296154,212.065924 L404.646272,212.065924 Z M429.889865,212.428099 C433.173584,212.428099 435.636374,211.166523 437.278234,208.643371 L437.278234,208.643371 L435.231945,207.049801 C434.616248,207.846586 433.897934,208.486429 433.077004,208.969329 C432.256074,209.452229 431.254057,209.693678 430.070952,209.693678 C428.404948,209.693678 427.031701,209.099108 425.951212,207.909967 C424.870724,206.720826 424.306335,205.160456 424.258045,203.228856 L424.258045,203.228856 L437.531756,203.228856 L437.531756,201.834482 C437.531756,198.707705 436.825515,196.305278 435.413033,194.627201 C434.00055,192.949124 432.020661,192.110085 429.473364,192.110085 C427.916011,192.110085 426.47033,192.541677 425.136319,193.404861 C423.802308,194.268044 422.764073,195.463222 422.021614,196.990393 C421.279156,198.517564 420.907926,200.252985 420.907926,202.196657 L420.907926,202.196657 L420.907926,202.812355 C420.907926,205.733899 421.740929,208.066909 423.406933,209.811385 C425.072938,211.555861 427.233915,212.428099 429.889865,212.428099 Z M434.181638,200.476326 L424.366697,200.476326 C424.584002,198.701669 425.151409,197.322386 426.068919,196.338478 C426.986429,195.354569 428.121244,194.862615 429.473364,194.862615 C430.873773,194.862615 431.984443,195.330424 432.805373,196.266043 C433.626303,197.201661 434.085058,198.520582 434.181638,200.222804 L434.181638,200.222804 L434.181638,200.476326 Z M461.254214,212.428099 C463.378974,212.428099 465.241157,212.111196 466.840763,211.47739 C468.440369,210.843584 469.686854,209.886838 470.580219,208.607154 L470.580219,208.607154 L470.580219,198.937083 L461.018801,198.937083 L461.018801,201.762047 L467.121448,201.762047 L467.121448,207.683608 C466.481606,208.37174 465.672749,208.860676 464.694876,209.150416 C463.717004,209.440156 462.576153,209.585026 461.272323,209.585026 C458.966476,209.585026 457.137493,208.712788 455.785373,206.968312 C454.433253,205.223836 453.757193,202.872717 453.757193,199.914955 L453.757193,199.914955 L453.757193,197.760014 C453.769266,194.657382 454.375909,192.288155 455.577122,190.652331 C456.778336,189.016508 458.543939,188.198596 460.873931,188.198596 C464.374955,188.198596 466.451425,189.943072 467.10334,193.432024 L467.10334,193.432024 L470.580219,193.432024 C470.205972,190.848509 469.179809,188.853529 467.501732,187.447083 C465.823655,186.040637 463.608351,185.337414 460.855822,185.337414 C457.499667,185.337414 454.895026,186.429975 453.041898,188.615097 C451.188769,190.800219 450.262205,193.878706 450.262205,197.850558 L450.262205,197.850558 L450.262205,200.150369 C450.28635,202.601086 450.754159,204.756027 451.665633,206.615192 C452.577106,208.474356 453.865846,209.907965 455.53185,210.916019 C457.197855,211.924072 459.10531,212.428099 461.254214,212.428099 Z M482.206034,212.428099 C484.729186,212.428099 486.642677,211.661496 487.946507,210.128288 L487.946507,210.128288 L488.018942,212.065924 L491.206082,212.065924 L491.206082,192.47226 L487.855963,192.47226 L487.855963,206.723844 C487.010889,208.631299 485.308666,209.585026 482.749297,209.585026 C480.334797,209.585026 479.127547,208.100109 479.127547,205.130274 L479.127547,205.130274 L479.127547,192.47226 L475.777429,192.47226 L475.777429,205.220818 C475.789502,207.5991 476.341819,209.394884 477.43438,210.60817 C478.526941,211.821456 480.117492,212.428099 482.206034,212.428099 Z M502.017003,212.428099 C502.850006,212.428099 503.707153,212.307374 504.588446,212.065924 L504.588446,212.065924 L504.588446,209.349612 C503.912386,209.494482 503.381196,209.566917 502.994876,209.566917 C502.210163,209.566917 501.654829,209.370739 501.328871,208.978383 C501.002914,208.586027 500.839935,207.997493 500.839935,207.21278 L500.839935,207.21278 L500.839935,195.061811 L504.497902,195.061811 L504.497902,192.47226 L500.839935,192.47226 L500.839935,187.727769 L497.489817,187.727769 L497.489817,192.47226 L493.922394,192.47226 L493.922394,195.061811 L497.489817,195.061811 L497.489817,207.21278 C497.489817,208.878785 497.8701,210.164506 498.630668,211.069943 C499.391235,211.975381 500.520014,212.428099 502.017003,212.428099 Z M515.616672,212.428099 C517.850084,212.428099 519.666995,211.899927 521.067405,210.843584 C522.467815,209.78724 523.16802,208.383812 523.16802,206.6333 C523.16802,205.582993 522.917515,204.692646 522.416507,203.96226 C521.915498,203.231874 521.145876,202.607122 520.107642,202.088005 C519.069407,201.568887 517.714269,201.122205 516.042228,200.747958 C514.370187,200.37371 513.214245,199.981354 512.574403,199.570889 C511.93456,199.160424 511.614639,198.550763 511.614639,197.741906 C511.614639,196.884758 511.958705,196.19059 512.646838,195.6594 C513.33497,195.12821 514.288698,194.862615 515.50802,194.862615 C516.691125,194.862615 517.672015,195.194608 518.450691,195.858596 C519.229367,196.522583 519.618705,197.313332 519.618705,198.230842 L519.618705,198.230842 L522.986932,198.230842 C522.986932,196.444112 522.295782,194.977304 520.913481,193.830416 C519.53118,192.683529 517.729359,192.110085 515.50802,192.110085 C513.395333,192.110085 511.659911,192.66542 510.301755,193.77609 C508.943599,194.88676 508.264521,196.244916 508.264521,197.850558 C508.264521,198.816358 508.502953,199.64936 508.979817,200.349565 C509.45668,201.04977 510.193103,201.653395 511.189084,202.16044 C512.185065,202.667485 513.531148,203.102095 515.227334,203.46427 C516.92352,203.826444 518.112661,204.258036 518.794757,204.759045 C519.476854,205.260054 519.817902,205.963277 519.817902,206.868714 C519.817902,207.725861 519.4346,208.410976 518.667996,208.924057 C517.901393,209.437138 516.884285,209.693678 515.616672,209.693678 C514.240408,209.693678 513.132756,209.364703 512.293717,208.706752 C511.454679,208.048801 511.004978,207.158454 510.944616,206.035712 L510.944616,206.035712 L507.594498,206.035712 C507.594498,207.194671 507.935546,208.272142 508.617642,209.268123 C509.299738,210.264104 510.244411,211.039762 511.451661,211.595097 C512.65891,212.150432 514.047248,212.428099 515.616672,212.428099 Z M535.391424,212.428099 C536.719399,212.428099 537.977957,212.126287 539.167098,211.522662 C540.356239,210.919037 541.306948,210.11018 542.019225,209.09609 C542.731503,208.082 543.117823,207.013584 543.178185,205.890842 L543.178185,205.890842 L540.009154,205.890842 C539.912574,206.977366 539.417602,207.882804 538.524237,208.607154 C537.630872,209.331504 536.586601,209.693678 535.391424,209.693678 C533.665057,209.693678 532.337082,209.084017 531.4075,207.864695 C530.477917,206.645373 530.013126,204.906933 530.013126,202.649376 L530.013126,202.649376 L530.013126,202.01557 C530.013126,199.69765 530.480935,197.926011 531.416554,196.700653 C532.352173,195.475294 533.671093,194.862615 535.373315,194.862615 C536.640927,194.862615 537.706325,195.270062 538.569509,196.084955 C539.432693,196.899849 539.912574,197.941102 540.009154,199.208714 L540.009154,199.208714 L543.178185,199.208714 C543.081605,197.108099 542.305947,195.399841 540.851211,194.083939 C539.396475,192.768036 537.57051,192.110085 535.373315,192.110085 C533.586585,192.110085 532.038288,192.52055 530.728422,193.34148 C529.418556,194.16241 528.41352,195.315333 527.713315,196.800251 C527.01311,198.285168 526.663008,199.981354 526.663008,201.888809 L526.663008,201.888809 L526.663008,202.45018 C526.663008,205.540739 527.450738,207.976366 529.026199,209.757059 C530.60166,211.537753 532.723402,212.428099 535.391424,212.428099 Z M550.294923,212.065924 L550.294923,198.10408 C550.753677,197.162426 551.39352,196.401858 552.21445,195.822378 C553.03538,195.242898 553.989107,194.953159 555.075632,194.953159 C556.415679,194.953159 557.402606,195.291188 558.036412,195.967248 C558.670218,196.643308 558.993157,197.687579 559.00523,199.100062 L559.00523,199.100062 L559.00523,212.065924 L562.355348,212.065924 L562.355348,199.11817 C562.31913,194.446114 560.230588,192.110085 556.089722,192.110085 C553.711439,192.110085 551.77984,193.021559 550.294923,194.844506 L550.294923,194.844506 L550.294923,184.250889 L546.944804,184.250889 L546.944804,212.065924 L550.294923,212.065924 Z M575.502298,212.428099 C578.786018,212.428099 581.248807,211.166523 582.890667,208.643371 L582.890667,208.643371 L580.844378,207.049801 C580.228681,207.846586 579.510367,208.486429 578.689438,208.969329 C577.868508,209.452229 576.86649,209.693678 575.683386,209.693678 C574.017381,209.693678 572.644134,209.099108 571.563646,207.909967 C570.483157,206.720826 569.918768,205.160456 569.870478,203.228856 L569.870478,203.228856 L583.144189,203.228856 L583.144189,201.834482 C583.144189,198.707705 582.437948,196.305278 581.025466,194.627201 C579.612984,192.949124 577.633094,192.110085 575.085797,192.110085 C573.528445,192.110085 572.082763,192.541677 570.748752,193.404861 C569.414741,194.268044 568.376506,195.463222 567.634048,196.990393 C566.891589,198.517564 566.52036,200.252985 566.52036,202.196657 L566.52036,202.196657 L566.52036,202.812355 C566.52036,205.733899 567.353362,208.066909 569.019367,209.811385 C570.685372,211.555861 572.846349,212.428099 575.502298,212.428099 Z M579.794071,200.476326 L569.97913,200.476326 C570.196435,198.701669 570.763843,197.322386 571.681353,196.338478 C572.598862,195.354569 573.733677,194.862615 575.085797,194.862615 C576.486207,194.862615 577.596877,195.330424 578.417806,196.266043 C579.238736,197.201661 579.697491,198.520582 579.794071,200.222804 L579.794071,200.222804 L579.794071,200.476326 Z M589.011423,189.176468 C589.663338,189.176468 590.158311,188.995381 590.496341,188.633206 C590.834371,188.271031 591.003385,187.818312 591.003385,187.27505 C591.003385,186.731787 590.834371,186.273033 590.496341,185.898785 C590.158311,185.524538 589.663338,185.337414 589.011423,185.337414 C588.359508,185.337414 587.867554,185.524538 587.53556,185.898785 C587.203567,186.273033 587.03757,186.731787 587.03757,187.27505 C587.03757,187.818312 587.203567,188.271031 587.53556,188.633206 C587.867554,188.995381 588.359508,189.176468 589.011423,189.176468 Z M590.659319,212.065924 L590.659319,192.47226 L587.309201,192.47226 L587.309201,212.065924 L590.659319,212.065924 Z M599.369627,212.065924 L599.369627,198.10408 C599.828381,197.162426 600.468224,196.401858 601.289154,195.822378 C602.110084,195.242898 603.063811,194.953159 604.150336,194.953159 C605.490383,194.953159 606.47731,195.291188 607.111116,195.967248 C607.744922,196.643308 608.067861,197.687579 608.079934,199.100062 L608.079934,199.100062 L608.079934,212.065924 L611.430052,212.065924 L611.430052,199.11817 C611.393834,194.446114 609.305292,192.110085 605.164426,192.110085 C602.749926,192.110085 600.794181,193.05174 599.297192,194.93505 L599.297192,194.93505 L599.188539,192.47226 L596.019508,192.47226 L596.019508,212.065924 L599.369627,212.065924 Z M624.61322,212.428099 C627.896939,212.428099 630.359729,211.166523 632.001588,208.643371 L632.001588,208.643371 L629.9553,207.049801 C629.339603,207.846586 628.621289,208.486429 627.800359,208.969329 C626.979429,209.452229 625.977412,209.693678 624.794307,209.693678 C623.128302,209.693678 621.755056,209.099108 620.674567,207.909967 C619.594079,206.720826 619.029689,205.160456 618.981399,203.228856 L618.981399,203.228856 L632.255111,203.228856 L632.255111,201.834482 C632.255111,198.707705 631.54887,196.305278 630.136387,194.627201 C628.723905,192.949124 626.744016,192.110085 624.196718,192.110085 C622.639366,192.110085 621.193685,192.541677 619.859674,193.404861 C618.525663,194.268044 617.487428,195.463222 616.744969,196.990393 C616.00251,198.517564 615.631281,200.252985 615.631281,202.196657 L615.631281,202.196657 L615.631281,202.812355 C615.631281,205.733899 616.464284,208.066909 618.130288,209.811385 C619.796293,211.555861 621.95727,212.428099 624.61322,212.428099 Z M628.904993,200.476326 L619.090052,200.476326 C619.307357,198.701669 619.874764,197.322386 620.792274,196.338478 C621.709784,195.354569 622.844599,194.862615 624.196718,194.862615 C625.597128,194.862615 626.707798,195.330424 627.528728,196.266043 C628.349658,197.201661 628.808413,198.520582 628.904993,200.222804 L628.904993,200.222804 L628.904993,200.476326 Z M650.309531,212.065924 L650.309531,195.061811 L654.492652,195.061811 L654.492652,192.47226 L650.309531,192.47226 L650.309531,190.407863 C650.309531,189.224758 650.605308,188.316303 651.19686,187.682497 C651.788412,187.048691 652.627451,186.731787 653.713976,186.731787 C654.353818,186.731787 654.957443,186.786114 655.52485,186.894766 L655.52485,186.894766 L655.705938,184.178454 C654.945371,183.973222 654.178767,183.870605 653.406127,183.870605 C651.353802,183.870605 649.766269,184.444049 648.643527,185.590936 C647.520784,186.737824 646.959413,188.361575 646.959413,190.462189 L646.959413,190.462189 L646.959413,192.47226 L643.862818,192.47226 L643.862818,195.061811 L646.959413,195.061811 L646.959413,212.065924 L650.309531,212.065924 Z M662.062108,189.140251 C662.714023,189.140251 663.208995,188.959163 663.547025,188.596988 C663.885055,188.234813 664.05407,187.782095 664.05407,187.238832 C664.05407,186.69557 663.885055,186.239833 663.547025,185.871622 C663.208995,185.503411 662.714023,185.319305 662.062108,185.319305 C661.410193,185.319305 660.918239,185.503411 660.586245,185.871622 C660.254252,186.239833 660.088255,186.69557 660.088255,187.238832 C660.088255,187.782095 660.254252,188.234813 660.586245,188.596988 C660.918239,188.959163 661.410193,189.140251 662.062108,189.140251 Z M669.848869,189.176468 C670.500784,189.176468 670.995757,188.995381 671.333786,188.633206 C671.671816,188.271031 671.840831,187.818312 671.840831,187.27505 C671.840831,186.731787 671.671816,186.273033 671.333786,185.898785 C670.995757,185.524538 670.500784,185.337414 669.848869,185.337414 C669.196954,185.337414 668.705,185.524538 668.373006,185.898785 C668.041013,186.273033 667.875016,186.731787 667.875016,187.27505 C667.875016,187.818312 668.041013,188.271031 668.373006,188.633206 C668.705,188.995381 669.196954,189.176468 669.848869,189.176468 Z M664.543006,212.428099 C667.066158,212.428099 668.979649,211.661496 670.283479,210.128288 L670.283479,210.128288 L670.355914,212.065924 L673.543054,212.065924 L673.543054,192.47226 L670.192935,192.47226 L670.192935,206.723844 C669.347861,208.631299 667.645638,209.585026 665.086269,209.585026 C662.671769,209.585026 661.464519,208.100109 661.464519,205.130274 L661.464519,205.130274 L661.464519,192.47226 L658.114401,192.47226 L658.114401,205.220818 C658.126474,207.5991 658.678791,209.394884 659.771352,210.60817 C660.863913,211.821456 662.454464,212.428099 664.543006,212.428099 Z M681.98173,212.065924 L681.98173,198.158407 C682.766442,196.28717 684.257395,195.351551 686.45459,195.351551 C687.046142,195.351551 687.595441,195.393805 688.102486,195.478312 L688.102486,195.478312 L688.102486,192.363608 C687.764456,192.194593 687.269484,192.110085 686.617569,192.110085 C684.601462,192.110085 683.044109,192.985341 681.945512,194.735854 L681.945512,194.735854 L681.891186,192.47226 L678.631611,192.47226 L678.631611,212.065924 L681.98173,212.065924 Z M707.098562,212.428099 C709.621714,212.428099 711.640839,211.715822 713.155937,210.291267 C714.671036,208.866712 715.428585,206.892859 715.428585,204.369707 L715.428585,204.369707 L715.428585,185.699589 L711.933597,185.699589 L711.933597,204.424033 C711.921524,206.05382 711.471824,207.321433 710.584495,208.22687 C709.697167,209.132307 708.535189,209.585026 707.098562,209.585026 C705.529137,209.585026 704.330941,209.162489 703.503975,208.317414 C702.677009,207.472339 702.263526,206.29527 702.263526,204.786208 L702.263526,204.786208 L698.786647,204.786208 C698.786647,207.200708 699.517033,209.077981 700.977805,210.418028 C702.438577,211.758076 704.478829,212.428099 707.098562,212.428099 Z M728.955819,212.428099 C732.239538,212.428099 734.702328,211.166523 736.344188,208.643371 L736.344188,208.643371 L734.297899,207.049801 C733.682202,207.846586 732.963888,208.486429 732.142958,208.969329 C731.322029,209.452229 730.320011,209.693678 729.136906,209.693678 C727.470902,209.693678 726.097655,209.099108 725.017167,207.909967 C723.936678,206.720826 723.372289,205.160456 723.323999,203.228856 L723.323999,203.228856 L736.59771,203.228856 L736.59771,201.834482 C736.59771,198.707705 735.891469,196.305278 734.478987,194.627201 C733.066504,192.949124 731.086615,192.110085 728.539318,192.110085 C726.981966,192.110085 725.536284,192.541677 724.202273,193.404861 C722.868262,194.268044 721.830027,195.463222 721.087568,196.990393 C720.34511,198.517564 719.973881,200.252985 719.973881,202.196657 L719.973881,202.196657 L719.973881,202.812355 C719.973881,205.733899 720.806883,208.066909 722.472888,209.811385 C724.138892,211.555861 726.299869,212.428099 728.955819,212.428099 Z M733.247592,200.476326 L723.432651,200.476326 C723.649956,198.701669 724.217364,197.322386 725.134873,196.338478 C726.052383,195.354569 727.187198,194.862615 728.539318,194.862615 C729.939728,194.862615 731.050397,195.330424 731.871327,196.266043 C732.692257,197.201661 733.151012,198.520582 733.247592,200.222804 L733.247592,200.222804 L733.247592,200.476326 Z M743.8231,212.065924 L743.8231,198.10408 C744.281855,197.162426 744.921697,196.401858 745.742627,195.822378 C746.563557,195.242898 747.517284,194.953159 748.603809,194.953159 C749.943857,194.953159 750.930783,195.291188 751.564589,195.967248 C752.198396,196.643308 752.521335,197.687579 752.533407,199.100062 L752.533407,199.100062 L752.533407,212.065924 L755.883526,212.065924 L755.883526,199.11817 C755.847308,194.446114 753.758766,192.110085 749.617899,192.110085 C747.2034,192.110085 745.247655,193.05174 743.750665,194.93505 L743.750665,194.93505 L743.642013,192.47226 L740.472982,192.47226 L740.472982,212.065924 L743.8231,212.065924 Z M766.984187,212.428099 C769.145164,212.428099 771.004329,211.619242 772.561681,210.001527 C772.682406,210.991472 772.839349,211.679604 773.032509,212.065924 L773.032509,212.065924 L776.545606,212.065924 L776.545606,211.776184 C776.086851,210.713805 775.857473,209.283214 775.857473,207.484411 L775.857473,207.484411 L775.857473,198.466255 C775.809183,196.486366 775.145196,194.932032 773.865511,193.803253 C772.585826,192.674475 770.817205,192.110085 768.559648,192.110085 C767.135094,192.110085 765.828246,192.37568 764.639105,192.90687 C763.449964,193.43806 762.508309,194.159392 761.81414,195.070865 C761.119971,195.982339 760.772887,196.927012 760.772887,197.904884 L760.772887,197.904884 L764.141114,197.904884 C764.141114,197.047737 764.545543,196.317351 765.3544,195.713726 C766.163257,195.110101 767.165275,194.808289 768.360452,194.808289 C769.724644,194.808289 770.756843,195.155373 771.457048,195.849542 C772.157253,196.54371 772.507355,197.476311 772.507355,198.647343 L772.507355,198.647343 L772.507355,200.186586 L769.247781,200.186586 C766.434889,200.186586 764.252785,200.750976 762.701469,201.879754 C761.150153,203.008533 760.374495,204.593048 760.374495,206.6333 C760.374495,208.311377 760.99321,209.696697 762.230641,210.789258 C763.468072,211.881819 765.052588,212.428099 766.984187,212.428099 Z M767.473123,209.512591 C766.374526,209.512591 765.475125,209.216815 764.77492,208.625262 C764.074715,208.03371 763.724613,207.21278 763.724613,206.162473 C763.724613,203.760046 765.776938,202.558832 769.881587,202.558832 L769.881587,202.558832 L772.507355,202.558832 L772.507355,206.578974 C772.084818,207.448194 771.402722,208.154435 770.461067,208.697697 C769.519412,209.24096 768.523431,209.512591 767.473123,209.512591 Z" id="DeineGutscheinefürJena" fill="#00495A" fill-rule="nonzero"></path>
        <path d="M642.359127,70.109127 L659.352479,87.1022501 C654.319638,92.6135914 651.25,99.9483195 651.25,108 C651.25,125.120827 665.129173,139 682.25,139 C690.301694,139 697.636434,135.930351 703.147779,130.897494 L734.493621,162.24166 C733.471632,163.264119 732.082437,163.91951 730.540792,163.993077 L730.25,164 L681.25,164 C650.874339,164 626.25,139.375661 626.25,109 C626.25,94.0291384 632.231453,80.45532 641.9349,70.5380038 L642.359127,70.109127 Z" id="Path" fill="#80D1D5"></path>
        <path d="M681.25,54 C711.321905,54 735.756938,78.1343144 736.242632,108.090474 L736.25,109 L736.25,158 C736.25,159.657353 735.578023,161.157757 734.49166,162.243621 L703.17031,130.92031 C708.780207,125.310414 712.25,117.560414 712.25,109 C712.25,91.8791728 698.370827,78 681.25,78 C672.689586,78 664.939586,81.4697932 659.32969,87.0796898 L642.359127,70.109127 C652.312169,60.1560847 666.062169,54 681.25,54 Z" id="Path" fill="#EC806F"></path>
    </g>
</svg>