<?xml version="1.0" encoding="UTF-8"?>
<svg width="144px" height="144px" viewBox="0 0 144 144" version="1.1" xmlns="http://www.w3.org/2000/svg" xmlns:xlink="http://www.w3.org/1999/xlink">
    <title>hellocal_pin</title>
    <g id="hellocal_pin" stroke="none" stroke-width="1" fill="none" fill-rule="evenodd">
        <path d="M72,7 L72.0001622,31.0320672 C64.544299,31.3704177 57.1873012,34.3862919 51.4939033,40.0796898 C39.3876503,52.1859428 39.3876503,71.8140572 51.4939033,83.9203102 C57.1873111,89.613718 64.5443246,92.6295928 72.0002011,92.9679345 L72.0013867,137.296465 C70.5557433,137.296465 69.1100028,136.777919 67.967876,135.739831 L67.7573593,135.539105 L33.109127,100.890873 C11.630291,79.4120369 11.630291,44.5879631 33.109127,23.109127 C43.6951248,12.5231293 57.5227898,7.15451612 71.3967643,7.00328758 L72,7 Z" id="Path" fill="#80D1D5"></path>
        <path d="M110.89226,23.109127 C132.156307,44.3731747 132.368948,78.71689 111.530181,100.242531 L110.89226,100.890873 L76.2440274,135.539105 C75.0721018,136.711031 73.5359961,137.296465 72,137.296465 L72.0013867,93 C79.9349785,93 87.8685704,89.9734367 93.9216969,83.9203102 C106.02795,71.8140572 106.02795,52.1859428 93.9216969,40.0796898 C87.8685704,34.0265633 79.9349785,31 72.0013867,31 L72.0013867,7 C86.0771142,7 100.152842,12.369709 110.89226,23.109127 Z" id="Path" fill="#EC806F"></path>
    </g>
</svg>