<?xml version="1.0" encoding="UTF-8"?>
<svg width="128px" height="128px" viewBox="0 0 128 128" version="1.1" xmlns="http://www.w3.org/2000/svg" xmlns:xlink="http://www.w3.org/1999/xlink">
    <title>instagram_logo</title>
    <g id="instagram_logo" stroke="none" stroke-width="1" fill="none" fill-rule="evenodd">
        <path d="M53.2321451,0.0578733738 L56.1939259,0.0469301879 L56.1939259,0.0469301879 L71.3367815,0.0469301879 L71.3367815,0.0469301879 L75.9284805,0.0639877671 L75.9284805,0.0639877671 L79.2322432,0.0907450181 L79.2322432,0.0907450181 L83.1104562,0.154915251 L83.1104562,0.154915251 L85.7057462,0.230519772 L85.7057462,0.230519772 L87.4365398,0.296731873 L89.1339408,0.369996828 L89.1339408,0.369996828 L90.3586032,0.425396825 L90.3586032,0.425396825 C97.1685079,0.736 101.819429,1.81765079 105.889016,3.39936508 C110.096254,5.03415873 113.664254,7.22184127 117.221333,10.7786667 C120.778159,14.335746 122.965841,17.903746 124.600889,22.1109841 C126.131334,26.0492944 127.193696,30.5320376 127.542147,36.9890606 L127.691022,40.2691177 L127.691022,40.2691177 L127.779347,42.5819912 L127.779347,42.5819912 L127.837228,44.5633207 L127.837228,44.5633207 L127.894026,47.5488916 L127.894026,47.5488916 L127.92626,50.6055482 L127.92626,50.6055482 L127.954076,57.1507517 L127.954076,57.1507517 L127.958909,61.26163 L127.958909,61.26163 L127.95201,71.8376241 L127.95201,71.8376241 L127.915031,78.7204286 L127.915031,78.7204286 L127.882066,81.2777846 L127.882066,81.2777846 L127.820141,84.1288364 L127.820141,84.1288364 L127.776094,85.5544185 L127.776094,85.5544185 L127.703268,87.4769208 L127.630003,89.1743218 L127.630003,89.1743218 L127.574603,90.3989841 C127.264,97.2088889 126.182349,101.85981 124.600889,105.929397 C122.965841,110.136635 120.778159,113.704635 117.221333,117.261714 C113.664254,120.81854 110.096254,123.006222 105.889016,124.64127 C101.950706,126.171715 97.4679624,127.234077 91.0109394,127.582528 L88.5531132,127.696087 L88.5531132,127.696087 L85.8971398,127.803102 L83.4178543,127.878076 L83.4178543,127.878076 L79.8733822,127.942085 L79.8733822,127.942085 L74.8101211,127.982133 L74.8101211,127.982133 L68.2671806,127.998139 L68.2671806,127.998139 L55.6951633,127.991197 L55.6951633,127.991197 L48.9566435,127.952111 L48.9566435,127.952111 L44.7517675,127.883167 L44.7517675,127.883167 L43.0242387,127.83546 L41.6799871,127.789144 L39.7308943,127.710193 L39.7308943,127.710193 L37.6010159,127.614984 L37.6010159,127.614984 C30.7911111,127.304381 26.1401905,126.22273 22.0706032,124.64127 C17.8633651,123.006222 14.2953651,120.81854 10.7382857,117.261714 C7.18146032,113.704635 4.99377778,110.136635 3.35898413,105.929397 C1.82829288,101.991087 0.765923327,97.5083434 0.417472165,91.0513203 L0.303912528,88.5934941 L0.303912528,88.5934941 L0.210855662,86.3200157 L0.119959327,83.3781144 L0.119959327,83.3781144 L0.060754074,80.1351624 L0.060754074,80.1351624 L0.0177601523,74.8270918 L0.0177601523,74.8270918 L0.00141381863,67.8081976 L0.00141381863,67.8081976 L0.00991202623,55.3404139 L0.00991202623,55.3404139 L0.0527194406,48.5589253 L0.0527194406,48.5589253 L0.11755353,44.761938 L0.11755353,44.761938 L0.164540444,43.0646197 L0.210855662,41.7203681 L0.289806693,39.7712753 L0.289806693,39.7712753 L0.385015873,37.6413968 L0.385015873,37.6413968 C0.695619048,30.8314921 1.77726984,26.1805714 3.35898413,22.1109841 C4.99377778,17.903746 7.18146032,14.335746 10.7382857,10.7786667 C14.2953651,7.22184127 17.8633651,5.03415873 22.0706032,3.39936508 C26.0089135,1.86867384 30.4916566,0.80630428 36.9486797,0.457853117 L40.2287368,0.308978433 L40.2287368,0.308978433 L42.5416103,0.220653097 L42.5416103,0.220653097 L44.2771117,0.168995285 L44.2771117,0.168995285 L47.6764098,0.103651706 L47.6764098,0.103651706 L53.2321451,0.0578733738 L53.2321451,0.0578733738 Z M75.7026864,11.5899977 L73.3766109,11.5799417 L73.3766109,11.5799417 L54.9631756,11.5787243 L54.9631756,11.5787243 L48.3680625,11.6227595 L48.3680625,11.6227595 L45.5817516,11.6689615 L45.5817516,11.6689615 L44.0313133,11.7078048 L44.0313133,11.7078048 L42.7035796,11.7499072 L40.8380632,11.8215914 L40.8380632,11.8215914 L39.2628133,11.8899074 L39.2628133,11.8899074 L38.1264762,11.9413333 C37.634005,11.9637895 37.1592988,11.990969 36.7015126,12.0224173 L35.8082499,12.0908708 L35.8082499,12.0908708 L34.9586053,12.1698995 L34.9586053,12.1698995 L34.1510767,12.2586951 C33.6264293,12.3209682 33.1288578,12.3892138 32.6563596,12.4623542 L31.9661669,12.5756011 C31.8541855,12.5950426 31.7437086,12.6147563 31.6347049,12.6347254 L30.9981108,12.7574703 C30.8948747,12.7783937 30.7930493,12.7995388 30.6926032,12.8208889 L30.106228,12.9513132 L30.106228,12.9513132 L29.5514547,13.0858469 L29.5514547,13.0858469 L29.0267811,13.2236816 L29.0267811,13.2236816 L28.5307052,13.3640093 C28.4503255,13.3875601 28.3710749,13.411181 28.292922,13.4348554 L27.8369263,13.5774069 L27.8369263,13.5774069 L27.4057732,13.7204308 L27.4057732,13.7204308 L26.9979607,13.8631187 L26.9979607,13.8631187 L26.6119867,14.0046625 L26.6119867,14.0046625 L26.2463492,14.144254 L26.2463492,14.144254 C23.2599365,15.3048889 21.1286349,16.6913016 18.8899048,18.9302857 C16.6509206,21.1690159 15.2645079,23.3003175 14.103873,26.2867302 L13.8937032,26.8427187 L13.8937032,26.8427187 L13.7514863,27.2394242 L13.7514863,27.2394242 L13.6085293,27.6587192 L13.6085293,27.6587192 L13.4656406,28.1021059 L13.4656406,28.1021059 L13.3236283,28.5710861 L13.3236283,28.5710861 L13.1833007,29.067162 L13.1833007,29.067162 L13.0454659,29.5918357 L13.0454659,29.5918357 L12.9109323,30.146609 L12.9109323,30.146609 L12.7805079,30.7329841 L12.7805079,30.7329841 L12.6550012,31.3524631 C12.6345381,31.4585517 12.6143135,31.5660821 12.5943444,31.6750858 L12.4777294,32.3470368 C12.4588493,32.4620585 12.4402583,32.578616 12.4219732,32.6967405 L12.3160685,33.4245431 C12.1971102,34.2961694 12.0947925,35.2476493 12.0148907,36.2897161 L11.9520278,37.205351 C11.9425105,37.3617377 11.9334843,37.5200357 11.9249661,37.6802763 L11.8028413,40.3666682 L11.8028413,40.3666682 L11.7228485,42.3692687 L11.7228485,42.3692687 L11.6498182,44.7215766 L11.6498182,44.7215766 L11.5858853,48.1312226 L11.5858853,48.1312226 L11.5479711,52.6081843 L11.5479711,52.6081843 L11.5285078,61.30913 L11.5285078,61.30913 L11.5369753,72.5680838 L11.5369753,72.5680838 L11.5749645,78.9872971 L11.5749645,78.9872971 L11.5999717,80.8856123 L11.5999717,80.8856123 L11.6368371,82.7865607 L11.6368371,82.7865607 L11.6967884,84.9207481 L11.6967884,84.9207481 L11.7697657,86.8841357 L11.7697657,86.8841357 L11.9009524,89.8735238 L11.9009524,89.8735238 L11.9249661,90.3601046 L11.9249661,90.3601046 L11.9820363,91.2984874 C12.0658984,92.5192506 12.1801162,93.6196935 12.3160685,94.6158378 L12.4219732,95.3436404 C12.4402583,95.461765 12.4588493,95.5783224 12.4777294,95.6933441 L12.5943444,96.3652951 L12.5943444,96.3652951 L12.7170893,97.0018892 C12.7380128,97.1051253 12.7591579,97.2069507 12.7805079,97.3073968 L12.9109323,97.893772 C12.9330345,97.9888259 12.955308,98.0825632 12.9777359,98.175015 L13.1140212,98.7145507 C13.1369992,98.8019859 13.160098,98.8881982 13.1833007,98.9732189 L13.3236283,99.4692948 L13.3236283,99.4692948 L13.4656406,99.9382751 L13.4656406,99.9382751 L13.6085293,100.381662 L13.6085293,100.381662 L13.8227377,101.002039 L13.8227377,101.002039 L14.0343718,101.57328 C14.0576427,101.634209 14.0808154,101.694322 14.103873,101.753651 C15.2645079,104.740063 16.6511746,106.871365 18.8899048,109.110095 C21.1286349,111.349079 23.2599365,112.735492 26.2463492,113.896127 L26.8023378,114.106297 L26.8023378,114.106297 L27.1990432,114.248514 L27.1990432,114.248514 L27.6183383,114.391471 L27.6183383,114.391471 L28.0617249,114.534359 L28.0617249,114.534359 L28.5307052,114.676372 L28.5307052,114.676372 L29.0267811,114.816699 L29.0267811,114.816699 L29.5514547,114.954534 C29.7312791,114.999974 29.9161201,115.044863 30.106228,115.089068 L30.6926032,115.219492 L30.6926032,115.219492 L31.3120821,115.344999 C31.4181707,115.365462 31.5257012,115.385686 31.6347049,115.405656 L32.3066559,115.522271 C32.4216776,115.541151 32.538235,115.559742 32.6563596,115.578027 L33.3841622,115.683932 C34.2557885,115.80289 35.2072683,115.905208 36.2493351,115.985109 L37.1649701,116.047972 C37.3213568,116.05749 37.4796548,116.066516 37.6398954,116.075034 L42.0577101,116.26716 L42.0577101,116.26716 L44.3764751,116.342189 L44.3764751,116.342189 L47.7288768,116.409232 L47.7288768,116.409232 L53.227802,116.45519 L53.227802,116.45519 L60.757956,116.471204 L60.757956,116.471204 L72.8430817,116.462122 L72.8430817,116.462122 L79.7805427,116.415264 L79.7805427,116.415264 L83.2763943,116.350254 L83.2763943,116.350254 L84.881021,116.303212 L86.572162,116.241212 L88.6795909,116.151251 L88.6795909,116.151251 L89.8331429,116.099048 L89.8331429,116.099048 L90.3197237,116.075034 L90.3197237,116.075034 L91.2581065,116.017964 C92.4788697,115.934102 93.5793126,115.819884 94.5754569,115.683932 L95.3032595,115.578027 C95.421384,115.559742 95.5379415,115.541151 95.6529632,115.522271 L96.3249142,115.405656 L96.3249142,115.405656 L96.9615083,115.282911 C97.0647443,115.261987 97.1665698,115.240842 97.2670159,115.219492 L97.853391,115.089068 L97.853391,115.089068 L98.4081643,114.954534 L98.4081643,114.954534 L98.932838,114.816699 L98.932838,114.816699 L99.4289139,114.676372 L99.4289139,114.676372 L99.8978941,114.534359 L99.8978941,114.534359 L100.341281,114.391471 L100.341281,114.391471 L100.760576,114.248514 L100.760576,114.248514 L101.157281,114.106297 L101.157281,114.106297 L101.71327,113.896127 L101.71327,113.896127 C104.699683,112.735492 106.830984,111.349079 109.069714,109.110095 C111.196749,106.983302 112.554338,104.953462 113.679879,102.19532 L113.925247,101.57328 L113.925247,101.57328 L114.136881,101.002039 L114.136881,101.002039 L114.279569,100.594227 L114.279569,100.594227 L114.422593,100.163074 L114.422593,100.163074 L114.565145,99.707078 L114.565145,99.707078 L114.706416,99.2247377 C114.729809,99.1420688 114.753116,99.0582397 114.776318,98.9732189 L114.914153,98.4485453 L114.914153,98.4485453 L115.048687,97.893772 L115.048687,97.893772 L115.179111,97.3073968 L115.179111,97.3073968 L115.304618,96.6879179 C115.345544,96.4757407 115.385516,96.2577959 115.424399,96.0338331 L115.537646,95.3436404 C115.610786,94.8711422 115.679032,94.3735707 115.741305,93.8489233 L115.8301,93.0413947 L115.8301,93.0413947 L115.909129,92.1917501 L115.909129,92.1917501 L115.977583,91.2984874 C115.998548,90.9932966 116.017617,90.6805858 116.034653,90.3601046 L116.126171,88.3757631 L116.126171,88.3757631 L116.200831,86.6120776 L116.236771,85.6711154 L116.236771,85.6711154 L116.304167,83.5348234 L116.304167,83.5348234 L116.364097,80.5978691 L116.364097,80.5978691 L116.409093,75.9064264 L116.409093,75.9064264 L116.425024,71.6115799 L116.425024,71.6115799 L116.431647,62.903516 L116.431647,62.903516 L116.424017,55.998433 L116.424017,55.998433 L116.405035,51.4656435 L116.405035,51.4656435 L116.378191,48.4864453 L116.378191,48.4864453 L116.315165,44.9352655 L116.315165,44.9352655 L116.262831,43.1196383 L116.240156,42.4629205 L116.240156,42.4629205 L116.16653,40.5954708 L116.16653,40.5954708 L116.058667,38.1668571 L116.058667,38.1668571 C116.036211,37.674386 116.009031,37.1996797 115.977583,36.7418935 L115.909129,35.8486309 L115.909129,35.8486309 L115.8301,34.9989863 L115.8301,34.9989863 L115.741305,34.1914577 C115.679032,33.6668102 115.610786,33.1692387 115.537646,32.6967405 L115.424399,32.0065479 C115.404957,31.8945665 115.385244,31.7840895 115.365275,31.6750858 L115.24253,31.0384917 C115.221606,30.9352557 115.200461,30.8334302 115.179111,30.7329841 L115.048687,30.146609 L115.048687,30.146609 L114.914153,29.5918357 L114.914153,29.5918357 L114.776318,29.067162 C114.753116,28.9821413 114.729809,28.8983121 114.706416,28.8156432 L114.565145,28.3333029 L114.565145,28.3333029 L114.422593,27.8773072 C114.398773,27.8034199 114.374933,27.7305677 114.35109,27.6587192 L114.208133,27.2394242 L114.208133,27.2394242 L113.995337,26.6523677 L113.995337,26.6523677 L113.855746,26.2867302 L113.855746,26.2867302 C112.695111,23.3003175 111.308698,21.1690159 109.069714,18.9302857 C106.830984,16.6913016 104.699683,15.3048889 101.71327,14.144254 L101.347632,14.0046625 L101.347632,14.0046625 L100.760576,13.7918672 L100.760576,13.7918672 L100.341281,13.6489103 L100.341281,13.6489103 L99.6666971,13.4348554 L99.6666971,13.4348554 L99.1843568,13.2935844 L99.1843568,13.2935844 L98.6741697,13.1544021 C98.5867346,13.1314241 98.4980765,13.1085667 98.4081643,13.0858469 L97.853391,12.9513132 L97.853391,12.9513132 L97.2670159,12.8208889 L97.2670159,12.8208889 L96.6475369,12.6953821 C96.4353598,12.6544559 96.2174149,12.614484 95.9934521,12.5756011 L95.3032595,12.4623542 C94.8307613,12.3892138 94.3331898,12.3209682 93.8085423,12.2586951 L93.0010137,12.1698995 L93.0010137,12.1698995 L92.1513691,12.0908708 L92.1513691,12.0908708 L91.2581065,12.0224173 C90.9529157,12.0014518 90.6402049,11.9823835 90.3197237,11.9653471 L87.7887798,11.8499157 L87.7887798,11.8499157 L86.3823689,11.791674 L86.3823689,11.791674 L85.2560437,11.7499072 L85.2560437,11.7499072 L83.1888096,11.6879242 L83.1888096,11.6879242 L80.0632409,11.628849 L80.0632409,11.628849 L75.7026864,11.5899977 L75.7026864,11.5899977 Z M63.9799365,31.1657143 C82.1249524,31.1657143 96.8342857,45.8750476 96.8342857,64.0203175 C96.8342857,82.1653333 82.1249524,96.8746667 63.9799365,96.8746667 C45.8346667,96.8746667 31.1253333,82.1653333 31.1253333,64.0203175 C31.1253333,45.8750476 45.8346667,31.1657143 63.9799365,31.1657143 Z M63.9799365,42.6935873 C52.2013968,42.6935873 42.6532063,52.2417778 42.6532063,64.0203175 C42.6532063,75.7986032 52.2013968,85.3467937 63.9799365,85.3467937 C75.7582222,85.3467937 85.3064127,75.7986032 85.3064127,64.0203175 C85.3064127,52.2417778 75.7582222,42.6935873 63.9799365,42.6935873 Z M98.1323175,22.1899683 C102.372571,22.1899683 105.810032,25.6274286 105.810032,29.8676825 C105.810032,34.1079365 102.372571,37.5451429 98.1323175,37.5451429 C93.8923175,37.5451429 90.4548571,34.1079365 90.4548571,29.8676825 C90.4548571,25.6274286 93.8923175,22.1899683 98.1323175,22.1899683 Z" id="Shape" fill="#80D1D5"></path>
    </g>
</svg>