<?xml version="1.0" encoding="UTF-8"?>
<svg width="30px" height="30px" viewBox="0 0 30 30" version="1.1" xmlns="http://www.w3.org/2000/svg" xmlns:xlink="http://www.w3.org/1999/xlink">
    <title>qr-scan</title>
    <g id="Page-1" stroke="none" stroke-width="1" fill="none" fill-rule="evenodd">
        <g id="Artboard-Copy" fill="#FFFFFF" fill-rule="nonzero">
            <path d="M4.77603486,11.5637057 C5.42265795,11.5637057 5.76427015,11.2097003 5.76427015,10.5627248 L5.76427015,7.68185286 C5.76427015,6.41231608 6.43529412,5.7653406 7.65533769,5.7653406 L10.6078431,5.7653406 C11.2544662,5.7653406 11.6082789,5.41133515 11.6082789,4.77656676 C11.6082789,4.15400545 11.2544662,3.8 10.6078431,3.8 L7.63093682,3.8 C5.08104575,3.8 3.8,5.0573297 3.8,7.5719891 L3.8,10.5627248 C3.8,11.2097003 4.15381264,11.5637057 4.77603486,11.5637057 Z M25.2117647,11.5637057 C25.8583878,11.5637057 26.2,11.2097003 26.2,10.5627248 L26.2,7.5719891 C26.2,5.0573297 24.9189542,3.8 22.3690632,3.8 L19.3799564,3.8 C18.7455338,3.8 18.3917211,4.15400545 18.3917211,4.77656676 C18.3917211,5.41133515 18.7455338,5.7653406 19.3799564,5.7653406 L22.3324619,5.7653406 C23.540305,5.7653406 24.2357298,6.41231608 24.2357298,7.68185286 L24.2357298,10.5627248 C24.2357298,11.2097003 24.5895425,11.5637057 25.2117647,11.5637057 Z M13.9385621,14.4689918 C14.243573,14.4689918 14.4753813,14.2370572 14.4753813,13.9440872 L14.4753813,9.68381471 C14.4753813,9.39084469 14.243573,9.146703 13.9385621,9.146703 L9.68061002,9.146703 C9.38779956,9.146703 9.15599129,9.39084469 9.15599129,9.68381471 L9.15599129,13.9440872 C9.15599129,14.2370572 9.38779956,14.4689918 9.68061002,14.4689918 L13.9385621,14.4689918 Z M20.3071895,14.4689918 C20.6122004,14.4689918 20.8440087,14.2370572 20.8440087,13.9440872 L20.8440087,9.68381471 C20.8440087,9.39084469 20.6122004,9.146703 20.3071895,9.146703 L16.0614379,9.146703 C15.756427,9.146703 15.5246187,9.39084469 15.5246187,9.68381471 L15.5246187,13.9440872 C15.5246187,14.2370572 15.756427,14.4689918 16.0614379,14.4689918 L20.3071895,14.4689918 Z M19.7825708,13.4069755 L16.5860566,13.4069755 L16.5860566,10.2087193 L19.7825708,10.2087193 L19.7825708,13.4069755 Z M13.4139434,13.4069755 L10.2052288,13.4069755 L10.2052288,10.2087193 L13.4139434,10.2087193 L13.4139434,13.4069755 Z M18.8553377,12.4792371 L18.8553377,11.1486649 L17.5132898,11.1486649 L17.5132898,12.4792371 L18.8553377,12.4792371 Z M12.4745098,12.4792371 L12.4745098,11.1486649 L11.1446623,11.1486649 L11.1446623,12.4792371 L12.4745098,12.4792371 Z M13.9385621,20.853297 C14.243573,20.853297 14.4753813,20.6091553 14.4753813,20.3161853 L14.4753813,16.0559128 C14.4753813,15.7629428 14.243573,15.5310082 13.9385621,15.5310082 L9.68061002,15.5310082 C9.38779956,15.5310082 9.15599129,15.7629428 9.15599129,16.0559128 L9.15599129,20.3161853 C9.15599129,20.6091553 9.38779956,20.853297 9.68061002,20.853297 L13.9385621,20.853297 Z M20.6854031,17.0080654 L20.6854031,15.6774932 L19.3555556,15.6774932 L19.3555556,17.0080654 L20.6854031,17.0080654 Z M17.0130719,17.0080654 L17.0130719,15.6774932 L15.6832244,15.6774932 L15.6832244,17.0080654 L17.0130719,17.0080654 Z M13.4139434,19.7912807 L10.2052288,19.7912807 L10.2052288,16.5930245 L13.4139434,16.5930245 L13.4139434,19.7912807 Z M12.4745098,18.8513351 L12.4745098,17.5207629 L11.1446623,17.5207629 L11.1446623,18.8513351 L12.4745098,18.8513351 Z M18.8431373,18.8513351 L18.8431373,17.5207629 L17.5132898,17.5207629 L17.5132898,18.8513351 L18.8431373,18.8513351 Z M22.3690632,26.2 C24.9189542,26.2 26.2,24.9304632 26.2,22.4158038 L26.2,19.4372752 C26.2,18.7902997 25.8461874,18.4362943 25.2117647,18.4362943 C24.577342,18.4362943 24.2357298,18.7902997 24.2357298,19.4372752 L24.2357298,22.3181471 C24.2357298,23.5876839 23.540305,24.2346594 22.3324619,24.2346594 L19.3799564,24.2346594 C18.7455338,24.2346594 18.3917211,24.5886649 18.3917211,25.2234332 C18.3917211,25.8459946 18.7455338,26.2 19.3799564,26.2 L22.3690632,26.2 Z M10.6078431,26.2 C11.2544662,26.2 11.6082789,25.8459946 11.6082789,25.2234332 C11.6082789,24.5886649 11.2544662,24.2346594 10.6078431,24.2346594 L7.65533769,24.2346594 C6.43529412,24.2346594 5.76427015,23.5876839 5.76427015,22.3181471 L5.76427015,19.4372752 C5.76427015,18.7902997 5.41045752,18.4362943 4.77603486,18.4362943 C4.1416122,18.4362943 3.8,18.7902997 3.8,19.4372752 L3.8,22.4158038 C3.8,24.9426703 5.08104575,26.2 7.63093682,26.2 L10.6078431,26.2 Z M17.0130719,20.6946049 L17.0130719,19.3640327 L15.6832244,19.3640327 L15.6832244,20.6946049 L17.0130719,20.6946049 Z M20.6854031,20.6946049 L20.6854031,19.3640327 L19.3555556,19.3640327 L19.3555556,20.6946049 L20.6854031,20.6946049 Z" id="shape"></path>
        </g>
    </g>
</svg>