<svg xmlns="http://www.w3.org/2000/svg" viewBox="0 0 389.25 259.69"><defs><style>.cls-1{fill:#5e9ed5;}.cls-2{fill:#66b0e1;}.cls-3{fill:#ffd857;}.cls-4{fill:#a9d0ee;}.cls-5{fill:#79bbe7;}.cls-6{fill:#e890ae;}.cls-7{fill:#87c9ef;}.cls-8{fill:#eda6c5;}.cls-9{fill:#fff196;}.cls-10{fill:#c5e9fb;}</style></defs><title>Asset 1</title><g id="Layer_2" data-name="Layer 2"><g id="Layer_1-2" data-name="Layer 1"><path class="cls-1" d="M155.71,121.54l38.76-23.31A42.87,42.87,0,0,0,215,56.64L208.55,0,167.46,24.92a42.9,42.9,0,0,0-20.13,43.34l8.38,53.28"/><path class="cls-1" d="M198.62,116.19,161.2,135.81a85,85,0,0,1,46.61,10l61.13,33.09a85.17,85.17,0,0,0,79.15-.84l41.16-22-7.13-.66a129.81,129.81,0,0,1-40.95-10.73L274.59,114.9a85.15,85.15,0,0,0-76,1.29"/><path class="cls-1" d="M264.36,220.36c-27-5.14-52.44-20.59-71.17-42.56L120.44,92.46c-21.76-26.4-55-33.56-82.3-19.06L0,93.83l8.76,3.89c14.4,6.4,27.24,17.67,37.1,32.9l59.65,89.7c30.17,41,60.07,49,104.69,28.63l54.16-28.59"/><path class="cls-2" d="M94.81,162.13c4.09,27.43,12.53,54.14,25.75,75.86,14.8,14.64,30.12,21.7,47.68,21.7a78.93,78.93,0,0,0,19-2.49c-27.7-20.16-50.22-53-61.2-82.34a69.14,69.14,0,0,1-31.25-12.73"/><path class="cls-3" d="M237.9,106.59c-1.84,0-3.67.06-5.5.18a259.6,259.6,0,0,1-30.87,36c2.13.94,4.22,2,6.28,3.08l61.13,33.09a85.16,85.16,0,0,0,79.15-.84l41.16-22-7.13-.66a129.81,129.81,0,0,1-40.95-10.73L274.59,114.9a85.19,85.19,0,0,0-36.69-8.31"/><path class="cls-4" d="M178.77,160.88c-15.56,10-30.48,14.52-44.47,14.52a62.54,62.54,0,0,1-8.24-.54c11,29.34,33.5,62.18,61.2,82.34A134.1,134.1,0,0,0,210.2,249l54.16-28.59c-27-5.14-52.44-20.59-71.17-42.56l-14.42-16.92"/><path class="cls-5" d="M67.45,66a61.83,61.83,0,0,0-26.66,6c1.18,4.45,2.47,8.78,3.86,13,11.49,34.5,28.8,61.88,50.16,77.1a260.94,260.94,0,0,1-.44-74.52q1.06-7.31,2.48-14.37A64.42,64.42,0,0,0,67.45,66"/><path class="cls-6" d="M208.55,0,167.46,24.92a42.9,42.9,0,0,0-20.13,43.34v0c15.61-16.74,37.37-30.06,64.77-37L208.55,0"/><path class="cls-7" d="M96.85,73.24q-1.42,7.07-2.48,14.37a260.94,260.94,0,0,0,.44,74.52,69.14,69.14,0,0,0,31.25,12.73,135.41,135.41,0,0,1-4.4-13.93,95.72,95.72,0,0,1,5.07-61.09l-6.29-7.38A74.94,74.94,0,0,0,96.85,73.24"/><path class="cls-8" d="M212.11,31.29c-27.4,7-49.16,20.28-64.77,37l8.37,53.23,38.76-23.31A42.87,42.87,0,0,0,215,56.64l-2.87-25.35"/><path class="cls-9" d="M232.4,106.77a85.16,85.16,0,0,0-33.78,9.42L161.2,135.81c2.05-.15,4.11-.22,6.15-.22a85,85,0,0,1,34.18,7.17,259.6,259.6,0,0,0,30.87-36"/><path class="cls-10" d="M126.73,99.84a95.72,95.72,0,0,0-5.07,61.09,135.41,135.41,0,0,0,4.4,13.93,62.54,62.54,0,0,0,8.24.54c14,0,28.91-4.56,44.47-14.52l-52-61"/></g></g></svg>